<?xml version="1.0" encoding="utf-8" standalone="no"?>
<!DOCTYPE svg PUBLIC "-//W3C//DTD SVG 1.1//EN"
  "http://www.w3.org/Graphics/SVG/1.1/DTD/svg11.dtd">
<!-- Created with matplotlib (http://matplotlib.org/) -->
<svg height="198pt" version="1.1" viewBox="0 0 305 198" width="305pt" xmlns="http://www.w3.org/2000/svg" xmlns:xlink="http://www.w3.org/1999/xlink">
 <defs>
  <style type="text/css">
*{stroke-linecap:butt;stroke-linejoin:round;}
  </style>
 </defs>
 <g id="figure_1">
  <g id="patch_1">
   <path d="M 0 198.700101 
L 305.220582 198.700101 
L 305.220582 0 
L 0 0 
z
" style="fill:none;"/>
  </g>
  <g id="axes_1">
   <g id="patch_2">
    <path d="M 43.266582 165.617649 
L 301.620582 165.617649 
L 301.620582 7.059249 
L 43.266582 7.059249 
z
" style="fill:none;"/>
   </g>
   <g id="line2d_1">
    <path clip-path="url(#pfdab9a046f)" d="M 306.220582 20.249627 
L 43.285581 160.492729 
L 43.268907 160.501622 
" style="fill:none;stroke:#668ec1;stroke-linecap:square;stroke-width:0.75;"/>
   </g>
   <g id="line2d_2">
    <defs>
     <path d="M -0 4.242641 
L 2.545584 0 
L 0 -4.242641 
L -2.545584 -0 
z
" id="md006315287" style="stroke:#668ec1;stroke-linejoin:miter;"/>
    </defs>
    <g clip-path="url(#pfdab9a046f)">
     <use style="fill:#ebf0f7;stroke:#668ec1;stroke-linejoin:miter;" x="219.832858" xlink:href="#md006315287" y="66.269058"/>
    </g>
   </g>
   <g id="line2d_3">
    <defs>
     <path d="M 0 -3 
L -3 3 
L 3 3 
z
" id="m9cbb435d5e" style="stroke:#668ec1;stroke-linejoin:miter;"/>
    </defs>
    <g clip-path="url(#pfdab9a046f)">
     <use style="fill:#ebf0f7;stroke:#668ec1;stroke-linejoin:miter;" x="209.378126" xlink:href="#m9cbb435d5e" y="71.285456"/>
    </g>
   </g>
   <g id="line2d_4">
    <defs>
     <path d="M -3 3 
L 3 3 
L 3 -3 
L -3 -3 
z
" id="m5d484e7391" style="stroke:#668ec1;stroke-linejoin:miter;"/>
    </defs>
    <g clip-path="url(#pfdab9a046f)">
     <use style="fill:#ebf0f7;stroke:#668ec1;stroke-linejoin:miter;" x="201.148545" xlink:href="#m5d484e7391" y="76.020773"/>
    </g>
   </g>
   <g id="line2d_5">
    <defs>
     <path d="M 0 3 
C 0.795609 3 1.55874 2.683901 2.12132 2.12132 
C 2.683901 1.55874 3 0.795609 3 0 
C 3 -0.795609 2.683901 -1.55874 2.12132 -2.12132 
C 1.55874 -2.683901 0.795609 -3 0 -3 
C -0.795609 -3 -1.55874 -2.683901 -2.12132 -2.12132 
C -2.683901 -1.55874 -3 -0.795609 -3 0 
C -3 0.795609 -2.683901 1.55874 -2.12132 2.12132 
C -1.55874 2.683901 -0.795609 3 0 3 
z
" id="ma5404c953a" style="stroke:#668ec1;"/>
    </defs>
    <g clip-path="url(#pfdab9a046f)">
     <use style="fill:#ebf0f7;stroke:#668ec1;" x="194.423966" xlink:href="#ma5404c953a" y="79.401074"/>
    </g>
   </g>
   <g id="line2d_6">
    <defs>
     <path d="M 0 0 
L 0 3 
M 0 0 
L 2.4 -1.5 
M 0 0 
L -2.4 -1.5 
" id="mc878051601" style="stroke:#668ec1;"/>
    </defs>
    <g clip-path="url(#pfdab9a046f)">
     <use style="fill:#ebf0f7;stroke:#668ec1;" x="194.423966" xlink:href="#mc878051601" y="79.829541"/>
    </g>
   </g>
   <g id="line2d_7">
    <defs>
     <path d="M 0 0 
L 0 -3 
M 0 0 
L -2.4 1.5 
M 0 0 
L 2.4 1.5 
" id="mc91eba5c34" style="stroke:#668ec1;"/>
    </defs>
    <g clip-path="url(#pfdab9a046f)">
     <use style="fill:#ebf0f7;stroke:#668ec1;" x="188.777548" xlink:href="#mc91eba5c34" y="82.848302"/>
    </g>
   </g>
   <g id="line2d_8">
    <defs>
     <path d="M 0 0 
L -3 -0 
M 0 0 
L 1.5 2.4 
M 0 0 
L 1.5 -2.4 
" id="m83d7d98ba3" style="stroke:#668ec1;"/>
    </defs>
    <g clip-path="url(#pfdab9a046f)">
     <use style="fill:#ebf0f7;stroke:#668ec1;" x="179.719393" xlink:href="#m83d7d98ba3" y="87.735113"/>
    </g>
   </g>
   <g id="line2d_9">
    <defs>
     <path d="M 0 0 
L 3 0 
M 0 0 
L -1.5 -2.4 
M 0 0 
L -1.5 2.4 
" id="m17be40f069" style="stroke:#668ec1;"/>
    </defs>
    <g clip-path="url(#pfdab9a046f)">
     <use style="fill:#ebf0f7;stroke:#668ec1;" x="172.671557" xlink:href="#m17be40f069" y="91.560918"/>
    </g>
   </g>
   <g id="line2d_10">
    <defs>
     <path d="M -3 3 
L 3 -3 
M -3 -3 
L 3 3 
" id="m05467c9dd2" style="stroke:#668ec1;"/>
    </defs>
    <g clip-path="url(#pfdab9a046f)">
     <use style="fill:#ebf0f7;stroke:#668ec1;" x="166.959598" xlink:href="#m05467c9dd2" y="94.752158"/>
    </g>
   </g>
   <g id="line2d_11">
    <defs>
     <path d="M -3 0 
L 3 0 
M 0 3 
L 0 -3 
" id="m7c411982c7" style="stroke:#668ec1;"/>
    </defs>
    <g clip-path="url(#pfdab9a046f)">
     <use style="fill:#ebf0f7;stroke:#668ec1;" x="158.125177" xlink:href="#m7c411982c7" y="98.933875"/>
    </g>
   </g>
   <g id="line2d_12">
    <defs>
     <path d="M -0.005751 0.852077 
L 1.661981 2.680831 
C 1.698403 2.717252 1.734824 2.742173 1.784665 2.742173 
C 1.895847 2.742173 1.895847 2.644409 1.895847 2.63099 
C 1.895847 2.594569 1.857508 2.521725 1.834505 2.483387 
L 0.630671 0.386262 
L 2.827476 -0.606709 
C 2.97508 -0.668051 3 -0.68147 3 -0.754313 
C 3 -0.815655 2.95016 -0.865495 2.877316 -0.865495 
L 0.398722 -0.361342 
L 0.128435 -2.730671 
C 0.103514 -2.901278 0.103514 -2.96262 0.005751 -2.96262 
C -0.105431 -2.96262 -0.105431 -2.901278 -0.128435 -2.717252 
L -0.398722 -0.361342 
L -2.877316 -0.865495 
C -2.95016 -0.865495 -3 -0.815655 -3 -0.754313 
C -3 -0.68147 -2.938658 -0.65655 -2.840895 -0.606709 
L -0.632588 0.386262 
L -1.809585 2.460383 
C -1.895847 2.60607 -1.895847 2.619489 -1.895847 2.63099 
C -1.895847 2.644409 -1.895847 2.742173 -1.784665 2.742173 
C -1.761661 2.742173 -1.711821 2.742173 -1.600639 2.619489 
z
" id="m15bdc24fd4" style="stroke:#668ec1;"/>
    </defs>
    <g clip-path="url(#pfdab9a046f)">
     <use style="fill:#ebf0f7;stroke:#668ec1;" x="148.719163" xlink:href="#m15bdc24fd4" y="104.336746"/>
    </g>
   </g>
   <g id="matplotlib.axis_1">
    <g id="xtick_1">
     <g id="line2d_13">
      <defs>
       <path d="M 0 0 
L 0 -6 
" id="m2908f234f4" style="stroke:#000000;stroke-width:0.8;"/>
      </defs>
      <g>
       <use style="stroke:#000000;stroke-width:0.8;" x="43.266582" xlink:href="#m2908f234f4" y="165.617649"/>
      </g>
     </g>
     <g id="text_1">
      <!-- $0.0$ -->
      <defs>
       <path d="M 42 31.640625 
C 42 37.75 41.90625 48.125 37.703125 56.109375 
C 34 63.109375 28.09375 65.59375 22.90625 65.59375 
C 18.09375 65.59375 12 63.40625 8.203125 56.203125 
C 4.203125 48.71875 3.796875 39.4375 3.796875 31.640625 
C 3.796875 25.953125 3.90625 17.28125 7 9.671875 
C 11.296875 -0.609375 19 -2 22.90625 -2 
C 27.5 -2 34.5 -0.109375 38.59375 9.375 
C 41.59375 16.28125 42 24.359375 42 31.640625 
z
M 22.90625 -0.40625 
C 16.5 -0.40625 12.703125 5.078125 11.296875 12.6875 
C 10.203125 18.5625 10.203125 27.15625 10.203125 32.75 
C 10.203125 40.4375 10.203125 46.828125 11.5 52.921875 
C 13.40625 61.390625 19 64 22.90625 64 
C 27 64 32.296875 61.296875 34.203125 53.125 
C 35.5 47.4375 35.59375 40.734375 35.59375 32.75 
C 35.59375 26.25 35.59375 18.265625 34.40625 12.375 
C 32.296875 1.484375 26.40625 -0.40625 22.90625 -0.40625 
z
" id="CMR17-48"/>
       <path d="M 18.40625 4.796875 
C 18.40625 7.6875 16 9.671875 13.59375 9.671875 
C 10.703125 9.671875 8.703125 7.28125 8.703125 4.890625 
C 8.703125 2 11.09375 0 13.5 0 
C 16.40625 0 18.40625 2.390625 18.40625 4.796875 
z
" id="CMMI12-58"/>
      </defs>
      <g transform="translate(36.901543 178.536148)scale(0.1 -0.1)">
       <use transform="scale(0.996264)" xlink:href="#CMR17-48"/>
       <use transform="translate(45.690477 0)scale(0.996264)" xlink:href="#CMMI12-58"/>
       <use transform="translate(72.787654 0)scale(0.996264)" xlink:href="#CMR17-48"/>
      </g>
     </g>
    </g>
    <g id="xtick_2">
     <g id="line2d_14">
      <g>
       <use style="stroke:#000000;stroke-width:0.8;" x="77.713782" xlink:href="#m2908f234f4" y="165.617649"/>
      </g>
     </g>
     <g id="text_2">
      <!-- $0.1$ -->
      <defs>
       <path d="M 26.59375 63.40625 
C 26.59375 65.5 26.5 65.5 25.09375 65.5 
C 21.203125 61.1875 15.296875 59.796875 9.703125 59.796875 
C 9.40625 59.796875 8.90625 59.796875 8.796875 59.5 
C 8.703125 59.296875 8.703125 59.09375 8.703125 57 
C 11.796875 57 17 57.59375 21 59.984375 
L 21 7.203125 
C 21 3.6875 20.796875 2.5 12.203125 2.5 
L 9.203125 2.5 
L 9.203125 0 
C 14 0 19 0 23.796875 0 
C 28.59375 0 33.59375 0 38.40625 0 
L 38.40625 2.5 
L 35.40625 2.5 
C 26.796875 2.5 26.59375 3.59375 26.59375 7.15625 
z
" id="CMR17-49"/>
      </defs>
      <g transform="translate(71.348743 178.536148)scale(0.1 -0.1)">
       <use transform="scale(0.996264)" xlink:href="#CMR17-48"/>
       <use transform="translate(45.690477 0)scale(0.996264)" xlink:href="#CMMI12-58"/>
       <use transform="translate(72.787654 0)scale(0.996264)" xlink:href="#CMR17-49"/>
      </g>
     </g>
    </g>
    <g id="xtick_3">
     <g id="line2d_15">
      <g>
       <use style="stroke:#000000;stroke-width:0.8;" x="112.160982" xlink:href="#m2908f234f4" y="165.617649"/>
      </g>
     </g>
     <g id="text_3">
      <!-- $0.2$ -->
      <defs>
       <path d="M 41.703125 15.453125 
L 39.90625 15.453125 
C 38.90625 8.375 38.09375 7.171875 37.703125 6.5625 
C 37.203125 5.765625 30 5.765625 28.59375 5.765625 
L 9.40625 5.765625 
C 13 9.671875 20 16.75 28.5 24.953125 
C 34.59375 30.734375 41.703125 37.53125 41.703125 47.421875 
C 41.703125 59.21875 32.296875 66 21.796875 66 
C 10.796875 66 4.09375 56.3125 4.09375 47.34375 
C 4.09375 43.4375 7 42.9375 8.203125 42.9375 
C 9.203125 42.9375 12.203125 43.546875 12.203125 47.03125 
C 12.203125 50.109375 9.59375 51 8.203125 51 
C 7.59375 51 7 50.90625 6.59375 50.703125 
C 8.5 59.21875 14.296875 63.40625 20.40625 63.40625 
C 29.09375 63.40625 34.796875 56.515625 34.796875 47.421875 
C 34.796875 38.734375 29.703125 31.25 24 24.75 
L 4.09375 2.28125 
L 4.09375 0 
L 39.296875 0 
z
" id="CMR17-50"/>
      </defs>
      <g transform="translate(105.795943 178.536148)scale(0.1 -0.1)">
       <use transform="scale(0.996264)" xlink:href="#CMR17-48"/>
       <use transform="translate(45.690477 0)scale(0.996264)" xlink:href="#CMMI12-58"/>
       <use transform="translate(72.787654 0)scale(0.996264)" xlink:href="#CMR17-50"/>
      </g>
     </g>
    </g>
    <g id="xtick_4">
     <g id="line2d_16">
      <g>
       <use style="stroke:#000000;stroke-width:0.8;" x="146.608182" xlink:href="#m2908f234f4" y="165.617649"/>
      </g>
     </g>
     <g id="text_4">
      <!-- $0.3$ -->
      <defs>
       <path d="M 22.09375 33.703125 
C 31 33.703125 34.90625 25.96875 34.90625 17.03125 
C 34.90625 5 28.5 0.390625 22.703125 0.390625 
C 17.40625 0.390625 8.796875 3.03125 6.09375 10.828125 
C 6.59375 10.625 7.09375 10.625 7.59375 10.625 
C 10 10.625 11.796875 12.21875 11.796875 14.8125 
C 11.796875 17.703125 9.59375 19 7.59375 19 
C 5.90625 19 3.296875 18.203125 3.296875 14.46875 
C 3.296875 5.234375 12.296875 -2 22.90625 -2 
C 34 -2 42.5 6.71875 42.5 16.953125 
C 42.5 26.671875 34.5 33.703125 25 34.796875 
C 32.59375 36.375 39.90625 43.0625 39.90625 52.015625 
C 39.90625 59.6875 32 65.296875 23 65.296875 
C 13.90625 65.296875 5.90625 59.828125 5.90625 52.015625 
C 5.90625 48.59375 8.5 48 9.796875 48 
C 11.90625 48 13.703125 49.296875 13.703125 51.890625 
C 13.703125 54.46875 11.90625 55.765625 9.796875 55.765625 
C 9.40625 55.765625 8.90625 55.765625 8.5 55.578125 
C 11.40625 61.859375 19.296875 63 22.796875 63 
C 26.296875 63 32.90625 61.328125 32.90625 51.875 
C 32.90625 49.109375 32.5 44.1875 29.09375 39.84375 
C 26.09375 36 22.703125 36 19.40625 35.6875 
C 18.90625 35.6875 16.59375 35.453125 16.203125 35.453125 
C 15.5 35.359375 15.09375 35.265625 15.09375 34.5 
C 15.09375 33.796875 15.203125 33.703125 17.203125 33.703125 
z
" id="CMR17-51"/>
      </defs>
      <g transform="translate(140.243143 178.536148)scale(0.1 -0.1)">
       <use transform="scale(0.996264)" xlink:href="#CMR17-48"/>
       <use transform="translate(45.690477 0)scale(0.996264)" xlink:href="#CMMI12-58"/>
       <use transform="translate(72.787654 0)scale(0.996264)" xlink:href="#CMR17-51"/>
      </g>
     </g>
    </g>
    <g id="xtick_5">
     <g id="line2d_17">
      <g>
       <use style="stroke:#000000;stroke-width:0.8;" x="181.055382" xlink:href="#m2908f234f4" y="165.617649"/>
      </g>
     </g>
     <g id="text_5">
      <!-- $0.4$ -->
      <defs>
       <path d="M 33.59375 64.40625 
C 33.59375 66.5 33.5 66.5 31.703125 66.5 
L 2 19.59375 
L 2 17 
L 27.796875 17 
L 27.796875 7.140625 
C 27.796875 3.5 27.59375 2.5 20.59375 2.5 
L 18.703125 2.5 
L 18.703125 0 
C 21.90625 0 27.296875 0 30.703125 0 
C 34.09375 0 39.5 0 42.703125 0 
L 42.703125 2.5 
L 40.796875 2.5 
C 33.796875 2.5 33.59375 3.5 33.59375 7.140625 
L 33.59375 17 
L 43.796875 17 
L 43.796875 19.59375 
L 33.59375 19.59375 
z
M 28.09375 57.859375 
L 28.09375 19.59375 
L 4 19.59375 
z
" id="CMR17-52"/>
      </defs>
      <g transform="translate(174.690343 178.536148)scale(0.1 -0.1)">
       <use transform="scale(0.996264)" xlink:href="#CMR17-48"/>
       <use transform="translate(45.690477 0)scale(0.996264)" xlink:href="#CMMI12-58"/>
       <use transform="translate(72.787654 0)scale(0.996264)" xlink:href="#CMR17-52"/>
      </g>
     </g>
    </g>
    <g id="xtick_6">
     <g id="line2d_18">
      <g>
       <use style="stroke:#000000;stroke-width:0.8;" x="215.502582" xlink:href="#m2908f234f4" y="165.617649"/>
      </g>
     </g>
     <g id="text_6">
      <!-- $0.5$ -->
      <defs>
       <path d="M 11.40625 57.6875 
C 12.40625 57.28125 16.5 56 20.703125 56 
C 30 56 35.09375 61.109375 38 64.0625 
C 38 64.953125 38 65.5 37.40625 65.5 
C 37.296875 65.5 37.09375 65.5 36.296875 65.046875 
C 32.796875 63.40625 28.703125 62.078125 23.703125 62.078125 
C 20.703125 62.078125 16.203125 62.484375 11.296875 64.671875 
C 10.203125 65.171875 10 65.171875 9.90625 65.171875 
C 9.40625 65.171875 9.296875 65.0625 9.296875 63.078125 
L 9.296875 34.421875 
C 9.296875 32.640625 9.296875 32.140625 10.296875 32.140625 
C 10.796875 32.140625 11 32.34375 11.5 33.03125 
C 14.703125 37.515625 19.09375 39.40625 24.09375 39.40625 
C 27.59375 39.40625 35.09375 37.21875 35.09375 20.140625 
C 35.09375 16.953125 35.09375 11.171875 32.09375 6.578125 
C 29.59375 2.484375 25.703125 0.390625 21.40625 0.390625 
C 14.796875 0.390625 8.09375 5 6.296875 12.71875 
C 6.703125 12.609375 7.5 12.421875 7.90625 12.421875 
C 9.203125 12.421875 11.703125 13.125 11.703125 16.21875 
C 11.703125 18.90625 9.796875 20 7.90625 20 
C 5.59375 20 4.09375 18.59375 4.09375 15.796875 
C 4.09375 7.09375 11 -2 21.59375 -2 
C 31.90625 -2 41.703125 6.875 41.703125 19.75 
C 41.703125 31.71875 33.90625 41 24.203125 41 
C 19.09375 41 14.796875 39.109375 11.40625 35.53125 
z
" id="CMR17-53"/>
      </defs>
      <g transform="translate(209.137543 178.536148)scale(0.1 -0.1)">
       <use transform="scale(0.996264)" xlink:href="#CMR17-48"/>
       <use transform="translate(45.690477 0)scale(0.996264)" xlink:href="#CMMI12-58"/>
       <use transform="translate(72.787654 0)scale(0.996264)" xlink:href="#CMR17-53"/>
      </g>
     </g>
    </g>
    <g id="xtick_7">
     <g id="line2d_19">
      <g>
       <use style="stroke:#000000;stroke-width:0.8;" x="249.949782" xlink:href="#m2908f234f4" y="165.617649"/>
      </g>
     </g>
     <g id="text_7">
      <!-- $0.6$ -->
      <defs>
       <path d="M 10.59375 34 
C 10.59375 57.65625 21.796875 63 28.296875 63 
C 30.40625 63 35.5 62.640625 37.5 59 
C 35.90625 59 32.90625 59 32.90625 55.515625 
C 32.90625 52.828125 35.09375 51.921875 36.5 51.921875 
C 37.40625 51.921875 40.09375 52.3125 40.09375 55.625 
C 40.09375 61.78125 35.09375 65.296875 28.203125 65.296875 
C 16.296875 65.296875 3.796875 52.96875 3.796875 31 
C 3.796875 3.953125 15.09375 -2 23.09375 -2 
C 32.796875 -2 42 6.671875 42 20.046875 
C 42 32.515625 33.90625 41.59375 23.703125 41.59375 
C 17.59375 41.59375 13.09375 37.609375 10.59375 30.625 
z
M 23.09375 0.390625 
C 10.796875 0.390625 10.796875 18.75 10.796875 22.4375 
C 10.796875 29.625 14.203125 40 23.5 40 
C 25.203125 40 30.09375 40 33.40625 33.125 
C 35.203125 29.21875 35.203125 25.140625 35.203125 20.140625 
C 35.203125 14.75 35.203125 10.78125 33.09375 6.78125 
C 30.90625 2.671875 27.703125 0.390625 23.09375 0.390625 
z
" id="CMR17-54"/>
      </defs>
      <g transform="translate(243.584743 178.536148)scale(0.1 -0.1)">
       <use transform="scale(0.996264)" xlink:href="#CMR17-48"/>
       <use transform="translate(45.690477 0)scale(0.996264)" xlink:href="#CMMI12-58"/>
       <use transform="translate(72.787654 0)scale(0.996264)" xlink:href="#CMR17-54"/>
      </g>
     </g>
    </g>
    <g id="xtick_8">
     <g id="line2d_20">
      <g>
       <use style="stroke:#000000;stroke-width:0.8;" x="284.396982" xlink:href="#m2908f234f4" y="165.617649"/>
      </g>
     </g>
     <g id="text_8">
      <!-- $0.7$ -->
      <defs>
       <path d="M 45.09375 61.578125 
L 45.09375 63.765625 
L 21.59375 63.765625 
C 9.90625 63.765625 9.703125 65.078125 9.296875 67 
L 7.5 67 
L 4.59375 48.34375 
L 6.40625 48.34375 
C 6.703125 50.234375 7.40625 55.3125 8.59375 57.203125 
C 9.203125 58 16.59375 58 18.296875 58 
L 40.296875 58 
L 29.203125 41.578125 
C 21.796875 30.53125 16.703125 15.609375 16.703125 2.578125 
C 16.703125 1.390625 16.703125 -2 20.296875 -2 
C 23.90625 -2 23.90625 1.390625 23.90625 2.671875 
L 23.90625 7.265625 
C 23.90625 23.5625 26.703125 34.3125 31.296875 41.1875 
z
" id="CMR17-55"/>
      </defs>
      <g transform="translate(278.031943 178.536148)scale(0.1 -0.1)">
       <use transform="scale(0.996264)" xlink:href="#CMR17-48"/>
       <use transform="translate(45.690477 0)scale(0.996264)" xlink:href="#CMMI12-58"/>
       <use transform="translate(72.787654 0)scale(0.996264)" xlink:href="#CMR17-55"/>
      </g>
     </g>
    </g>
    <g id="text_9">
     <!-- $N^{-0.3042}$ -->
     <defs>
      <path d="M 74 57.78125 
C 75.09375 62.09375 76.703125 65.09375 84.296875 65.09375 
C 84.59375 65.09375 85.796875 65.09375 85.796875 66.859375 
C 85.796875 68 84.90625 68 84.5 68 
C 82.5 68 77.40625 68 75.40625 68 
L 70.59375 68 
C 69.203125 68 67.40625 68 66 68 
C 65.40625 68 64.203125 68 64.203125 66.09375 
C 64.203125 65.09375 65 65.09375 65.703125 65.09375 
C 71.703125 65.09375 72.09375 62.796875 72.09375 60.984375 
C 72.09375 60.09375 72 59.78125 71.703125 58.390625 
L 60.40625 13.28125 
L 39 66.390625 
C 38.296875 68 38.203125 68 36 68 
L 23.796875 68 
C 21.796875 68 20.90625 68 20.90625 66.09375 
C 20.90625 65.09375 21.59375 65.09375 23.5 65.09375 
C 24 65.09375 29.90625 65.09375 29.90625 64.296875 
C 29.90625 64.09375 29.703125 63.296875 29.59375 63 
L 16.296875 9.921875 
C 15.09375 5 12.703125 2.90625 6.09375 2.90625 
C 5.59375 2.90625 4.59375 2.90625 4.59375 1.046875 
C 4.59375 0 5.59375 0 5.90625 0 
C 7.90625 0 13 0 15 0 
L 19.796875 0 
C 21.203125 0 22.90625 0 24.296875 0 
C 25 0 26.09375 0 26.09375 1.90625 
C 26.09375 2.8125 25.09375 2.90625 24.703125 2.90625 
C 21.40625 2.90625 18.203125 3.5 18.203125 7.09375 
C 18.203125 7.890625 18.40625 8.78125 18.59375 9.578125 
L 32.09375 63 
C 32.703125 62 32.703125 61.8125 33.09375 60.90625 
L 56.90625 1.796875 
C 57.40625 0.59375 57.59375 0 58.5 0 
C 59.5 0 59.59375 0.296875 60 2 
z
" id="CMMI12-78"/>
      <path d="M 65.90625 23 
C 67.59375 23 69.40625 23 69.40625 25 
C 69.40625 27 67.59375 27 65.90625 27 
L 11.796875 27 
C 10.09375 27 8.296875 27 8.296875 25 
C 8.296875 23 10.09375 23 11.796875 23 
z
" id="CMSY10-0"/>
     </defs>
     <g transform="translate(152.077405 192.775506)scale(0.12 -0.12)">
      <use transform="scale(0.996264)" xlink:href="#CMMI12-78"/>
      <use transform="translate(88.521773 36.153639)scale(0.697382)" xlink:href="#CMSY10-0"/>
      <use transform="translate(142.762766 36.153639)scale(0.697382)" xlink:href="#CMR17-48"/>
      <use transform="translate(174.745948 36.153639)scale(0.697382)" xlink:href="#CMMI12-58"/>
      <use transform="translate(193.713881 36.153639)scale(0.697382)" xlink:href="#CMR17-51"/>
      <use transform="translate(225.697063 36.153639)scale(0.697382)" xlink:href="#CMR17-48"/>
      <use transform="translate(257.680244 36.153639)scale(0.697382)" xlink:href="#CMR17-52"/>
      <use transform="translate(289.663426 36.153639)scale(0.697382)" xlink:href="#CMR17-50"/>
     </g>
    </g>
   </g>
   <g id="matplotlib.axis_2">
    <g id="ytick_1">
     <g id="line2d_21">
      <defs>
       <path d="M 0 0 
L 6 0 
" id="m5cd49e0972" style="stroke:#000000;stroke-width:0.8;"/>
      </defs>
      <g>
       <use style="stroke:#000000;stroke-width:0.8;" x="43.266582" xlink:href="#m5cd49e0972" y="160.502862"/>
      </g>
     </g>
     <g id="text_10">
      <!-- $2.00$ -->
      <g transform="translate(19.555168 163.962111)scale(0.1 -0.1)">
       <use transform="scale(0.996264)" xlink:href="#CMR17-50"/>
       <use transform="translate(45.690477 0)scale(0.996264)" xlink:href="#CMMI12-58"/>
       <use transform="translate(72.787654 0)scale(0.996264)" xlink:href="#CMR17-48"/>
       <use transform="translate(118.478131 0)scale(0.996264)" xlink:href="#CMR17-48"/>
      </g>
     </g>
    </g>
    <g id="ytick_2">
     <g id="line2d_22">
      <g>
       <use style="stroke:#000000;stroke-width:0.8;" x="43.266582" xlink:href="#m5cd49e0972" y="134.928927"/>
      </g>
     </g>
     <g id="text_11">
      <!-- $2.25$ -->
      <g transform="translate(19.555168 138.388176)scale(0.1 -0.1)">
       <use transform="scale(0.996264)" xlink:href="#CMR17-50"/>
       <use transform="translate(45.690477 0)scale(0.996264)" xlink:href="#CMMI12-58"/>
       <use transform="translate(72.787654 0)scale(0.996264)" xlink:href="#CMR17-50"/>
       <use transform="translate(118.478131 0)scale(0.996264)" xlink:href="#CMR17-53"/>
      </g>
     </g>
    </g>
    <g id="ytick_3">
     <g id="line2d_23">
      <g>
       <use style="stroke:#000000;stroke-width:0.8;" x="43.266582" xlink:href="#m5cd49e0972" y="109.354991"/>
      </g>
     </g>
     <g id="text_12">
      <!-- $2.50$ -->
      <g transform="translate(19.555168 112.81424)scale(0.1 -0.1)">
       <use transform="scale(0.996264)" xlink:href="#CMR17-50"/>
       <use transform="translate(45.690477 0)scale(0.996264)" xlink:href="#CMMI12-58"/>
       <use transform="translate(72.787654 0)scale(0.996264)" xlink:href="#CMR17-53"/>
       <use transform="translate(118.478131 0)scale(0.996264)" xlink:href="#CMR17-48"/>
      </g>
     </g>
    </g>
    <g id="ytick_4">
     <g id="line2d_24">
      <g>
       <use style="stroke:#000000;stroke-width:0.8;" x="43.266582" xlink:href="#m5cd49e0972" y="83.781056"/>
      </g>
     </g>
     <g id="text_13">
      <!-- $2.75$ -->
      <g transform="translate(19.555168 87.240305)scale(0.1 -0.1)">
       <use transform="scale(0.996264)" xlink:href="#CMR17-50"/>
       <use transform="translate(45.690477 0)scale(0.996264)" xlink:href="#CMMI12-58"/>
       <use transform="translate(72.787654 0)scale(0.996264)" xlink:href="#CMR17-55"/>
       <use transform="translate(118.478131 0)scale(0.996264)" xlink:href="#CMR17-53"/>
      </g>
     </g>
    </g>
    <g id="ytick_5">
     <g id="line2d_25">
      <g>
       <use style="stroke:#000000;stroke-width:0.8;" x="43.266582" xlink:href="#m5cd49e0972" y="58.20712"/>
      </g>
     </g>
     <g id="text_14">
      <!-- $3.00$ -->
      <g transform="translate(19.555168 61.666369)scale(0.1 -0.1)">
       <use transform="scale(0.996264)" xlink:href="#CMR17-51"/>
       <use transform="translate(45.690477 0)scale(0.996264)" xlink:href="#CMMI12-58"/>
       <use transform="translate(72.787654 0)scale(0.996264)" xlink:href="#CMR17-48"/>
       <use transform="translate(118.478131 0)scale(0.996264)" xlink:href="#CMR17-48"/>
      </g>
     </g>
    </g>
    <g id="ytick_6">
     <g id="line2d_26">
      <g>
       <use style="stroke:#000000;stroke-width:0.8;" x="43.266582" xlink:href="#m5cd49e0972" y="32.633185"/>
      </g>
     </g>
     <g id="text_15">
      <!-- $3.25$ -->
      <g transform="translate(19.555168 36.092434)scale(0.1 -0.1)">
       <use transform="scale(0.996264)" xlink:href="#CMR17-51"/>
       <use transform="translate(45.690477 0)scale(0.996264)" xlink:href="#CMMI12-58"/>
       <use transform="translate(72.787654 0)scale(0.996264)" xlink:href="#CMR17-50"/>
       <use transform="translate(118.478131 0)scale(0.996264)" xlink:href="#CMR17-53"/>
      </g>
     </g>
    </g>
    <g id="ytick_7">
     <g id="line2d_27">
      <g>
       <use style="stroke:#000000;stroke-width:0.8;" x="43.266582" xlink:href="#m5cd49e0972" y="7.059249"/>
      </g>
     </g>
     <g id="text_16">
      <!-- $3.50$ -->
      <g transform="translate(19.555168 10.518498)scale(0.1 -0.1)">
       <use transform="scale(0.996264)" xlink:href="#CMR17-51"/>
       <use transform="translate(45.690477 0)scale(0.996264)" xlink:href="#CMMI12-58"/>
       <use transform="translate(72.787654 0)scale(0.996264)" xlink:href="#CMR17-53"/>
       <use transform="translate(118.478131 0)scale(0.996264)" xlink:href="#CMR17-48"/>
      </g>
     </g>
    </g>
    <g id="text_17">
     <!-- $V/t \vert_{\mathrm{max}}$ -->
     <defs>
      <path d="M 61.90625 56.875 
C 65.296875 62.25 68.40625 64.625 73.5 65.03125 
C 74.5 65.125 75.296875 65.125 75.296875 66.90625 
C 75.296875 67.3125 75.09375 67.90625 74.203125 67.90625 
C 72.40625 67.90625 68.09375 67.90625 66.296875 67.90625 
C 63.40625 67.90625 60.40625 67.90625 57.59375 67.90625 
C 56.796875 67.90625 55.796875 67.90625 55.796875 66.03125 
C 55.796875 65.125 56.703125 65.03125 57.09375 65.03125 
C 60.796875 64.734375 61.203125 62.953125 61.203125 61.75 
C 61.203125 60.265625 59.796875 57.96875 59.703125 57.875 
L 28.296875 8.4375 
L 21.296875 62.015625 
C 21.296875 65 26.5 65 27.59375 65 
C 29.09375 65 30 65 30 66.90625 
C 30 67.90625 28.90625 67.90625 28.59375 67.90625 
C 26.90625 67.90625 24.90625 67.90625 23.203125 67.90625 
L 17.59375 67.90625 
C 10.296875 67.90625 7.296875 67.90625 7.203125 67.90625 
C 6.59375 67.90625 5.40625 67.90625 5.40625 66.09375 
C 5.40625 65 6.09375 65 7.703125 65 
C 12.796875 65 13.09375 64.09375 13.40625 61.625 
L 21.40625 0.375 
C 21.703125 -1.703125 21.703125 -2 23.09375 -2 
C 24.296875 -2 24.796875 -1.703125 25.796875 -0.125 
z
" id="CMMI12-86"/>
      <path d="M 42.90625 71.28125 
C 42.90625 71.390625 43.5 72.90625 43.5 73.09375 
C 43.5 74.296875 42.5 75 41.703125 75 
C 41.203125 75 40.296875 75 39.5 72.796875 
L 6 -21.296875 
C 6 -21.40625 5.40625 -22.890625 5.40625 -23.09375 
C 5.40625 -24.296875 6.40625 -25 7.203125 -25 
C 7.796875 -25 8.703125 -24.890625 9.40625 -22.796875 
z
" id="CMMI12-61"/>
      <path d="M 20.09375 40.09375 
L 29.296875 40.09375 
C 31.203125 40.09375 32.203125 40.09375 32.203125 41.890625 
C 32.203125 43 31.59375 43 29.59375 43 
L 20.796875 43 
L 24.5 57.6875 
C 24.90625 59.078125 24.90625 59.28125 24.90625 60 
C 24.90625 61.609375 23.59375 62.5 22.296875 62.5 
C 21.5 62.5 19.203125 62.203125 18.40625 58.984375 
L 14.5 43 
L 5.09375 43 
C 3.09375 43 2.203125 43 2.203125 41.09375 
C 2.203125 40.09375 2.90625 40.09375 4.796875 40.09375 
L 13.703125 40.09375 
L 7.09375 13.765625 
C 6.296875 10.28125 6 9.28125 6 7.984375 
C 6 3.296875 9.296875 -1 14.90625 -1 
C 25 -1 30.40625 13.5625 30.40625 14.25 
C 30.40625 14.859375 30 15.15625 29.40625 15.15625 
C 29.203125 15.15625 28.796875 15.15625 28.59375 14.75 
C 28.5 14.65625 28.40625 14.546875 27.703125 12.953125 
C 25.59375 7.984375 21 1 15.203125 1 
C 12.203125 1 12 3.5 12 5.6875 
C 12 5.78125 12 7.6875 12.296875 8.875 
z
" id="CMMI12-116"/>
      <path d="M 15.90625 71.40625 
C 15.90625 73.203125 15.90625 75 13.90625 75 
C 11.90625 75 11.90625 73.203125 11.90625 71.40625 
L 11.90625 -21.40625 
C 11.90625 -23.203125 11.90625 -25 13.90625 -25 
C 15.90625 -25 15.90625 -23.203125 15.90625 -21.40625 
z
" id="CMSY10-106"/>
      <path d="M 67.59375 30.203125 
C 67.59375 35.1875 66.703125 43.59375 54.796875 43.59375 
C 48 43.59375 43.296875 39 41.5 33.609375 
L 41.40625 33.609375 
C 40.203125 41.8125 34.296875 43.59375 28.703125 43.59375 
C 20.796875 43.59375 16.703125 37.5 15.203125 33.5 
L 15.09375 33.5 
L 15.09375 43.59375 
L 3.296875 42.5 
L 3.296875 39.90625 
C 9.203125 39.90625 10.09375 39.296875 10.09375 34.5 
L 10.09375 6.6875 
C 10.09375 2.875 9.703125 2.390625 3.296875 2.390625 
L 3.296875 -0.203125 
C 5.703125 0 10.09375 0 12.703125 0 
C 15.296875 0 19.796875 0 22.203125 -0.203125 
L 22.203125 2.390625 
C 15.796875 2.390625 15.40625 2.78125 15.40625 6.6875 
L 15.40625 25.90625 
C 15.40625 35.109375 21 42 28 42 
C 35.40625 42 36.203125 35.40625 36.203125 30.59375 
L 36.203125 6.6875 
C 36.203125 2.875 35.796875 2.390625 29.40625 2.390625 
L 29.40625 -0.203125 
C 31.796875 0 36.203125 0 38.796875 0 
C 41.40625 0 45.90625 0 48.296875 -0.203125 
L 48.296875 2.390625 
C 41.90625 2.390625 41.5 2.78125 41.5 6.6875 
L 41.5 25.90625 
C 41.5 35.109375 47.09375 42 54.09375 42 
C 61.5 42 62.296875 35.40625 62.296875 30.59375 
L 62.296875 6.6875 
C 62.296875 2.875 61.90625 2.390625 55.5 2.390625 
L 55.5 -0.203125 
C 57.90625 0 62.296875 0 64.90625 0 
C 67.5 0 72 0 74.40625 -0.203125 
L 74.40625 2.390625 
C 68 2.390625 67.59375 2.78125 67.59375 6.6875 
z
" id="CMR17-109"/>
      <path d="M 36 25.828125 
C 36 32.375 36 35.84375 31.796875 39.734375 
C 28.09375 43 23.796875 44 20.40625 44 
C 12.5 44 6.796875 37.609375 6.796875 30.796875 
C 6.796875 27 9.796875 27 10.40625 27 
C 11.703125 27 14 27.78125 14 30.53125 
C 14 33 12.09375 34.078125 10.40625 34.078125 
C 10 34.078125 9.5 33.96875 9.203125 33.875 
C 11.296875 40.5 16.703125 42.40625 20.203125 42.40625 
C 25.203125 42.40625 30.703125 37.953125 30.703125 29.453125 
L 30.703125 25 
C 24.796875 25 17.703125 24.203125 12.09375 21.203125 
C 5.796875 17.703125 4 12.703125 4 8.90625 
C 4 1.203125 13 -1 18.296875 -1 
C 23.796875 -1 28.90625 2.171875 31.09375 7.984375 
C 31.296875 3.640625 34.09375 -0.28125 38.5 -0.28125 
C 40.59375 -0.28125 45.90625 1.09375 45.90625 8.859375 
L 45.90625 14.375 
L 44.09375 14.375 
L 44.09375 8.78125 
C 44.09375 2.78125 41.40625 2 40.09375 2 
C 36 2 36 7.15625 36 11.53125 
z
M 30.703125 13.59375 
C 30.703125 4.953125 24.5 0.59375 19 0.59375 
C 14 0.59375 10.09375 4.296875 10.09375 8.90625 
C 10.09375 11.890625 11.40625 17.1875 17.203125 20.390625 
C 22 23.09375 27.5 23.5 30.703125 23.5 
z
" id="CMR17-97"/>
      <path d="M 26 23.078125 
C 29 26.96875 32.40625 31.34375 35.203125 34.625 
C 38.5 38.40625 42.296875 40 46.703125 40 
L 46.703125 42.59375 
C 45 42.59375 41.5 42.59375 39.703125 42.59375 
C 37 42.59375 33.90625 42.59375 31.59375 42.6875 
L 31.59375 40.09375 
C 33 39.890625 33.796875 38.890625 33.796875 37.5 
C 33.796875 35.703125 32.796875 34.609375 32.296875 33.921875 
L 24.90625 24.578125 
L 16.09375 36.03125 
C 15.203125 37.125 15.203125 37.3125 15.203125 37.8125 
C 15.203125 39.015625 16.203125 40 17.90625 40 
L 17.90625 42.6875 
C 15.5 42.59375 11.203125 42.59375 8.703125 42.59375 
C 6 42.59375 2.796875 42.59375 0.59375 42.6875 
L 0.59375 40 
C 6 40 7.203125 39.59375 9.59375 36.609375 
L 21.09375 21.796875 
C 21.296875 21.59375 21.796875 21 21.796875 20.703125 
C 21.796875 20.296875 13.09375 9.671875 12 8.28125 
C 7.5 2.890625 2.796875 2.5 0.09375 2.5 
L 0.09375 0 
C 1.796875 0 5.296875 0 7.09375 0 
C 9.09375 0 13.5 0 15.296875 -0.09375 
L 15.296875 2.5 
C 14.703125 2.59375 13.09375 2.796875 13.09375 5.078125 
C 13.09375 6.875 13.90625 7.96875 14.796875 9.15625 
L 23.09375 19.3125 
L 31.796875 8 
C 32.59375 6.90625 33.796875 5.40625 33.796875 4.703125 
C 33.796875 3.296875 32.59375 2.5 31 2.5 
L 31 -0.09375 
C 33.40625 0 37.703125 0 40.203125 0 
C 42.90625 0 46.09375 0 48.296875 -0.09375 
L 48.296875 2.5 
C 43.296875 2.5 41.796875 2.6875 39.40625 5.78125 
z
" id="CMR17-120"/>
     </defs>
     <g transform="translate(13.230572 104.981755)rotate(-90)scale(0.12 -0.12)">
      <use transform="translate(0 14.943915)scale(0.996264)" xlink:href="#CMMI12-86"/>
      <use transform="translate(67.70845 14.943915)scale(0.996264)" xlink:href="#CMMI12-61"/>
      <use transform="translate(116.483369 14.943915)scale(0.996264)" xlink:href="#CMMI12-116"/>
      <use transform="translate(151.709699 14.943915)scale(0.996264)" xlink:href="#CMSY10-106"/>
      <use transform="translate(179.383784 0)scale(0.697382)" xlink:href="#CMR17-109"/>
      <use transform="translate(233.22725 0)scale(0.697382)" xlink:href="#CMR17-97"/>
      <use transform="translate(265.210432 0)scale(0.697382)" xlink:href="#CMR17-120"/>
     </g>
    </g>
   </g>
   <g id="patch_3">
    <path d="M 43.266582 165.617649 
L 43.266582 7.059249 
" style="fill:none;stroke:#000000;stroke-linecap:square;stroke-linejoin:miter;stroke-width:0.8;"/>
   </g>
   <g id="patch_4">
    <path d="M 301.620582 165.617649 
L 301.620582 7.059249 
" style="fill:none;stroke:#000000;stroke-linecap:square;stroke-linejoin:miter;stroke-width:0.8;"/>
   </g>
   <g id="patch_5">
    <path d="M 43.266582 165.617649 
L 301.620582 165.617649 
" style="fill:none;stroke:#000000;stroke-linecap:square;stroke-linejoin:miter;stroke-width:0.8;"/>
   </g>
   <g id="patch_6">
    <path d="M 43.266582 7.059249 
L 301.620582 7.059249 
" style="fill:none;stroke:#000000;stroke-linecap:square;stroke-linejoin:miter;stroke-width:0.8;"/>
   </g>
   <g id="legend_1">
    <g id="text_18">
     <!-- $N$ -->
     <g transform="translate(253.639526 68.684399)scale(0.12 -0.12)">
      <use transform="scale(0.996264)" xlink:href="#CMMI12-78"/>
     </g>
    </g>
    <g id="line2d_28"/>
    <g id="line2d_29">
     <g>
      <use style="fill:#ebf0f7;stroke:#668ec1;stroke-linejoin:miter;" x="225.363762" xlink:href="#md006315287" y="79.958995"/>
     </g>
    </g>
    <g id="text_19">
     <!-- 9 -->
     <defs>
      <path d="M 35.203125 29.125 
C 35.203125 7.25 26.09375 0.484375 18.59375 0.484375 
C 16.296875 0.484375 10.703125 0.484375 8.40625 4.59375 
C 11 4.1875 12.90625 5.578125 12.90625 8.09375 
C 12.90625 10.8125 10.703125 11.703125 9.296875 11.703125 
C 8.40625 11.703125 5.703125 11.296875 5.703125 7.90625 
C 5.703125 1.109375 11.59375 -2 18.796875 -2 
C 30.296875 -2 42 10.53125 42 32.390625 
C 42 59.640625 30.796875 65.296875 23.203125 65.296875 
C 13.296875 65.296875 3.796875 56.6875 3.796875 43.40625 
C 3.796875 31.109375 11.90625 22 22.09375 22 
C 30.5 22 34.203125 29.734375 35.203125 33 
z
M 22.296875 23.59375 
C 19.59375 23.59375 15.796875 24.09375 12.703125 30.03125 
C 10.59375 33.890625 10.59375 38.453125 10.59375 43.296875 
C 10.59375 49.15625 10.59375 53.203125 13.40625 57.5625 
C 14.796875 59.640625 17.40625 63 23.203125 63 
C 35 63 35 45.078125 35 41.125 
C 35 34.09375 31.796875 23.59375 22.296875 23.59375 
z
" id="CMR17-57"/>
     </defs>
     <g transform="translate(238.363762 83.908995)scale(0.1 -0.1)">
      <use transform="scale(0.996264)" xlink:href="#CMR17-57"/>
     </g>
    </g>
    <g id="line2d_30"/>
    <g id="line2d_31">
     <g>
      <use style="fill:#ebf0f7;stroke:#668ec1;stroke-linejoin:miter;" x="225.363762" xlink:href="#m9cbb435d5e" y="94.796174"/>
     </g>
    </g>
    <g id="text_20">
     <!-- 11 -->
     <g transform="translate(238.363762 98.746174)scale(0.1 -0.1)">
      <use transform="scale(0.996264)" xlink:href="#CMR17-49"/>
      <use transform="translate(45.690477 0)scale(0.996264)" xlink:href="#CMR17-49"/>
     </g>
    </g>
    <g id="line2d_32"/>
    <g id="line2d_33">
     <g>
      <use style="fill:#ebf0f7;stroke:#668ec1;stroke-linejoin:miter;" x="225.363762" xlink:href="#m5d484e7391" y="109.633352"/>
     </g>
    </g>
    <g id="text_21">
     <!-- 13 -->
     <g transform="translate(238.363762 113.583352)scale(0.1 -0.1)">
      <use transform="scale(0.996264)" xlink:href="#CMR17-49"/>
      <use transform="translate(45.690477 0)scale(0.996264)" xlink:href="#CMR17-51"/>
     </g>
    </g>
    <g id="line2d_34"/>
    <g id="line2d_35">
     <g>
      <use style="fill:#ebf0f7;stroke:#668ec1;" x="225.363762" xlink:href="#ma5404c953a" y="124.47053"/>
     </g>
    </g>
    <g id="text_22">
     <!-- 15 -->
     <g transform="translate(238.363762 128.42053)scale(0.1 -0.1)">
      <use transform="scale(0.996264)" xlink:href="#CMR17-49"/>
      <use transform="translate(45.690477 0)scale(0.996264)" xlink:href="#CMR17-53"/>
     </g>
    </g>
    <g id="line2d_36"/>
    <g id="line2d_37">
     <g>
      <use style="fill:#ebf0f7;stroke:#668ec1;" x="225.363762" xlink:href="#mc878051601" y="139.307709"/>
     </g>
    </g>
    <g id="text_23">
     <!-- 15 -->
     <g transform="translate(238.363762 143.257709)scale(0.1 -0.1)">
      <use transform="scale(0.996264)" xlink:href="#CMR17-49"/>
      <use transform="translate(45.690477 0)scale(0.996264)" xlink:href="#CMR17-53"/>
     </g>
    </g>
    <g id="line2d_38"/>
    <g id="line2d_39">
     <g>
      <use style="fill:#ebf0f7;stroke:#668ec1;" x="225.363762" xlink:href="#mc91eba5c34" y="154.144887"/>
     </g>
    </g>
    <g id="text_24">
     <!-- 17 -->
     <g transform="translate(238.363762 158.094887)scale(0.1 -0.1)">
      <use transform="scale(0.996264)" xlink:href="#CMR17-49"/>
      <use transform="translate(45.690477 0)scale(0.996264)" xlink:href="#CMR17-55"/>
     </g>
    </g>
    <g id="line2d_40"/>
    <g id="line2d_41">
     <g>
      <use style="fill:#ebf0f7;stroke:#668ec1;" x="273.326433" xlink:href="#m83d7d98ba3" y="79.958995"/>
     </g>
    </g>
    <g id="text_25">
     <!-- 21 -->
     <g transform="translate(286.326433 83.908995)scale(0.1 -0.1)">
      <use transform="scale(0.996264)" xlink:href="#CMR17-50"/>
      <use transform="translate(45.690477 0)scale(0.996264)" xlink:href="#CMR17-49"/>
     </g>
    </g>
    <g id="line2d_42"/>
    <g id="line2d_43">
     <g>
      <use style="fill:#ebf0f7;stroke:#668ec1;" x="273.326433" xlink:href="#m17be40f069" y="94.796174"/>
     </g>
    </g>
    <g id="text_26">
     <!-- 25 -->
     <g transform="translate(286.326433 98.746174)scale(0.1 -0.1)">
      <use transform="scale(0.996264)" xlink:href="#CMR17-50"/>
      <use transform="translate(45.690477 0)scale(0.996264)" xlink:href="#CMR17-53"/>
     </g>
    </g>
    <g id="line2d_44"/>
    <g id="line2d_45">
     <g>
      <use style="fill:#ebf0f7;stroke:#668ec1;" x="273.326433" xlink:href="#m05467c9dd2" y="109.633352"/>
     </g>
    </g>
    <g id="text_27">
     <!-- 29 -->
     <g transform="translate(286.326433 113.583352)scale(0.1 -0.1)">
      <use transform="scale(0.996264)" xlink:href="#CMR17-50"/>
      <use transform="translate(45.690477 0)scale(0.996264)" xlink:href="#CMR17-57"/>
     </g>
    </g>
    <g id="line2d_46"/>
    <g id="line2d_47">
     <g>
      <use style="fill:#ebf0f7;stroke:#668ec1;" x="273.326433" xlink:href="#m7c411982c7" y="124.47053"/>
     </g>
    </g>
    <g id="text_28">
     <!-- 37 -->
     <g transform="translate(286.326433 128.42053)scale(0.1 -0.1)">
      <use transform="scale(0.996264)" xlink:href="#CMR17-51"/>
      <use transform="translate(45.690477 0)scale(0.996264)" xlink:href="#CMR17-55"/>
     </g>
    </g>
    <g id="line2d_48"/>
    <g id="line2d_49">
     <g>
      <use style="fill:#ebf0f7;stroke:#668ec1;" x="273.326433" xlink:href="#m15bdc24fd4" y="139.307709"/>
     </g>
    </g>
    <g id="text_29">
     <!-- 49 -->
     <g transform="translate(286.326433 143.257709)scale(0.1 -0.1)">
      <use transform="scale(0.996264)" xlink:href="#CMR17-52"/>
      <use transform="translate(45.690477 0)scale(0.996264)" xlink:href="#CMR17-57"/>
     </g>
    </g>
   </g>
  </g>
  <g id="axes_2">
   <g id="patch_7">
    <path d="M 82.66534 77.689809 
L 151.879665 77.689809 
L 151.879665 10.971729 
L 82.66534 10.971729 
z
" style="fill:none;"/>
   </g>
   <g id="line2d_50">
    <path clip-path="url(#p40e841400f)" d="M 90.028566 77.689809 
L 90.028566 10.971729 
" style="fill:none;stroke:#cccccc;stroke-linecap:square;stroke-width:1.5;"/>
   </g>
   <g id="matplotlib.axis_3">
    <g id="xtick_9">
     <g id="line2d_51">
      <g>
       <use style="stroke:#000000;stroke-width:0.8;" x="90.028566" xlink:href="#m2908f234f4" y="77.689809"/>
      </g>
     </g>
     <g id="text_30">
      <!-- $2$ -->
      <g transform="translate(87.537898 90.608308)scale(0.1 -0.1)">
       <use transform="scale(0.996264)" xlink:href="#CMR17-50"/>
      </g>
     </g>
    </g>
    <g id="xtick_10">
     <g id="line2d_52">
      <g>
       <use style="stroke:#000000;stroke-width:0.8;" x="148.934375" xlink:href="#m2908f234f4" y="77.689809"/>
      </g>
     </g>
     <g id="text_31">
      <!-- $4$ -->
      <g transform="translate(146.443707 90.608308)scale(0.1 -0.1)">
       <use transform="scale(0.996264)" xlink:href="#CMR17-52"/>
      </g>
     </g>
    </g>
    <g id="text_32">
     <!-- $V/t$ -->
     <g transform="translate(108.169926 99.511862)scale(0.12 -0.12)">
      <use transform="scale(0.996264)" xlink:href="#CMMI12-86"/>
      <use transform="translate(67.70845 0)scale(0.996264)" xlink:href="#CMMI12-61"/>
      <use transform="translate(116.483369 0)scale(0.996264)" xlink:href="#CMMI12-116"/>
     </g>
    </g>
   </g>
   <g id="matplotlib.axis_4">
    <g id="ytick_8">
     <g id="line2d_53">
      <g>
       <use style="stroke:#000000;stroke-width:0.8;" x="82.66534" xlink:href="#m5cd49e0972" y="59.818895"/>
      </g>
     </g>
     <g id="text_33">
      <!-- $0.6$ -->
      <g transform="translate(63.935261 63.278144)scale(0.1 -0.1)">
       <use transform="scale(0.996264)" xlink:href="#CMR17-48"/>
       <use transform="translate(45.690477 0)scale(0.996264)" xlink:href="#CMMI12-58"/>
       <use transform="translate(72.787654 0)scale(0.996264)" xlink:href="#CMR17-54"/>
      </g>
     </g>
    </g>
    <g id="ytick_9">
     <g id="line2d_54">
      <g>
       <use style="stroke:#000000;stroke-width:0.8;" x="82.66534" xlink:href="#m5cd49e0972" y="35.991009"/>
      </g>
     </g>
     <g id="text_34">
      <!-- $0.8$ -->
      <defs>
       <path d="M 27.203125 35.375 
C 33.5 38.546875 39.90625 43.328125 39.90625 50.984375 
C 39.90625 60.015625 31.09375 65.296875 23 65.296875 
C 13.90625 65.296875 5.90625 58.734375 5.90625 49.6875 
C 5.90625 47.203125 6.5 42.921875 10.40625 39.140625 
C 11.40625 38.15625 15.59375 35.171875 18.296875 33.28125 
C 13.796875 30.984375 3.296875 25.53125 3.296875 14.59375 
C 3.296875 4.359375 13.09375 -2 22.796875 -2 
C 33.5 -2 42.5 5.65625 42.5 15.78125 
C 42.5 24.84375 36.40625 29.015625 32.40625 31.703125 
z
M 14.09375 44.09375 
C 13.296875 44.59375 9.296875 47.671875 9.296875 52.359375 
C 9.296875 58.421875 15.59375 63 22.796875 63 
C 30.703125 63 36.5 57.4375 36.5 50.96875 
C 36.5 41.703125 26.09375 36.421875 25.59375 36.421875 
C 25.5 36.421875 25.40625 36.421875 24.59375 37.03125 
z
M 32.5 23.734375 
C 34 22.640625 38.796875 19.375 38.796875 13.296875 
C 38.796875 5.953125 31.40625 0.390625 23 0.390625 
C 13.90625 0.390625 7 6.84375 7 14.6875 
C 7 22.546875 13.09375 29.09375 20 32.1875 
z
" id="CMR17-56"/>
      </defs>
      <g transform="translate(63.935261 39.450258)scale(0.1 -0.1)">
       <use transform="scale(0.996264)" xlink:href="#CMR17-48"/>
       <use transform="translate(45.690477 0)scale(0.996264)" xlink:href="#CMMI12-58"/>
       <use transform="translate(72.787654 0)scale(0.996264)" xlink:href="#CMR17-56"/>
      </g>
     </g>
    </g>
    <g id="ytick_10">
     <g id="line2d_55">
      <g>
       <use style="stroke:#000000;stroke-width:0.8;" x="82.66534" xlink:href="#m5cd49e0972" y="12.163123"/>
      </g>
     </g>
     <g id="text_35">
      <!-- $1.0$ -->
      <g transform="translate(63.935261 15.622373)scale(0.1 -0.1)">
       <use transform="scale(0.996264)" xlink:href="#CMR17-49"/>
       <use transform="translate(45.690477 0)scale(0.996264)" xlink:href="#CMMI12-58"/>
       <use transform="translate(72.787654 0)scale(0.996264)" xlink:href="#CMR17-48"/>
      </g>
     </g>
    </g>
    <g id="text_36">
     <!-- $S_{1}^{\mathrm{acc}}$ -->
     <defs>
      <path d="M 63.5 69.109375 
C 63.5 70 62.796875 70 62.59375 70 
C 62.203125 70 62.09375 69.90625 60.90625 68.40625 
C 60.296875 67.703125 56.203125 62.515625 56.09375 62.421875 
C 52.796875 68.90625 46.203125 70 42 70 
C 29.296875 70 17.796875 58.484375 17.796875 47.265625 
C 17.796875 39.828125 22.296875 35.453125 27.203125 33.765625 
C 28.296875 33.359375 34.203125 31.765625 37.203125 31.078125 
C 42.296875 29.6875 43.59375 29.296875 45.703125 27.109375 
C 46.09375 26.609375 48.09375 24.328125 48.09375 19.65625 
C 48.09375 10.421875 39.5 0.890625 29.5 0.890625 
C 21.296875 0.890625 12.203125 4.375 12.203125 15.484375 
C 12.203125 17.375 12.59375 19.765625 12.90625 20.75 
C 12.90625 21.0625 13 21.53125 13 21.734375 
C 13 22.140625 12.796875 22.640625 12 22.640625 
C 11.09375 22.640625 11 22.4375 10.59375 20.75 
L 5.5 0.375 
C 5.5 0.28125 5.09375 -1 5.09375 -1.109375 
C 5.09375 -2 5.90625 -2 6.09375 -2 
C 6.5 -2 6.59375 -1.90625 7.796875 -0.40625 
L 12.40625 5.5625 
C 14.796875 1.96875 20 -2 29.296875 -2 
C 42.203125 -2 54 10.40625 54 22.8125 
C 54 27 53 30.671875 49.203125 34.328125 
C 47.09375 36.421875 45.296875 36.921875 36.09375 39.3125 
C 29.40625 41.09375 28.5 41.390625 26.703125 42.984375 
C 25 44.65625 23.703125 47.046875 23.703125 50.421875 
C 23.703125 58.765625 32.203125 67.3125 41.703125 67.3125 
C 51.5 67.3125 56.09375 61.34375 56.09375 51.921875 
C 56.09375 49.34375 55.59375 46.65625 55.59375 46.265625 
C 55.59375 45.359375 56.40625 45.359375 56.703125 45.359375 
C 57.59375 45.359375 57.703125 45.65625 58.09375 47.25 
z
" id="CMMI12-83"/>
      <path d="M 34.90625 35 
C 33 35 30.203125 35 30.203125 31.515625 
C 30.203125 28.71875 32.5 27.921875 33.796875 27.921875 
C 34.5 27.921875 37.40625 28.234375 37.40625 31.625 
C 37.40625 38.546875 30.59375 43.796875 22.90625 43.796875 
C 12.296875 43.796875 3.296875 34.03125 3.296875 21.296875 
C 3.296875 8.0625 12.703125 -1 22.90625 -1 
C 35.296875 -1 38.40625 10.578125 38.40625 11.6875 
C 38.40625 12.09375 38.296875 12.390625 37.59375 12.390625 
C 36.90625 12.390625 36.796875 12.296875 36.40625 10.984375 
C 33.796875 2.8125 28.09375 0.796875 23.796875 0.796875 
C 17.40625 0.796875 9.703125 6.671875 9.703125 21.390625 
C 9.703125 36.53125 17.09375 42 23 42 
C 26.90625 42 32.703125 40.203125 34.90625 35 
z
" id="CMR17-99"/>
     </defs>
     <g transform="translate(59.610665 54.159238)rotate(-90)scale(0.12 -0.12)">
      <use transform="translate(0 24.740171)scale(0.996264)" xlink:href="#CMMI12-83"/>
      <use transform="translate(65.794439 60.89381)scale(0.697382)" xlink:href="#CMR17-97"/>
      <use transform="translate(97.777621 60.89381)scale(0.697382)" xlink:href="#CMR17-99"/>
      <use transform="translate(126.117453 60.89381)scale(0.697382)" xlink:href="#CMR17-99"/>
      <use transform="translate(59.994488 0)scale(0.697382)" xlink:href="#CMR17-49"/>
     </g>
    </g>
   </g>
   <g id="line2d_56">
    <path clip-path="url(#p40e841400f)" d="M 58.254475 81.387644 
L 59.444491 81.001703 
L 60.634507 80.618015 
L 61.824524 80.236573 
L 63.01454 79.857382 
L 64.204557 79.480451 
L 65.394573 79.105801 
L 66.584589 78.733461 
L 67.774606 78.363468 
L 68.964622 77.995872 
L 70.154638 77.630732 
L 71.344655 77.268121 
L 72.534671 76.908122 
L 73.724687 76.550832 
L 74.914704 76.196365 
L 76.10472 75.844846 
L 77.294736 75.496418 
L 78.484753 75.151242 
L 79.674769 74.809496 
L 80.864785 74.471377 
L 82.054802 74.137103 
L 83.244818 73.806913 
L 84.434834 73.48107 
L 85.624851 73.159857 
L 86.814867 72.843585 
L 88.004883 72.532589 
L 89.1949 72.22723 
L 90.384916 71.927897 
L 91.574932 71.635005 
L 92.764949 71.349 
L 93.954965 71.070354 
L 95.144981 70.799569 
L 96.334998 70.537175 
L 97.525014 70.283729 
L 98.71503 70.039816 
L 99.905047 69.806047 
L 101.095063 69.583056 
L 102.28508 69.371502 
L 103.475096 69.17206 
L 104.665112 68.985426 
L 105.855129 68.812308 
L 107.045145 68.653422 
L 108.235161 68.509493 
L 109.425178 68.381246 
L 110.615194 68.269399 
L 111.80521 68.174662 
L 112.995227 68.097731 
L 114.185243 68.039275 
L 115.375259 67.999939 
L 116.565276 67.98033 
L 117.755292 67.981014 
L 118.945308 68.002508 
L 120.135325 68.045275 
L 121.325341 68.109716 
L 122.515357 68.196166 
L 123.705374 68.304889 
L 124.89539 68.436071 
L 126.085406 68.589819 
L 127.275423 68.766156 
L 128.465439 68.96502 
L 129.655455 69.186264 
L 130.845472 69.429652 
L 132.035488 69.694864 
L 133.225504 69.981496 
L 134.415521 70.289061 
L 135.605537 70.616997 
L 136.795553 70.964665 
L 137.98557 71.331363 
L 139.175586 71.716323 
L 140.365603 72.118724 
L 141.555619 72.537693 
L 142.745635 72.972318 
L 143.935652 73.421653 
L 145.125668 73.884722 
L 146.315684 74.360532 
L 147.505701 74.848077 
L 148.695717 75.346346 
L 149.885733 75.854326 
L 151.07575 76.371015 
L 152.265766 76.895422 
L 153.455782 77.426574 
L 154.645799 77.963522 
L 155.835815 78.505344 
L 157.025831 79.051147 
L 158.215848 79.600073 
L 159.405864 80.151301 
L 160.59588 80.704045 
L 161.785897 81.257562 
L 162.975913 81.811149 
L 164.165929 82.364143 
L 165.355946 82.915922 
L 166.545962 83.465909 
L 167.735978 84.013563 
L 168.925995 84.558388 
L 170.116011 85.099925 
L 171.306027 85.637752 
L 172.496044 86.171486 
L 173.68606 86.70078 
L 174.876076 87.225318 
L 176.066093 87.74482 
" style="fill:none;stroke:#668ec1;stroke-linecap:square;stroke-width:0.75;"/>
   </g>
   <g id="line2d_57">
    <path clip-path="url(#p40e841400f)" d="M 56.810158 76.448554 
L 58.133884 75.995766 
L 59.45761 75.545364 
L 60.781336 75.097299 
L 62.105062 74.651534 
L 63.428788 74.208044 
L 64.752514 73.766816 
L 66.07624 73.327852 
L 67.399966 72.891167 
L 68.723692 72.456794 
L 70.047418 72.024782 
L 71.371144 71.595201 
L 72.69487 71.168142 
L 74.018596 70.743717 
L 75.342322 70.322067 
L 76.666048 69.903359 
L 77.989774 69.48779 
L 79.3135 69.075593 
L 80.637226 68.667036 
L 81.960952 68.262428 
L 83.284678 67.862119 
L 84.608404 67.46651 
L 85.932131 67.07605 
L 87.255857 66.691245 
L 88.579583 66.312658 
L 89.903309 65.940915 
L 91.227035 65.576709 
L 92.550761 65.220802 
L 93.874487 64.874029 
L 95.198213 64.537302 
L 96.521939 64.211607 
L 97.845665 63.898014 
L 99.169391 63.597665 
L 100.493117 63.311786 
L 101.816843 63.041675 
L 103.140569 62.788702 
L 104.464295 62.5543 
L 105.788021 62.339964 
L 107.111747 62.147231 
L 108.435473 61.977678 
L 109.759199 61.832899 
L 111.082925 61.714495 
L 112.406651 61.624049 
L 113.730377 61.563111 
L 115.054104 61.533174 
L 116.37783 61.535646 
L 117.701556 61.571834 
L 119.025282 61.642912 
L 120.349008 61.749903 
L 121.672734 61.893651 
L 122.99646 62.074807 
L 124.320186 62.293803 
L 125.643912 62.550845 
L 126.967638 62.845897 
L 128.291364 63.178677 
L 129.61509 63.548653 
L 130.938816 63.95505 
L 132.262542 64.396852 
L 133.586268 64.872818 
L 134.909994 65.381497 
L 136.23372 65.92125 
L 137.557446 66.490268 
L 138.881172 67.086604 
L 140.204898 67.708195 
L 141.528624 68.35289 
L 142.85235 69.018481 
L 144.176077 69.702726 
L 145.499803 70.403379 
L 146.823529 71.11821 
L 148.147255 71.845028 
L 149.470981 72.581703 
L 150.794707 73.32618 
L 152.118433 74.076494 
L 153.442159 74.830778 
L 154.765885 75.587279 
L 156.089611 76.344358 
L 157.413337 77.100494 
L 158.737063 77.854288 
L 160.060789 78.604463 
L 161.384515 79.34986 
L 162.708241 80.089438 
L 164.031967 80.822268 
L 165.355693 81.547526 
L 166.679419 82.264494 
L 168.003145 82.972546 
L 169.326871 83.671148 
L 170.650597 84.359849 
L 171.974323 85.038274 
L 173.29805 85.706118 
L 174.621776 86.363142 
" style="fill:none;stroke:#668ec1;stroke-linecap:square;stroke-width:0.75;"/>
   </g>
   <g id="line2d_58">
    <path clip-path="url(#p40e841400f)" d="M 55.446769 72.359338 
L 56.938056 71.83005 
L 58.429342 71.303492 
L 59.920628 70.779543 
L 61.411914 70.258099 
L 62.903201 69.739074 
L 64.394487 69.222399 
L 65.885773 68.708027 
L 67.37706 68.19593 
L 68.868346 67.686111 
L 70.359632 67.178596 
L 71.850919 66.673446 
L 73.342205 66.170758 
L 74.833491 65.67067 
L 76.324777 65.173366 
L 77.816064 64.679083 
L 79.30735 64.18812 
L 80.798636 63.70084 
L 82.289923 63.217686 
L 83.781209 62.739187 
L 85.272495 62.265965 
L 86.763782 61.798754 
L 88.255068 61.338406 
L 89.746354 60.885905 
L 91.237641 60.442381 
L 92.728927 60.009122 
L 94.220213 59.587584 
L 95.711499 59.179408 
L 97.202786 58.786427 
L 98.694072 58.410672 
L 100.185358 58.05438 
L 101.676645 57.719993 
L 103.167931 57.410154 
L 104.659217 57.127696 
L 106.150504 56.875623 
L 107.64179 56.657085 
L 109.133076 56.475344 
L 110.624362 56.333723 
L 112.115649 56.23556 
L 113.606935 56.184138 
L 115.098221 56.182614 
L 116.589508 56.233945 
L 118.080794 56.340803 
L 119.57208 56.505494 
L 121.063367 56.729881 
L 122.554653 57.015307 
L 124.045939 57.362538 
L 125.537226 57.771713 
L 127.028512 58.242319 
L 128.519798 58.773176 
L 130.011084 59.362452 
L 131.502371 60.007691 
L 132.993657 60.705868 
L 134.484943 61.453451 
L 135.97623 62.246489 
L 137.467516 63.080692 
L 138.958802 63.951535 
L 140.450089 64.854347 
L 141.941375 65.784406 
L 143.432661 66.737024 
L 144.923947 67.707623 
L 146.415234 68.691801 
L 147.90652 69.685385 
L 149.397806 70.684473 
L 150.889093 71.685464 
L 152.380379 72.685075 
L 153.871665 73.680352 
L 155.362952 74.668667 
L 156.854238 75.647714 
L 158.345524 76.615499 
L 159.836811 77.570316 
L 161.328097 78.510734 
L 162.819383 79.435574 
L 164.310669 80.343885 
L 165.801956 81.234924 
L 167.293242 82.108132 
L 168.784528 82.963112 
L 170.275815 83.799612 
L 171.767101 84.617504 
L 173.258387 85.416765 
" style="fill:none;stroke:#668ec1;stroke-linecap:square;stroke-width:0.75;"/>
   </g>
   <g id="line2d_59">
    <path clip-path="url(#p40e841400f)" d="M 54.473516 68.759955 
L 60.364097 66.626792 
L 62.949407 65.701552 
L 63.309387 65.573194 
L 63.93117 65.351744 
L 64.552954 65.130618 
L 65.174738 64.909812 
L 65.534718 64.782121 
L 68.120028 63.868086 
L 74.010609 61.805027 
L 79.90119 59.773205 
L 82.4865 58.89499 
L 82.84648 58.773556 
L 83.468264 58.564357 
L 84.090047 58.355897 
L 84.711831 58.148224 
L 85.071811 58.028374 
L 87.657121 57.177005 
L 93.547702 55.323263 
L 99.438283 53.670936 
L 102.023594 53.046697 
L 102.383574 52.966113 
L 103.005357 52.830961 
L 103.627141 52.701159 
L 104.248924 52.576988 
L 104.608904 52.507787 
L 107.194215 52.074355 
L 111.529186 51.646229 
L 111.67645 51.639317 
L 111.823715 51.632953 
L 111.97098 51.62714 
L 112.118244 51.621883 
L 112.265509 51.617187 
L 112.412773 51.613055 
L 112.560038 51.609492 
L 112.707302 51.606502 
L 112.854567 51.604089 
L 113.001831 51.602258 
L 113.084796 51.601484 
L 113.149096 51.601012 
L 113.208002 51.600679 
L 113.237454 51.600548 
L 113.266907 51.60044 
L 113.29636 51.600356 
L 113.384719 51.600247 
L 113.414172 51.600259 
L 113.443625 51.600294 
L 113.443625 51.600294 
L 113.673854 51.601396 
L 113.590889 51.600829 
L 114.032683 51.606064 
L 114.179947 51.609031 
L 114.327212 51.612616 
L 119.564435 52.170248 
L 122.149745 52.776619 
L 122.509725 52.879166 
L 123.131509 53.066772 
L 123.753292 53.267634 
L 124.375076 53.481706 
L 124.735056 53.611652 
L 127.320366 54.672024 
L 133.210947 57.849955 
L 139.101528 61.833892 
L 141.686838 63.738783 
L 142.046818 64.008606 
L 142.668602 64.476649 
L 143.290385 64.946851 
L 143.912169 65.418808 
L 144.272149 65.692694 
L 146.857459 67.666711 
L 152.74804 72.115106 
L 158.638621 76.339768 
L 161.223932 78.093836 
L 161.583912 78.332768 
L 162.205695 78.742352 
L 162.827479 79.147968 
L 163.449262 79.549592 
L 163.809242 79.78028 
L 166.394553 81.397436 
L 172.285134 84.824796 
" style="fill:none;stroke:#668ec1;stroke-linecap:square;stroke-width:0.75;"/>
   </g>
   <g id="line2d_60">
    <path clip-path="url(#p40e841400f)" d="M 107.994837 51.964958 
L 108.289366 51.927931 
L 108.583896 51.89269 
L 108.878425 51.859269 
L 109.172954 51.827704 
L 109.467483 51.798031 
L 109.762012 51.770284 
L 110.056541 51.744499 
L 110.35107 51.72071 
L 110.645599 51.698955 
L 110.940128 51.679266 
L 111.234657 51.66168 
L 111.529186 51.646232 
L 111.823715 51.632955 
L 112.118244 51.621886 
L 112.412773 51.613058 
L 112.707302 51.606505 
L 113.001831 51.602261 
L 113.29636 51.600359 
L 113.590889 51.600832 
L 113.885418 51.603713 
L 114.179947 51.609034 
L 114.474476 51.616826 
L 114.769005 51.62712 
L 115.063535 51.639946 
L 115.358064 51.655335 
L 115.652593 51.673315 
L 115.947122 51.693915 
L 116.241651 51.717161 
L 116.53618 51.743081 
L 116.830709 51.771701 
L 117.125238 51.803045 
L 117.419767 51.837138 
L 117.714296 51.874002 
L 118.008825 51.913659 
L 118.303354 51.956131 
" style="fill:none;stroke:#9fb8d8;stroke-linecap:square;stroke-width:0.75;"/>
   </g>
   <g id="line2d_61">
    <path clip-path="url(#p40e841400f)" d="M 107.354403 47.98683 
L 107.638433 47.947816 
L 107.922464 47.910665 
L 108.289366 47.865496 
L 108.567065 47.833474 
L 108.844764 47.803359 
L 109.122463 47.775191 
L 109.400162 47.749007 
L 109.677861 47.724847 
L 109.955559 47.702748 
L 110.233258 47.68275 
L 110.510957 47.664891 
L 110.788656 47.64921 
L 111.066354 47.635746 
L 111.344053 47.624536 
L 111.621752 47.615618 
L 111.899451 47.609032 
L 112.17715 47.604813 
L 112.454849 47.603001 
L 112.732547 47.603631 
L 113.010246 47.60674 
L 113.287945 47.612365 
L 113.565644 47.620541 
L 113.843343 47.631303 
L 114.121042 47.644686 
L 114.39874 47.660724 
L 114.676439 47.67945 
L 114.954138 47.700896 
L 115.231837 47.725095 
L 115.509536 47.752077 
L 115.787234 47.781871 
L 116.064933 47.814509 
L 116.342632 47.850016 
L 116.620331 47.888422 
L 116.89803 47.929751 
L 117.175729 47.974028 
" style="fill:none;stroke:#9fb8d8;stroke-linecap:square;stroke-width:0.75;"/>
   </g>
   <g id="line2d_62">
    <path clip-path="url(#p40e841400f)" d="M 106.324559 41.275883 
L 106.591706 41.233764 
L 106.858854 41.193629 
L 107.126001 41.155527 
L 107.393148 41.119509 
L 107.660296 41.085628 
L 107.927443 41.053934 
L 108.289366 41.014578 
L 108.55865 40.988041 
L 108.827934 40.963906 
L 109.097218 40.942226 
L 109.366501 40.923058 
L 109.635785 40.906454 
L 109.905068 40.89247 
L 110.174352 40.88116 
L 110.443636 40.872579 
L 110.71292 40.866781 
L 110.982203 40.86382 
L 111.251487 40.863749 
L 111.520771 40.866623 
L 111.790054 40.872495 
L 112.059338 40.881416 
L 112.328622 40.893438 
L 112.597906 40.908614 
L 112.867189 40.926993 
L 113.136473 40.948625 
L 113.405757 40.973559 
L 113.67504 41.001842 
L 113.944324 41.033521 
L 114.213608 41.068642 
L 114.482891 41.107248 
L 114.752175 41.149382 
L 115.021459 41.195085 
L 115.290742 41.244398 
" style="fill:none;stroke:#9fb8d8;stroke-linecap:square;stroke-width:0.75;"/>
   </g>
   <g id="line2d_63">
    <path clip-path="url(#p40e841400f)" d="M 105.520793 35.740649 
L 105.774677 35.696224 
L 106.028562 35.653872 
L 106.282446 35.613651 
L 106.53633 35.575622 
L 106.790214 35.539844 
L 107.044098 35.506379 
L 107.297982 35.475289 
L 107.551866 35.446636 
L 107.80575 35.420483 
L 108.059634 35.396893 
L 108.289366 35.377809 
L 108.583896 35.356565 
L 108.878425 35.339035 
L 109.172954 35.32532 
L 109.467483 35.31552 
L 109.762012 35.309736 
L 110.056541 35.30807 
L 110.35107 35.310622 
L 110.645599 35.317492 
L 110.940128 35.328779 
L 111.234657 35.344581 
L 111.529186 35.364995 
L 111.823715 35.390118 
L 112.118244 35.420043 
L 112.412773 35.454863 
L 112.707302 35.494667 
L 113.001831 35.539545 
L 113.29636 35.58958 
L 113.590889 35.644855 
L 113.885418 35.705451 
" style="fill:none;stroke:#9fb8d8;stroke-linecap:square;stroke-width:0.75;"/>
   </g>
   <g id="line2d_64">
    <path clip-path="url(#p40e841400f)" d="M 104.869884 31.027694 
L 105.135881 30.977258 
L 105.401877 30.929393 
L 105.667874 30.884188 
L 105.93387 30.84173 
L 106.199867 30.802111 
L 106.465864 30.765421 
L 106.73186 30.731754 
L 106.997857 30.701204 
L 107.263853 30.673865 
L 107.52985 30.649835 
L 107.795846 30.629209 
L 108.061843 30.612086 
L 108.327839 30.598564 
L 108.593836 30.588741 
L 108.859832 30.582716 
L 109.125829 30.580588 
L 109.391826 30.582456 
L 109.657822 30.58842 
L 109.923819 30.598577 
L 110.189815 30.613026 
L 110.455812 30.631863 
L 110.721808 30.655185 
L 110.987805 30.683087 
L 111.253801 30.715662 
L 111.519798 30.753002 
L 111.785794 30.795198 
L 112.051791 30.842336 
L 112.317787 30.894504 
L 112.583784 30.951784 
L 112.849781 31.014257 
L 113.115777 31.081999 
L 113.381774 31.155085 
" style="fill:none;stroke:#9fb8d8;stroke-linecap:square;stroke-width:0.75;"/>
   </g>
   <g id="line2d_65">
    <path clip-path="url(#p40e841400f)" d="M 103.366514 23.399979 
L 103.632511 23.33747 
L 103.898507 23.277839 
L 104.164504 23.221211 
L 104.4305 23.167713 
L 104.696497 23.117473 
L 104.962493 23.070626 
L 105.22849 23.027307 
L 105.494486 22.987654 
L 105.760483 22.951809 
L 106.026479 22.919915 
L 106.292476 22.892118 
L 106.558473 22.868566 
L 106.824469 22.849409 
L 107.090466 22.834799 
L 107.356462 22.824889 
L 107.622459 22.819833 
L 107.888455 22.819786 
L 108.154452 22.824903 
L 108.420448 22.835341 
L 108.686445 22.851256 
L 108.952441 22.872802 
L 109.218438 22.900134 
L 109.484435 22.933405 
L 109.750431 22.972766 
L 110.016428 23.018366 
L 110.282424 23.070352 
L 110.548421 23.128866 
L 110.814417 23.194049 
L 111.080414 23.266036 
L 111.34641 23.344957 
L 111.612407 23.430939 
L 111.878403 23.524101 
" style="fill:none;stroke:#9fb8d8;stroke-linecap:square;stroke-width:0.75;"/>
   </g>
   <g id="line2d_66">
    <path clip-path="url(#p40e841400f)" d="M 101.943922 14.572532 
L 102.209919 14.496747 
L 102.475915 14.424206 
L 102.741912 14.355089 
L 103.007908 14.289578 
L 103.273905 14.227864 
L 103.539902 14.170144 
L 103.805898 14.11662 
L 104.071895 14.067502 
L 104.337891 14.023003 
L 104.603888 13.983344 
L 104.869884 13.948752 
L 105.135881 13.919456 
L 105.401877 13.895694 
L 105.667874 13.877705 
L 105.93387 13.865733 
L 106.199867 13.860028 
L 106.465864 13.860839 
L 106.73186 13.86842 
L 106.997857 13.883026 
L 107.263853 13.904914 
L 107.52985 13.93434 
L 107.795846 13.971559 
L 108.061843 14.016828 
L 108.327839 14.070396 
L 108.593836 14.132514 
L 108.859832 14.203425 
L 109.125829 14.283368 
L 109.391826 14.372575 
L 109.657822 14.471271 
L 109.923819 14.579672 
L 110.189815 14.697981 
L 110.455812 14.826394 
" style="fill:none;stroke:#9fb8d8;stroke-linecap:square;stroke-width:0.75;"/>
   </g>
   <g id="line2d_67">
    <path clip-path="url(#p40e841400f)" d="M 113.379325 51.600327 
" style="fill:none;stroke:#668ec1;stroke-linecap:square;stroke-width:1.5;"/>
    <defs>
     <path d="M 0 3 
C 0.795609 3 1.55874 2.683901 2.12132 2.12132 
C 2.683901 1.55874 3 0.795609 3 0 
C 3 -0.795609 2.683901 -1.55874 2.12132 -2.12132 
C 1.55874 -2.683901 0.795609 -3 0 -3 
C -0.795609 -3 -1.55874 -2.683901 -2.12132 -2.12132 
C -2.683901 -1.55874 -3 -0.795609 -3 0 
C -3 0.795609 -2.683901 1.55874 -2.12132 2.12132 
C -1.55874 2.683901 -0.795609 3 0 3 
z
" id="m1ed244666d" style="stroke:#668ec1;stroke-width:0.75;"/>
    </defs>
    <g clip-path="url(#p40e841400f)">
     <use style="fill:#ebf0f7;stroke:#668ec1;stroke-width:0.75;" x="113.379325" xlink:href="#m1ed244666d" y="51.600327"/>
    </g>
   </g>
   <g id="line2d_68">
    <path clip-path="url(#p40e841400f)" d="M 114.352578 56.183371 
" style="fill:none;stroke:#668ec1;stroke-linecap:square;stroke-width:1.5;"/>
    <defs>
     <path d="M -3 3 
L 3 3 
L 3 -3 
L -3 -3 
z
" id="me31af54b59" style="stroke:#668ec1;stroke-linejoin:miter;stroke-width:0.75;"/>
    </defs>
    <g clip-path="url(#p40e841400f)">
     <use style="fill:#ebf0f7;stroke:#668ec1;stroke-linejoin:miter;stroke-width:0.75;" x="114.352578" xlink:href="#me31af54b59" y="56.183371"/>
    </g>
   </g>
   <g id="line2d_69">
    <path clip-path="url(#p40e841400f)" d="M 115.715967 61.534044 
" style="fill:none;stroke:#668ec1;stroke-linecap:square;stroke-width:1.5;"/>
    <defs>
     <path d="M 0 -3 
L -3 3 
L 3 3 
z
" id="m5518dee56f" style="stroke:#668ec1;stroke-linejoin:miter;stroke-width:0.75;"/>
    </defs>
    <g clip-path="url(#p40e841400f)">
     <use style="fill:#ebf0f7;stroke:#668ec1;stroke-linejoin:miter;stroke-width:0.75;" x="115.715967" xlink:href="#m5518dee56f" y="61.534044"/>
    </g>
   </g>
   <g id="line2d_70">
    <path clip-path="url(#p40e841400f)" d="M 117.160284 67.976914 
" style="fill:none;stroke:#668ec1;stroke-linecap:square;stroke-width:1.5;"/>
    <defs>
     <path d="M -0 4.242641 
L 2.545584 0 
L 0 -4.242641 
L -2.545584 -0 
z
" id="m4b4ab66874" style="stroke:#668ec1;stroke-linejoin:miter;stroke-width:0.75;"/>
    </defs>
    <g clip-path="url(#p40e841400f)">
     <use style="fill:#ebf0f7;stroke:#668ec1;stroke-linejoin:miter;stroke-width:0.75;" x="117.160284" xlink:href="#m4b4ab66874" y="67.976914"/>
    </g>
   </g>
   <g id="line2d_71">
    <path clip-path="url(#p40e841400f)" d="M 113.255961 51.601019 
" style="fill:none;stroke:#668ec1;stroke-linecap:square;stroke-width:1.5;"/>
    <defs>
     <path d="M 0 0 
L 0 3 
M 0 0 
L 2.4 -1.5 
M 0 0 
L -2.4 -1.5 
" id="m934a351e61" style="stroke:#668ec1;stroke-width:0.75;"/>
    </defs>
    <g clip-path="url(#p40e841400f)">
     <use style="fill:#ebf0f7;stroke:#668ec1;stroke-width:0.75;" x="113.255961" xlink:href="#m934a351e61" y="51.601019"/>
    </g>
   </g>
   <g id="line2d_72">
    <path clip-path="url(#p40e841400f)" d="M 112.386802 47.603876 
" style="fill:none;stroke:#668ec1;stroke-linecap:square;stroke-width:1.5;"/>
    <defs>
     <path d="M 0 0 
L 0 -3 
M 0 0 
L -2.4 1.5 
M 0 0 
L 2.4 1.5 
" id="m8a0bd69f2c" style="stroke:#668ec1;stroke-width:0.75;"/>
    </defs>
    <g clip-path="url(#p40e841400f)">
     <use style="fill:#ebf0f7;stroke:#668ec1;stroke-width:0.75;" x="112.386802" xlink:href="#m8a0bd69f2c" y="47.603876"/>
    </g>
   </g>
   <g id="line2d_73">
    <path clip-path="url(#p40e841400f)" d="M 110.979795 40.864872 
" style="fill:none;stroke:#668ec1;stroke-linecap:square;stroke-width:1.5;"/>
    <defs>
     <path d="M 0 0 
L -3 -0 
M 0 0 
L 1.5 2.4 
M 0 0 
L 1.5 -2.4 
" id="m26f1248c67" style="stroke:#668ec1;stroke-width:0.75;"/>
    </defs>
    <g clip-path="url(#p40e841400f)">
     <use style="fill:#ebf0f7;stroke:#668ec1;stroke-width:0.75;" x="110.979795" xlink:href="#m26f1248c67" y="40.864872"/>
    </g>
   </g>
   <g id="line2d_74">
    <path clip-path="url(#p40e841400f)" d="M 109.878273 35.310347 
" style="fill:none;stroke:#668ec1;stroke-linecap:square;stroke-width:1.5;"/>
    <defs>
     <path d="M 0 0 
L 3 0 
M 0 0 
L -1.5 -2.4 
M 0 0 
L -1.5 2.4 
" id="m357b0a9a15" style="stroke:#668ec1;stroke-width:0.75;"/>
    </defs>
    <g clip-path="url(#p40e841400f)">
     <use style="fill:#ebf0f7;stroke:#668ec1;stroke-width:0.75;" x="109.878273" xlink:href="#m357b0a9a15" y="35.310347"/>
    </g>
   </g>
   <g id="line2d_75">
    <path clip-path="url(#p40e841400f)" d="M 108.959453 30.57988 
" style="fill:none;stroke:#668ec1;stroke-linecap:square;stroke-width:1.5;"/>
    <defs>
     <path d="M -3 3 
L 3 -3 
M -3 -3 
L 3 3 
" id="mbcf9a20f30" style="stroke:#668ec1;stroke-width:0.75;"/>
    </defs>
    <g clip-path="url(#p40e841400f)">
     <use style="fill:#ebf0f7;stroke:#668ec1;stroke-width:0.75;" x="108.959453" xlink:href="#mbcf9a20f30" y="30.57988"/>
    </g>
   </g>
   <g id="line2d_76">
    <path clip-path="url(#p40e841400f)" d="M 107.888455 22.819786 
" style="fill:none;stroke:#668ec1;stroke-linecap:square;stroke-width:1.5;"/>
    <defs>
     <path d="M -3 0 
L 3 0 
M 0 3 
L 0 -3 
" id="m0e66a0c78b" style="stroke:#668ec1;stroke-width:0.75;"/>
    </defs>
    <g clip-path="url(#p40e841400f)">
     <use style="fill:#ebf0f7;stroke:#668ec1;stroke-width:0.75;" x="107.888455" xlink:href="#m0e66a0c78b" y="22.819786"/>
    </g>
   </g>
   <g id="line2d_77">
    <path clip-path="url(#p40e841400f)" d="M 106.199867 13.860028 
" style="fill:none;stroke:#668ec1;stroke-linecap:square;stroke-width:1.5;"/>
    <defs>
     <path d="M -0.005751 0.852077 
L 1.661981 2.680831 
C 1.698403 2.717252 1.734824 2.742173 1.784665 2.742173 
C 1.895847 2.742173 1.895847 2.644409 1.895847 2.63099 
C 1.895847 2.594569 1.857508 2.521725 1.834505 2.483387 
L 0.630671 0.386262 
L 2.827476 -0.606709 
C 2.97508 -0.668051 3 -0.68147 3 -0.754313 
C 3 -0.815655 2.95016 -0.865495 2.877316 -0.865495 
L 0.398722 -0.361342 
L 0.128435 -2.730671 
C 0.103514 -2.901278 0.103514 -2.96262 0.005751 -2.96262 
C -0.105431 -2.96262 -0.105431 -2.901278 -0.128435 -2.717252 
L -0.398722 -0.361342 
L -2.877316 -0.865495 
C -2.95016 -0.865495 -3 -0.815655 -3 -0.754313 
C -3 -0.68147 -2.938658 -0.65655 -2.840895 -0.606709 
L -0.632588 0.386262 
L -1.809585 2.460383 
C -1.895847 2.60607 -1.895847 2.619489 -1.895847 2.63099 
C -1.895847 2.644409 -1.895847 2.742173 -1.784665 2.742173 
C -1.761661 2.742173 -1.711821 2.742173 -1.600639 2.619489 
z
" id="m9ca63efa65" style="stroke:#668ec1;stroke-width:0.75;"/>
    </defs>
    <g clip-path="url(#p40e841400f)">
     <use style="fill:#ebf0f7;stroke:#668ec1;stroke-width:0.75;" x="106.199867" xlink:href="#m9ca63efa65" y="13.860028"/>
    </g>
   </g>
   <g id="patch_8">
    <path d="M 82.66534 77.689809 
L 82.66534 10.971729 
" style="fill:none;stroke:#000000;stroke-linecap:square;stroke-linejoin:miter;stroke-width:0.8;"/>
   </g>
   <g id="patch_9">
    <path d="M 151.879665 77.689809 
L 151.879665 10.971729 
" style="fill:none;stroke:#000000;stroke-linecap:square;stroke-linejoin:miter;stroke-width:0.8;"/>
   </g>
   <g id="patch_10">
    <path d="M 82.66534 77.689809 
L 151.879665 77.689809 
" style="fill:none;stroke:#000000;stroke-linecap:square;stroke-linejoin:miter;stroke-width:0.8;"/>
   </g>
   <g id="patch_11">
    <path d="M 82.66534 10.971729 
L 151.879665 10.971729 
" style="fill:none;stroke:#000000;stroke-linecap:square;stroke-linejoin:miter;stroke-width:0.8;"/>
   </g>
  </g>
 </g>
 <defs>
  <clipPath id="pfdab9a046f">
   <rect height="158.5584" width="258.354" x="43.266582" y="7.059249"/>
  </clipPath>
  <clipPath id="p40e841400f">
   <rect height="66.71808" width="69.214326" x="82.66534" y="10.971729"/>
  </clipPath>
 </defs>
</svg>
