<?xml version="1.0" encoding="utf-8" standalone="no"?>
<!DOCTYPE svg PUBLIC "-//W3C//DTD SVG 1.1//EN"
  "http://www.w3.org/Graphics/SVG/1.1/DTD/svg11.dtd">
<!-- Created with matplotlib (http://matplotlib.org/) -->
<svg height="205pt" version="1.1" viewBox="0 0 333 205" width="333pt" xmlns="http://www.w3.org/2000/svg" xmlns:xlink="http://www.w3.org/1999/xlink">
 <defs>
  <style type="text/css">
*{stroke-linecap:butt;stroke-linejoin:round;}
  </style>
 </defs>
 <g id="figure_1">
  <g id="patch_1">
   <path d="M 0 205.92 
L 333.36 205.92 
L 333.36 0 
L 0 0 
z
" style="fill:#ffffff;"/>
  </g>
  <g id="axes_1">
   <g id="patch_2">
    <path d="M 26.6688 168.8544 
L 163.934682 168.8544 
L 163.934682 2.0592 
L 26.6688 2.0592 
z
" style="fill:#ffffff;"/>
   </g>
   <g id="matplotlib.axis_1">
    <g id="xtick_1">
     <g id="line2d_1">
      <defs>
       <path d="M 0 0 
L 0 -6 
" id="ma79ead6687" style="stroke:#000000;stroke-width:0.8;"/>
      </defs>
      <g>
       <use style="stroke:#000000;stroke-width:0.8;" x="27.735321" xlink:href="#ma79ead6687" y="168.8544"/>
      </g>
     </g>
     <g id="text_1">
      <!-- $0.1$ -->
      <defs>
       <path d="M 42 31.640625 
C 42 37.75 41.90625 48.125 37.703125 56.109375 
C 34 63.109375 28.09375 65.59375 22.90625 65.59375 
C 18.09375 65.59375 12 63.40625 8.203125 56.203125 
C 4.203125 48.71875 3.796875 39.4375 3.796875 31.640625 
C 3.796875 25.953125 3.90625 17.28125 7 9.671875 
C 11.296875 -0.609375 19 -2 22.90625 -2 
C 27.5 -2 34.5 -0.109375 38.59375 9.375 
C 41.59375 16.28125 42 24.359375 42 31.640625 
z
M 22.90625 -0.40625 
C 16.5 -0.40625 12.703125 5.078125 11.296875 12.6875 
C 10.203125 18.5625 10.203125 27.15625 10.203125 32.75 
C 10.203125 40.4375 10.203125 46.828125 11.5 52.921875 
C 13.40625 61.390625 19 64 22.90625 64 
C 27 64 32.296875 61.296875 34.203125 53.125 
C 35.5 47.4375 35.59375 40.734375 35.59375 32.75 
C 35.59375 26.25 35.59375 18.265625 34.40625 12.375 
C 32.296875 1.484375 26.40625 -0.40625 22.90625 -0.40625 
z
" id="CMR17-48"/>
       <path d="M 18.40625 4.796875 
C 18.40625 7.6875 16 9.671875 13.59375 9.671875 
C 10.703125 9.671875 8.703125 7.28125 8.703125 4.890625 
C 8.703125 2 11.09375 0 13.5 0 
C 16.40625 0 18.40625 2.390625 18.40625 4.796875 
z
" id="CMMI12-58"/>
       <path d="M 26.59375 63.40625 
C 26.59375 65.5 26.5 65.5 25.09375 65.5 
C 21.203125 61.1875 15.296875 59.796875 9.703125 59.796875 
C 9.40625 59.796875 8.90625 59.796875 8.796875 59.5 
C 8.703125 59.296875 8.703125 59.09375 8.703125 57 
C 11.796875 57 17 57.59375 21 59.984375 
L 21 7.203125 
C 21 3.6875 20.796875 2.5 12.203125 2.5 
L 9.203125 2.5 
L 9.203125 0 
C 14 0 19 0 23.796875 0 
C 28.59375 0 33.59375 0 38.40625 0 
L 38.40625 2.5 
L 35.40625 2.5 
C 26.796875 2.5 26.59375 3.59375 26.59375 7.15625 
z
" id="CMR17-49"/>
      </defs>
      <g transform="translate(19.735321 182.452838)scale(0.1 -0.1)">
       <use transform="scale(0.996264)" xlink:href="#CMR17-48"/>
       <use transform="translate(45.690477 0)scale(0.996264)" xlink:href="#CMMI12-58"/>
       <use transform="translate(72.787654 0)scale(0.996264)" xlink:href="#CMR17-49"/>
      </g>
     </g>
    </g>
    <g id="xtick_2">
     <g id="line2d_2">
      <g>
       <use style="stroke:#000000;stroke-width:0.8;" x="61.60237" xlink:href="#ma79ead6687" y="168.8544"/>
      </g>
     </g>
     <g id="text_2">
      <!-- $0.2$ -->
      <defs>
       <path d="M 41.703125 15.453125 
L 39.90625 15.453125 
C 38.90625 8.375 38.09375 7.171875 37.703125 6.5625 
C 37.203125 5.765625 30 5.765625 28.59375 5.765625 
L 9.40625 5.765625 
C 13 9.671875 20 16.75 28.5 24.953125 
C 34.59375 30.734375 41.703125 37.53125 41.703125 47.421875 
C 41.703125 59.21875 32.296875 66 21.796875 66 
C 10.796875 66 4.09375 56.3125 4.09375 47.34375 
C 4.09375 43.4375 7 42.9375 8.203125 42.9375 
C 9.203125 42.9375 12.203125 43.546875 12.203125 47.03125 
C 12.203125 50.109375 9.59375 51 8.203125 51 
C 7.59375 51 7 50.90625 6.59375 50.703125 
C 8.5 59.21875 14.296875 63.40625 20.40625 63.40625 
C 29.09375 63.40625 34.796875 56.515625 34.796875 47.421875 
C 34.796875 38.734375 29.703125 31.25 24 24.75 
L 4.09375 2.28125 
L 4.09375 0 
L 39.296875 0 
z
" id="CMR17-50"/>
      </defs>
      <g transform="translate(53.65237 182.452838)scale(0.1 -0.1)">
       <use transform="scale(0.996264)" xlink:href="#CMR17-48"/>
       <use transform="translate(45.690477 0)scale(0.996264)" xlink:href="#CMMI12-58"/>
       <use transform="translate(72.787654 0)scale(0.996264)" xlink:href="#CMR17-50"/>
      </g>
     </g>
    </g>
    <g id="xtick_3">
     <g id="line2d_3">
      <g>
       <use style="stroke:#000000;stroke-width:0.8;" x="95.469419" xlink:href="#ma79ead6687" y="168.8544"/>
      </g>
     </g>
     <g id="text_3">
      <!-- $0.3$ -->
      <defs>
       <path d="M 22.09375 33.703125 
C 31 33.703125 34.90625 25.96875 34.90625 17.03125 
C 34.90625 5 28.5 0.390625 22.703125 0.390625 
C 17.40625 0.390625 8.796875 3.03125 6.09375 10.828125 
C 6.59375 10.625 7.09375 10.625 7.59375 10.625 
C 10 10.625 11.796875 12.21875 11.796875 14.8125 
C 11.796875 17.703125 9.59375 19 7.59375 19 
C 5.90625 19 3.296875 18.203125 3.296875 14.46875 
C 3.296875 5.234375 12.296875 -2 22.90625 -2 
C 34 -2 42.5 6.71875 42.5 16.953125 
C 42.5 26.671875 34.5 33.703125 25 34.796875 
C 32.59375 36.375 39.90625 43.0625 39.90625 52.015625 
C 39.90625 59.6875 32 65.296875 23 65.296875 
C 13.90625 65.296875 5.90625 59.828125 5.90625 52.015625 
C 5.90625 48.59375 8.5 48 9.796875 48 
C 11.90625 48 13.703125 49.296875 13.703125 51.890625 
C 13.703125 54.46875 11.90625 55.765625 9.796875 55.765625 
C 9.40625 55.765625 8.90625 55.765625 8.5 55.578125 
C 11.40625 61.859375 19.296875 63 22.796875 63 
C 26.296875 63 32.90625 61.328125 32.90625 51.875 
C 32.90625 49.109375 32.5 44.1875 29.09375 39.84375 
C 26.09375 36 22.703125 36 19.40625 35.6875 
C 18.90625 35.6875 16.59375 35.453125 16.203125 35.453125 
C 15.5 35.359375 15.09375 35.265625 15.09375 34.5 
C 15.09375 33.796875 15.203125 33.703125 17.203125 33.703125 
z
" id="CMR17-51"/>
      </defs>
      <g transform="translate(87.469419 182.452838)scale(0.1 -0.1)">
       <use transform="scale(0.996264)" xlink:href="#CMR17-48"/>
       <use transform="translate(45.690477 0)scale(0.996264)" xlink:href="#CMMI12-58"/>
       <use transform="translate(72.787654 0)scale(0.996264)" xlink:href="#CMR17-51"/>
      </g>
     </g>
    </g>
    <g id="xtick_4">
     <g id="line2d_4">
      <g>
       <use style="stroke:#000000;stroke-width:0.8;" x="129.336468" xlink:href="#ma79ead6687" y="168.8544"/>
      </g>
     </g>
     <g id="text_4">
      <!-- $0.4$ -->
      <defs>
       <path d="M 33.59375 64.40625 
C 33.59375 66.5 33.5 66.5 31.703125 66.5 
L 2 19.59375 
L 2 17 
L 27.796875 17 
L 27.796875 7.140625 
C 27.796875 3.5 27.59375 2.5 20.59375 2.5 
L 18.703125 2.5 
L 18.703125 0 
C 21.90625 0 27.296875 0 30.703125 0 
C 34.09375 0 39.5 0 42.703125 0 
L 42.703125 2.5 
L 40.796875 2.5 
C 33.796875 2.5 33.59375 3.5 33.59375 7.140625 
L 33.59375 17 
L 43.796875 17 
L 43.796875 19.59375 
L 33.59375 19.59375 
z
M 28.09375 57.859375 
L 28.09375 19.59375 
L 4 19.59375 
z
" id="CMR17-52"/>
      </defs>
      <g transform="translate(121.336468 182.452838)scale(0.1 -0.1)">
       <use transform="scale(0.996264)" xlink:href="#CMR17-48"/>
       <use transform="translate(45.690477 0)scale(0.996264)" xlink:href="#CMMI12-58"/>
       <use transform="translate(72.787654 0)scale(0.996264)" xlink:href="#CMR17-52"/>
      </g>
     </g>
    </g>
    <g id="text_5">
     <!-- $\mathcal{F}[X(N),X(\ell=L/2)]$ -->
     <defs>
      <path d="M 83 64.703125 
C 83 69.296875 75.296875 68.609375 72.203125 68.609375 
L 34.5 68.609375 
C 29.5 68.609375 20.59375 65.703125 19 60.296875 
C 19.203125 59.6875 19.40625 59.59375 20 59.59375 
C 22.203125 59.59375 25.203125 61.453125 26.59375 63 
C 29.703125 63 32.703125 63 35.796875 63 
L 42 63 
C 42 63 41.59375 61.1875 41.59375 61.09375 
C 37.703125 42.828125 31.796875 27.359375 27.40625 17.578125 
C 26.796875 16.265625 21.40625 3.796875 20 2.609375 
C 15.59375 2.609375 12.296875 4.984375 10.5 8.875 
C 10.203125 9.46875 10.203125 9.875 9.5 9.875 
C 7.203125 9.875 1.703125 6.6875 1.703125 5 
C 1.703125 4.796875 1.796875 4.609375 1.90625 4.40625 
C 3.703125 -0.296875 8.203125 -3 13.09375 -3 
C 18.203125 -3 24.09375 0.6875 27.296875 4.375 
C 30.59375 8.171875 37.203125 24.515625 39.796875 30.5 
L 59.09375 30.5 
C 59 30.390625 58.90625 30.296875 58.90625 30.1875 
C 58.90625 29.796875 59.5 29.5 59.90625 29.5 
C 62.09375 29.5 67.796875 32.296875 67.796875 35.40625 
C 67.796875 36.09375 67.09375 36 65.90625 36 
L 41.90625 36 
C 44.5 45 47.90625 53.796875 49.703125 63 
L 62.90625 63 
C 65.40625 63 72.40625 63.5 74.203125 61.390625 
C 74.40625 60.75 74.09375 59.703125 74.40625 59.1875 
C 74.59375 58.984375 74.90625 58.984375 75.203125 58.984375 
C 77.59375 58.984375 83 61.984375 83 64.703125 
z
" id="CMSY10-70"/>
      <path d="M 23.5 -25 
L 23.5 -21.515625 
L 14.09375 -21.515625 
L 14.09375 71 
L 23.5 71 
L 23.5 74.484375 
L 10.59375 74.484375 
L 10.59375 -25 
z
" id="CMR17-91"/>
      <path d="M 47.5 40.5625 
L 38.09375 62.40625 
C 39.40625 64.796875 42.40625 65.1875 43.59375 65.296875 
C 44.203125 65.296875 45.296875 65.296875 45.296875 67.0625 
C 45.296875 68.1875 44.40625 68.1875 43.796875 68.1875 
C 42.09375 68.1875 40.09375 68.1875 38.40625 68.1875 
L 32.59375 68.1875 
C 26.5 68.1875 22.09375 68.1875 22 68.1875 
C 21.203125 68.1875 20.203125 68.1875 20.203125 66.296875 
C 20.203125 65.296875 21.09375 65.296875 22.40625 65.296875 
C 28.203125 65.296875 28.59375 64.296875 29.59375 61.90625 
L 41.5 34.140625 
L 19.796875 10.828125 
C 16.203125 6.90625 11.90625 3.09375 4.5 3.09375 
C 3.296875 3 2.5 3 2.5 1.0625 
C 2.5 0.75 2.59375 0 3.703125 0 
C 5.09375 0 6.59375 0 8 0 
L 12.703125 0 
C 15.90625 0 19.40625 0 22.5 0 
C 23.203125 0 24.40625 0 24.40625 1.796875 
C 24.40625 2.796875 23.703125 2.890625 23.09375 2.890625 
C 21.09375 3.09375 19.796875 4.1875 19.796875 5.78125 
C 19.796875 7.484375 21 8.703125 23.90625 11.6875 
L 32.796875 21.375 
C 35 23.6875 40.296875 29.46875 42.5 31.65625 
L 53 7.078125 
C 53.09375 6.890625 53.5 5.890625 53.5 5.78125 
C 53.5 4.890625 51.296875 3.09375 48.09375 3.09375 
C 47.5 3.09375 46.40625 3.09375 46.40625 1.109375 
C 46.40625 0 47.40625 0 47.90625 0 
C 49.59375 0 51.59375 0 53.296875 0 
L 64.296875 0 
C 66.09375 0 68 0 69.703125 0 
C 70.40625 0 71.5 0 71.5 2.03125 
C 71.5 3.09375 70.5 3.09375 69.59375 3.09375 
C 63.59375 3.09375 63.40625 3.59375 61.703125 7.265625 
L 48.5 38.140625 
L 61.203125 51.8125 
C 62.203125 52.828125 64.5 55.34375 65.40625 56.34375 
C 69.703125 60.875 73.703125 65 81.796875 65 
C 82.796875 65.296875 83.796875 65.296875 83.796875 67.0625 
C 83.796875 68.1875 82.90625 68.1875 82.5 68.1875 
C 81.09375 68.1875 79.59375 68.1875 78.203125 68.1875 
L 73.59375 68.1875 
C 70.40625 68.1875 66.90625 68.1875 63.796875 68.1875 
C 63.09375 68.1875 61.90625 68.1875 61.90625 66.390625 
C 61.90625 65.390625 62.59375 65.296875 63.203125 65.296875 
C 64.796875 65.109375 66.5 64.3125 66.5 62.40625 
L 66.40625 62.21875 
C 66.296875 61.515625 66.09375 60.515625 65 59.328125 
z
" id="CMMI12-88"/>
      <path d="M 30.59375 -24.390625 
C 30.59375 -24.296875 30.59375 -24.09375 30.296875 -23.796875 
C 25.703125 -19.125 13.40625 -6.359375 13.40625 24.703125 
C 13.40625 55.765625 25.5 68.421875 30.40625 73.390625 
C 30.40625 73.5 30.59375 73.703125 30.59375 74 
C 30.59375 74.296875 30.296875 74.5 29.90625 74.5 
C 28.796875 74.5 20.296875 67.125 15.40625 56.15625 
C 10.40625 45.109375 9 34.359375 9 24.8125 
C 9 17.625 9.703125 5.484375 15.703125 -7.359375 
C 20.5 -17.734375 28.703125 -25 29.90625 -25 
C 30.40625 -25 30.59375 -24.796875 30.59375 -24.390625 
z
" id="CMR17-40"/>
      <path d="M 74 57.78125 
C 75.09375 62.09375 76.703125 65.09375 84.296875 65.09375 
C 84.59375 65.09375 85.796875 65.09375 85.796875 66.859375 
C 85.796875 68 84.90625 68 84.5 68 
C 82.5 68 77.40625 68 75.40625 68 
L 70.59375 68 
C 69.203125 68 67.40625 68 66 68 
C 65.40625 68 64.203125 68 64.203125 66.09375 
C 64.203125 65.09375 65 65.09375 65.703125 65.09375 
C 71.703125 65.09375 72.09375 62.796875 72.09375 60.984375 
C 72.09375 60.09375 72 59.78125 71.703125 58.390625 
L 60.40625 13.28125 
L 39 66.390625 
C 38.296875 68 38.203125 68 36 68 
L 23.796875 68 
C 21.796875 68 20.90625 68 20.90625 66.09375 
C 20.90625 65.09375 21.59375 65.09375 23.5 65.09375 
C 24 65.09375 29.90625 65.09375 29.90625 64.296875 
C 29.90625 64.09375 29.703125 63.296875 29.59375 63 
L 16.296875 9.921875 
C 15.09375 5 12.703125 2.90625 6.09375 2.90625 
C 5.59375 2.90625 4.59375 2.90625 4.59375 1.046875 
C 4.59375 0 5.59375 0 5.90625 0 
C 7.90625 0 13 0 15 0 
L 19.796875 0 
C 21.203125 0 22.90625 0 24.296875 0 
C 25 0 26.09375 0 26.09375 1.90625 
C 26.09375 2.8125 25.09375 2.90625 24.703125 2.90625 
C 21.40625 2.90625 18.203125 3.5 18.203125 7.09375 
C 18.203125 7.890625 18.40625 8.78125 18.59375 9.578125 
L 32.09375 63 
C 32.703125 62 32.703125 61.8125 33.09375 60.90625 
L 56.90625 1.796875 
C 57.40625 0.59375 57.59375 0 58.5 0 
C 59.5 0 59.59375 0.296875 60 2 
z
" id="CMMI12-78"/>
      <path d="M 26.296875 24.703125 
C 26.296875 31.875 25.59375 44.015625 19.59375 56.859375 
C 14.796875 67.234375 6.59375 74.5 5.40625 74.5 
C 5.09375 74.5 4.703125 74.390625 4.703125 73.890625 
C 4.703125 73.703125 4.796875 73.59375 4.90625 73.390625 
C 9.703125 68.40625 21.90625 55.75 21.90625 24.75 
C 21.90625 -6.359375 9.796875 -19.015625 4.90625 -24.015625 
C 4.796875 -24.203125 4.703125 -24.3125 4.703125 -24.5 
C 4.703125 -25 5.09375 -25 5.40625 -25 
C 6.5 -25 15 -17.625 19.90625 -6.65625 
C 24.90625 4.390625 26.296875 15.140625 26.296875 24.703125 
z
" id="CMR17-41"/>
      <path d="M 19.5 -0.484375 
C 19.5 5.359375 17.59375 9.671875 13.5 9.671875 
C 10.296875 9.671875 8.703125 7.078125 8.703125 4.890625 
C 8.703125 2.6875 10.203125 0 13.59375 0 
C 14.90625 0 16 0.40625 16.90625 1.296875 
C 17.09375 1.5 17.203125 1.5 17.296875 1.5 
C 17.5 1.5 17.5 0.078125 17.5 -0.421875 
C 17.5 -3.75 16.90625 -10.296875 11.09375 -16.875 
C 10 -18.078125 10 -18.28125 10 -18.484375 
C 10 -19 10.5 -19.5 11 -19.5 
C 11.796875 -19.5 19.5 -12.046875 19.5 -0.484375 
z
" id="CMMI12-59"/>
      <path d="M 9.203125 17 
C 2.90625 10.8125 1.296875 9.328125 1.296875 8.9375 
C 1.296875 8.53125 1.703125 7.828125 2.40625 7.828125 
C 2.90625 7.828125 8.59375 13.296875 9.40625 14.203125 
C 10 7.53125 12.5 -1.140625 20.296875 -1.140625 
C 24.296875 -1.140625 27.90625 1.34375 29.5 2.546875 
C 30.796875 3.546875 35.59375 7.625 35.59375 8.53125 
C 35.59375 9.03125 35.09375 9.625 34.59375 9.625 
C 34.203125 9.625 32.703125 8.125 32.296875 7.734375 
C 28.796875 4.34375 24.40625 0.859375 20.40625 0.859375 
C 15 0.859375 14.296875 8.625 14.296875 14.015625 
C 14.296875 15 14.296875 19.1875 15 19.984375 
C 20.90625 26.046875 39.40625 45.09375 39.40625 62.71875 
C 39.40625 66.703125 37.90625 70.1875 33.59375 70.1875 
C 24.296875 70.1875 16.203125 49.65625 14.796875 45.875 
C 14.40625 44.890625 8.59375 29.546875 9.203125 17 
z
M 15.203125 22.984375 
C 15.296875 23.578125 19.796875 49.78125 28.203125 63.78125 
C 29.90625 66.484375 31.59375 68.1875 33.59375 68.1875 
C 37 68.1875 37.203125 64.984375 37.203125 62.78125 
C 37.203125 59.28125 36.203125 50.28125 27.5 37.6875 
C 24.90625 33.984375 20.90625 28.984375 15.203125 22.984375 
z
" id="CMMI12-96"/>
      <path d="M 64.296875 31.515625 
C 65.796875 31.515625 67.296875 31.515625 67.296875 33.203125 
C 67.296875 35 65.59375 35 63.90625 35 
L 8 35 
C 6.296875 35 4.59375 35 4.59375 33.203125 
C 4.59375 31.515625 6.09375 31.515625 7.59375 31.515625 
z
M 63.90625 14 
C 65.59375 14 67.296875 14 67.296875 15.796875 
C 67.296875 17.484375 65.796875 17.484375 64.296875 17.484375 
L 7.59375 17.484375 
C 6.09375 17.484375 4.59375 17.484375 4.59375 15.796875 
C 4.59375 14 6.296875 14 8 14 
z
" id="CMR17-61"/>
      <path d="M 36.703125 60.328125 
C 37.59375 64.109375 37.90625 65.109375 46.703125 65.109375 
C 49.40625 65.109375 50.09375 65.109375 50.09375 67 
C 50.09375 68 49 68 48.59375 68 
C 46.59375 68 44.296875 68 42.296875 68 
L 28.90625 68 
C 27 68 24.796875 68 22.90625 68 
C 22.09375 68 21 68 21 66.109375 
C 21 65.109375 21.90625 65.109375 23.40625 65.109375 
C 29.5 65.109375 29.5 64.3125 29.5 63.21875 
C 29.5 63.03125 29.5 62.421875 29.09375 60.921875 
L 15.59375 7.375 
C 14.703125 3.890625 14.5 2.890625 7.5 2.890625 
C 5.59375 2.890625 4.59375 2.890625 4.59375 1.09375 
C 4.59375 0 5.203125 0 7.203125 0 
L 52 0 
C 54.203125 0 54.296875 0.09375 55 1.890625 
L 62.703125 23.09375 
C 62.90625 23.59375 63.09375 24.1875 63.09375 24.484375 
C 63.09375 25.078125 62.59375 25.484375 62.09375 25.484375 
C 62 25.484375 61.5 25.484375 61.296875 25.078125 
C 61.09375 24.984375 61.09375 24.78125 60.296875 22.890625 
C 57.09375 14.140625 52.59375 2.890625 35.703125 2.890625 
L 26.09375 2.890625 
C 24.703125 2.890625 24.5 2.890625 23.90625 3 
C 22.796875 3.09375 22.703125 3.296875 22.703125 4.09375 
C 22.703125 4.796875 22.90625 5.390625 23.09375 6.265625 
z
" id="CMMI12-76"/>
      <path d="M 42.90625 71.28125 
C 42.90625 71.390625 43.5 72.90625 43.5 73.09375 
C 43.5 74.296875 42.5 75 41.703125 75 
C 41.203125 75 40.296875 75 39.5 72.796875 
L 6 -21.296875 
C 6 -21.40625 5.40625 -22.890625 5.40625 -23.09375 
C 5.40625 -24.296875 6.40625 -25 7.203125 -25 
C 7.796875 -25 8.703125 -24.890625 9.40625 -22.796875 
z
" id="CMMI12-61"/>
      <path d="M 14.296875 74.484375 
L 1.40625 74.484375 
L 1.40625 71 
L 10.796875 71 
L 10.796875 -21.515625 
L 1.40625 -21.515625 
L 1.40625 -25 
L 14.296875 -25 
z
" id="CMR17-93"/>
     </defs>
     <g transform="translate(42.501741 197.65065)scale(0.12 -0.12)">
      <use transform="scale(0.996264)" xlink:href="#CMSY10-70"/>
      <use transform="translate(81.49978 0)scale(0.996264)" xlink:href="#CMR17-91"/>
      <use transform="translate(106.370839 0)scale(0.996264)" xlink:href="#CMMI12-88"/>
      <use transform="translate(195.163401 0)scale(0.996264)" xlink:href="#CMR17-40"/>
      <use transform="translate(230.444169 0)scale(0.996264)" xlink:href="#CMMI12-78"/>
      <use transform="translate(318.965941 0)scale(0.996264)" xlink:href="#CMR17-41"/>
      <use transform="translate(354.246709 0)scale(0.996264)" xlink:href="#CMMI12-59"/>
      <use transform="translate(397.948291 0)scale(0.996264)" xlink:href="#CMMI12-88"/>
      <use transform="translate(486.740853 0)scale(0.996264)" xlink:href="#CMR17-40"/>
      <use transform="translate(522.021621 0)scale(0.996264)" xlink:href="#CMMI12-96"/>
      <use transform="translate(590.629849 0)scale(0.996264)" xlink:href="#CMR17-61"/>
      <use transform="translate(690.018647 0)scale(0.996264)" xlink:href="#CMMI12-76"/>
      <use transform="translate(756.389522 0)scale(0.996264)" xlink:href="#CMMI12-61"/>
      <use transform="translate(805.164441 0)scale(0.996264)" xlink:href="#CMR17-50"/>
      <use transform="translate(850.854918 0)scale(0.996264)" xlink:href="#CMR17-41"/>
      <use transform="translate(886.135686 0)scale(0.996264)" xlink:href="#CMR17-93"/>
     </g>
    </g>
   </g>
   <g id="matplotlib.axis_2">
    <g id="ytick_1">
     <g id="line2d_5">
      <defs>
       <path d="M 0 0 
L 6 0 
" id="m4197cf0ba9" style="stroke:#000000;stroke-width:0.8;"/>
      </defs>
      <g>
       <use style="stroke:#000000;stroke-width:0.8;" x="26.6688" xlink:href="#m4197cf0ba9" y="141.002423"/>
      </g>
     </g>
     <g id="text_6">
      <!-- $0.4$ -->
      <g transform="translate(4.6688 144.801642)scale(0.1 -0.1)">
       <use transform="scale(0.996264)" xlink:href="#CMR17-48"/>
       <use transform="translate(45.690477 0)scale(0.996264)" xlink:href="#CMMI12-58"/>
       <use transform="translate(72.787654 0)scale(0.996264)" xlink:href="#CMR17-52"/>
      </g>
     </g>
    </g>
    <g id="ytick_2">
     <g id="line2d_6">
      <g>
       <use style="stroke:#000000;stroke-width:0.8;" x="26.6688" xlink:href="#m4197cf0ba9" y="103.713716"/>
      </g>
     </g>
     <g id="text_7">
      <!-- $0.5$ -->
      <defs>
       <path d="M 11.40625 57.6875 
C 12.40625 57.28125 16.5 56 20.703125 56 
C 30 56 35.09375 61.109375 38 64.0625 
C 38 64.953125 38 65.5 37.40625 65.5 
C 37.296875 65.5 37.09375 65.5 36.296875 65.046875 
C 32.796875 63.40625 28.703125 62.078125 23.703125 62.078125 
C 20.703125 62.078125 16.203125 62.484375 11.296875 64.671875 
C 10.203125 65.171875 10 65.171875 9.90625 65.171875 
C 9.40625 65.171875 9.296875 65.0625 9.296875 63.078125 
L 9.296875 34.421875 
C 9.296875 32.640625 9.296875 32.140625 10.296875 32.140625 
C 10.796875 32.140625 11 32.34375 11.5 33.03125 
C 14.703125 37.515625 19.09375 39.40625 24.09375 39.40625 
C 27.59375 39.40625 35.09375 37.21875 35.09375 20.140625 
C 35.09375 16.953125 35.09375 11.171875 32.09375 6.578125 
C 29.59375 2.484375 25.703125 0.390625 21.40625 0.390625 
C 14.796875 0.390625 8.09375 5 6.296875 12.71875 
C 6.703125 12.609375 7.5 12.421875 7.90625 12.421875 
C 9.203125 12.421875 11.703125 13.125 11.703125 16.21875 
C 11.703125 18.90625 9.796875 20 7.90625 20 
C 5.59375 20 4.09375 18.59375 4.09375 15.796875 
C 4.09375 7.09375 11 -2 21.59375 -2 
C 31.90625 -2 41.703125 6.875 41.703125 19.75 
C 41.703125 31.71875 33.90625 41 24.203125 41 
C 19.09375 41 14.796875 39.109375 11.40625 35.53125 
z
" id="CMR17-53"/>
      </defs>
      <g transform="translate(4.6688 107.512935)scale(0.1 -0.1)">
       <use transform="scale(0.996264)" xlink:href="#CMR17-48"/>
       <use transform="translate(45.690477 0)scale(0.996264)" xlink:href="#CMMI12-58"/>
       <use transform="translate(72.787654 0)scale(0.996264)" xlink:href="#CMR17-53"/>
      </g>
     </g>
    </g>
    <g id="ytick_3">
     <g id="line2d_7">
      <g>
       <use style="stroke:#000000;stroke-width:0.8;" x="26.6688" xlink:href="#m4197cf0ba9" y="66.425009"/>
      </g>
     </g>
     <g id="text_8">
      <!-- $0.6$ -->
      <defs>
       <path d="M 10.59375 34 
C 10.59375 57.65625 21.796875 63 28.296875 63 
C 30.40625 63 35.5 62.640625 37.5 59 
C 35.90625 59 32.90625 59 32.90625 55.515625 
C 32.90625 52.828125 35.09375 51.921875 36.5 51.921875 
C 37.40625 51.921875 40.09375 52.3125 40.09375 55.625 
C 40.09375 61.78125 35.09375 65.296875 28.203125 65.296875 
C 16.296875 65.296875 3.796875 52.96875 3.796875 31 
C 3.796875 3.953125 15.09375 -2 23.09375 -2 
C 32.796875 -2 42 6.671875 42 20.046875 
C 42 32.515625 33.90625 41.59375 23.703125 41.59375 
C 17.59375 41.59375 13.09375 37.609375 10.59375 30.625 
z
M 23.09375 0.390625 
C 10.796875 0.390625 10.796875 18.75 10.796875 22.4375 
C 10.796875 29.625 14.203125 40 23.5 40 
C 25.203125 40 30.09375 40 33.40625 33.125 
C 35.203125 29.21875 35.203125 25.140625 35.203125 20.140625 
C 35.203125 14.75 35.203125 10.78125 33.09375 6.78125 
C 30.90625 2.671875 27.703125 0.390625 23.09375 0.390625 
z
" id="CMR17-54"/>
      </defs>
      <g transform="translate(4.6688 70.224228)scale(0.1 -0.1)">
       <use transform="scale(0.996264)" xlink:href="#CMR17-48"/>
       <use transform="translate(45.690477 0)scale(0.996264)" xlink:href="#CMMI12-58"/>
       <use transform="translate(72.787654 0)scale(0.996264)" xlink:href="#CMR17-54"/>
      </g>
     </g>
    </g>
    <g id="ytick_4">
     <g id="line2d_8">
      <g>
       <use style="stroke:#000000;stroke-width:0.8;" x="26.6688" xlink:href="#m4197cf0ba9" y="29.136302"/>
      </g>
     </g>
     <g id="text_9">
      <!-- $0.7$ -->
      <defs>
       <path d="M 45.09375 61.578125 
L 45.09375 63.765625 
L 21.59375 63.765625 
C 9.90625 63.765625 9.703125 65.078125 9.296875 67 
L 7.5 67 
L 4.59375 48.34375 
L 6.40625 48.34375 
C 6.703125 50.234375 7.40625 55.3125 8.59375 57.203125 
C 9.203125 58 16.59375 58 18.296875 58 
L 40.296875 58 
L 29.203125 41.578125 
C 21.796875 30.53125 16.703125 15.609375 16.703125 2.578125 
C 16.703125 1.390625 16.703125 -2 20.296875 -2 
C 23.90625 -2 23.90625 1.390625 23.90625 2.671875 
L 23.90625 7.265625 
C 23.90625 23.5625 26.703125 34.3125 31.296875 41.1875 
z
" id="CMR17-55"/>
      </defs>
      <g transform="translate(4.7688 32.935521)scale(0.1 -0.1)">
       <use transform="scale(0.996264)" xlink:href="#CMR17-48"/>
       <use transform="translate(45.690477 0)scale(0.996264)" xlink:href="#CMMI12-58"/>
       <use transform="translate(72.787654 0)scale(0.996264)" xlink:href="#CMR17-55"/>
      </g>
     </g>
    </g>
   </g>
   <g id="patch_3">
    <path d="M 26.6688 168.8544 
L 26.6688 2.0592 
" style="fill:none;stroke:#000000;stroke-linecap:square;stroke-linejoin:miter;stroke-width:0.8;"/>
   </g>
   <g id="patch_4">
    <path d="M 163.934682 168.8544 
L 163.934682 2.0592 
" style="fill:none;stroke:#000000;stroke-linecap:square;stroke-linejoin:miter;stroke-width:0.8;"/>
   </g>
   <g id="patch_5">
    <path d="M 26.6688 168.8544 
L 163.934682 168.8544 
" style="fill:none;stroke:#000000;stroke-linecap:square;stroke-linejoin:miter;stroke-width:0.8;"/>
   </g>
   <g id="patch_6">
    <path d="M 26.6688 2.0592 
L 163.934682 2.0592 
" style="fill:none;stroke:#000000;stroke-linecap:square;stroke-linejoin:miter;stroke-width:0.8;"/>
   </g>
   <g id="text_10">
    <!-- $V/t=-1.5$ -->
    <defs>
     <path d="M 61.90625 56.875 
C 65.296875 62.25 68.40625 64.625 73.5 65.03125 
C 74.5 65.125 75.296875 65.125 75.296875 66.90625 
C 75.296875 67.3125 75.09375 67.90625 74.203125 67.90625 
C 72.40625 67.90625 68.09375 67.90625 66.296875 67.90625 
C 63.40625 67.90625 60.40625 67.90625 57.59375 67.90625 
C 56.796875 67.90625 55.796875 67.90625 55.796875 66.03125 
C 55.796875 65.125 56.703125 65.03125 57.09375 65.03125 
C 60.796875 64.734375 61.203125 62.953125 61.203125 61.75 
C 61.203125 60.265625 59.796875 57.96875 59.703125 57.875 
L 28.296875 8.4375 
L 21.296875 62.015625 
C 21.296875 65 26.5 65 27.59375 65 
C 29.09375 65 30 65 30 66.90625 
C 30 67.90625 28.90625 67.90625 28.59375 67.90625 
C 26.90625 67.90625 24.90625 67.90625 23.203125 67.90625 
L 17.59375 67.90625 
C 10.296875 67.90625 7.296875 67.90625 7.203125 67.90625 
C 6.59375 67.90625 5.40625 67.90625 5.40625 66.09375 
C 5.40625 65 6.09375 65 7.703125 65 
C 12.796875 65 13.09375 64.09375 13.40625 61.625 
L 21.40625 0.375 
C 21.703125 -1.703125 21.703125 -2 23.09375 -2 
C 24.296875 -2 24.796875 -1.703125 25.796875 -0.125 
z
" id="CMMI12-86"/>
     <path d="M 20.09375 40.09375 
L 29.296875 40.09375 
C 31.203125 40.09375 32.203125 40.09375 32.203125 41.890625 
C 32.203125 43 31.59375 43 29.59375 43 
L 20.796875 43 
L 24.5 57.6875 
C 24.90625 59.078125 24.90625 59.28125 24.90625 60 
C 24.90625 61.609375 23.59375 62.5 22.296875 62.5 
C 21.5 62.5 19.203125 62.203125 18.40625 58.984375 
L 14.5 43 
L 5.09375 43 
C 3.09375 43 2.203125 43 2.203125 41.09375 
C 2.203125 40.09375 2.90625 40.09375 4.796875 40.09375 
L 13.703125 40.09375 
L 7.09375 13.765625 
C 6.296875 10.28125 6 9.28125 6 7.984375 
C 6 3.296875 9.296875 -1 14.90625 -1 
C 25 -1 30.40625 13.5625 30.40625 14.25 
C 30.40625 14.859375 30 15.15625 29.40625 15.15625 
C 29.203125 15.15625 28.796875 15.15625 28.59375 14.75 
C 28.5 14.65625 28.40625 14.546875 27.703125 12.953125 
C 25.59375 7.984375 21 1 15.203125 1 
C 12.203125 1 12 3.5 12 5.6875 
C 12 5.78125 12 7.6875 12.296875 8.875 
z
" id="CMMI12-116"/>
     <path d="M 65.90625 23 
C 67.59375 23 69.40625 23 69.40625 25 
C 69.40625 27 67.59375 27 65.90625 27 
L 11.796875 27 
C 10.09375 27 8.296875 27 8.296875 25 
C 8.296875 23 10.09375 23 11.796875 23 
z
" id="CMSY10-0"/>
    </defs>
    <g transform="translate(42.954376 22.4086)scale(0.12 -0.12)">
     <use transform="scale(0.996264)" xlink:href="#CMMI12-86"/>
     <use transform="translate(67.70845 0)scale(0.996264)" xlink:href="#CMMI12-61"/>
     <use transform="translate(116.483369 0)scale(0.996264)" xlink:href="#CMMI12-116"/>
     <use transform="translate(179.383708 0)scale(0.996264)" xlink:href="#CMR17-61"/>
     <use transform="translate(278.772505 0)scale(0.996264)" xlink:href="#CMSY10-0"/>
     <use transform="translate(356.259972 0)scale(0.996264)" xlink:href="#CMR17-49"/>
     <use transform="translate(401.950449 0)scale(0.996264)" xlink:href="#CMMI12-58"/>
     <use transform="translate(429.047627 0)scale(0.996264)" xlink:href="#CMR17-53"/>
    </g>
   </g>
   <g id="text_11">
    <!-- $\ell = L/2$ -->
    <g transform="translate(42.954376 39.08812)scale(0.12 -0.12)">
     <use transform="scale(0.996264)" xlink:href="#CMMI12-96"/>
     <use transform="translate(68.608228 0)scale(0.996264)" xlink:href="#CMR17-61"/>
     <use transform="translate(167.997025 0)scale(0.996264)" xlink:href="#CMMI12-76"/>
     <use transform="translate(234.367901 0)scale(0.996264)" xlink:href="#CMMI12-61"/>
     <use transform="translate(283.14282 0)scale(0.996264)" xlink:href="#CMR17-50"/>
    </g>
   </g>
   <g id="line2d_9">
    <defs>
     <path d="M 0 2.25 
C 0.596707 2.25 1.169055 2.012926 1.59099 1.59099 
C 2.012926 1.169055 2.25 0.596707 2.25 0 
C 2.25 -0.596707 2.012926 -1.169055 1.59099 -1.59099 
C 1.169055 -2.012926 0.596707 -2.25 0 -2.25 
C -0.596707 -2.25 -1.169055 -2.012926 -1.59099 -1.59099 
C -2.012926 -1.169055 -2.25 -0.596707 -2.25 0 
C -2.25 0.596707 -2.012926 1.169055 -1.59099 1.59099 
C -1.169055 2.012926 -0.596707 2.25 0 2.25 
z
" id="m5fd549d6fa" style="stroke:#4173b3;stroke-width:0.5;"/>
    </defs>
    <g clip-path="url(#pa0fc8939a4)">
     <use style="fill:#d8e2ef;stroke:#4173b3;stroke-width:0.5;" x="32.908158" xlink:href="#m5fd549d6fa" y="160.921049"/>
     <use style="fill:#d8e2ef;stroke:#4173b3;stroke-width:0.5;" x="55.073029" xlink:href="#m5fd549d6fa" y="130.384544"/>
     <use style="fill:#d8e2ef;stroke:#4173b3;stroke-width:0.5;" x="74.601321" xlink:href="#m5fd549d6fa" y="106.165198"/>
     <use style="fill:#d8e2ef;stroke:#4173b3;stroke-width:0.5;" x="91.594267" xlink:href="#m5fd549d6fa" y="86.110342"/>
     <use style="fill:#d8e2ef;stroke:#4173b3;stroke-width:0.5;" x="106.243686" xlink:href="#m5fd549d6fa" y="69.334351"/>
     <use style="fill:#d8e2ef;stroke:#4173b3;stroke-width:0.5;" x="118.90759" xlink:href="#m5fd549d6fa" y="55.285929"/>
     <use style="fill:#d8e2ef;stroke:#4173b3;stroke-width:0.5;" x="129.394651" xlink:href="#m5fd549d6fa" y="43.610161"/>
     <use style="fill:#d8e2ef;stroke:#4173b3;stroke-width:0.5;" x="138.191368" xlink:href="#m5fd549d6fa" y="34.053856"/>
     <use style="fill:#d8e2ef;stroke:#4173b3;stroke-width:0.5;" x="145.256876" xlink:href="#m5fd549d6fa" y="26.437813"/>
     <use style="fill:#d8e2ef;stroke:#4173b3;stroke-width:0.5;" x="150.356707" xlink:href="#m5fd549d6fa" y="20.631872"/>
     <use style="fill:#d8e2ef;stroke:#4173b3;stroke-width:0.5;" x="154.534078" xlink:href="#m5fd549d6fa" y="16.544978"/>
     <use style="fill:#d8e2ef;stroke:#4173b3;stroke-width:0.5;" x="157.123068" xlink:href="#m5fd549d6fa" y="14.115965"/>
     <use style="fill:#d8e2ef;stroke:#4173b3;stroke-width:0.5;" x="157.695324" xlink:href="#m5fd549d6fa" y="13.310157"/>
    </g>
   </g>
   <g id="line2d_10">
    <defs>
     <path d="M 0 1.5 
C 0.397805 1.5 0.77937 1.341951 1.06066 1.06066 
C 1.341951 0.77937 1.5 0.397805 1.5 0 
C 1.5 -0.397805 1.341951 -0.77937 1.06066 -1.06066 
C 0.77937 -1.341951 0.397805 -1.5 0 -1.5 
C -0.397805 -1.5 -0.77937 -1.341951 -1.06066 -1.06066 
C -1.341951 -0.77937 -1.5 -0.397805 -1.5 0 
C -1.5 0.397805 -1.341951 0.77937 -1.06066 1.06066 
C -0.77937 1.341951 -0.397805 1.5 0 1.5 
z
" id="mdb09fa9593" style="stroke:#ff8c00;stroke-width:0.5;"/>
    </defs>
    <g clip-path="url(#pa0fc8939a4)">
     <use style="fill:#fee7cb;stroke:#ff8c00;stroke-width:0.5;" x="32.908158" xlink:href="#mdb09fa9593" y="161.2728"/>
     <use style="fill:#fee7cb;stroke:#ff8c00;stroke-width:0.5;" x="55.073029" xlink:href="#mdb09fa9593" y="119.200717"/>
     <use style="fill:#fee7cb;stroke:#ff8c00;stroke-width:0.5;" x="74.601321" xlink:href="#mdb09fa9593" y="104.108334"/>
     <use style="fill:#fee7cb;stroke:#ff8c00;stroke-width:0.5;" x="91.594267" xlink:href="#mdb09fa9593" y="79.144447"/>
     <use style="fill:#fee7cb;stroke:#ff8c00;stroke-width:0.5;" x="106.243686" xlink:href="#mdb09fa9593" y="66.262174"/>
     <use style="fill:#fee7cb;stroke:#ff8c00;stroke-width:0.5;" x="118.90759" xlink:href="#mdb09fa9593" y="49.777507"/>
     <use style="fill:#fee7cb;stroke:#ff8c00;stroke-width:0.5;" x="129.394651" xlink:href="#mdb09fa9593" y="40.198342"/>
     <use style="fill:#fee7cb;stroke:#ff8c00;stroke-width:0.5;" x="138.191368" xlink:href="#mdb09fa9593" y="29.170432"/>
     <use style="fill:#fee7cb;stroke:#ff8c00;stroke-width:0.5;" x="145.256876" xlink:href="#mdb09fa9593" y="22.907296"/>
     <use style="fill:#fee7cb;stroke:#ff8c00;stroke-width:0.5;" x="150.356707" xlink:href="#mdb09fa9593" y="16.038455"/>
     <use style="fill:#fee7cb;stroke:#ff8c00;stroke-width:0.5;" x="154.534078" xlink:href="#mdb09fa9593" y="12.973214"/>
     <use style="fill:#fee7cb;stroke:#ff8c00;stroke-width:0.5;" x="157.123068" xlink:href="#mdb09fa9593" y="9.6408"/>
     <use style="fill:#fee7cb;stroke:#ff8c00;stroke-width:0.5;" x="157.695324" xlink:href="#mdb09fa9593" y="9.72832"/>
    </g>
   </g>
   <g id="line2d_11">
    <defs>
     <path d="M 0 1 
C 0.265203 1 0.51958 0.894634 0.707107 0.707107 
C 0.894634 0.51958 1 0.265203 1 0 
C 1 -0.265203 0.894634 -0.51958 0.707107 -0.707107 
C 0.51958 -0.894634 0.265203 -1 0 -1 
C -0.265203 -1 -0.51958 -0.894634 -0.707107 -0.707107 
C -0.894634 -0.51958 -1 -0.265203 -1 0 
C -1 0.265203 -0.894634 0.51958 -0.707107 0.707107 
C -0.51958 0.894634 -0.265203 1 0 1 
z
" id="m00a4aa974c" style="stroke:#000000;stroke-width:0.5;"/>
    </defs>
    <g clip-path="url(#pa0fc8939a4)">
     <use style="stroke:#000000;stroke-width:0.5;" x="32.908158" xlink:href="#m00a4aa974c" y="159.909765"/>
     <use style="stroke:#000000;stroke-width:0.5;" x="55.073029" xlink:href="#m00a4aa974c" y="129.979517"/>
     <use style="stroke:#000000;stroke-width:0.5;" x="74.601321" xlink:href="#m00a4aa974c" y="106.004902"/>
     <use style="stroke:#000000;stroke-width:0.5;" x="91.594267" xlink:href="#m00a4aa974c" y="85.995"/>
     <use style="stroke:#000000;stroke-width:0.5;" x="106.243686" xlink:href="#m00a4aa974c" y="69.252719"/>
     <use style="stroke:#000000;stroke-width:0.5;" x="118.90759" xlink:href="#m00a4aa974c" y="55.218017"/>
     <use style="stroke:#000000;stroke-width:0.5;" x="129.394651" xlink:href="#m00a4aa974c" y="43.55342"/>
     <use style="stroke:#000000;stroke-width:0.5;" x="138.191368" xlink:href="#m00a4aa974c" y="34.003136"/>
     <use style="stroke:#000000;stroke-width:0.5;" x="145.256876" xlink:href="#m00a4aa974c" y="26.391953"/>
     <use style="stroke:#000000;stroke-width:0.5;" x="150.356707" xlink:href="#m00a4aa974c" y="20.588777"/>
     <use style="stroke:#000000;stroke-width:0.5;" x="154.534078" xlink:href="#m00a4aa974c" y="16.504024"/>
     <use style="stroke:#000000;stroke-width:0.5;" x="157.123068" xlink:href="#m00a4aa974c" y="14.075943"/>
     <use style="stroke:#000000;stroke-width:0.5;" x="157.695324" xlink:href="#m00a4aa974c" y="13.270635"/>
    </g>
   </g>
  </g>
  <g id="axes_2">
   <g id="patch_7">
    <path d="M 169.425318 168.8544 
L 306.6912 168.8544 
L 306.6912 2.0592 
L 169.425318 2.0592 
z
" style="fill:#ffffff;"/>
   </g>
   <g id="matplotlib.axis_3">
    <g id="xtick_5">
     <g id="line2d_12">
      <g>
       <use style="stroke:#000000;stroke-width:0.8;" x="172.258723" xlink:href="#ma79ead6687" y="168.8544"/>
      </g>
     </g>
     <g id="text_12">
      <!-- $0.0$ -->
      <g transform="translate(164.258723 182.452838)scale(0.1 -0.1)">
       <use transform="scale(0.996264)" xlink:href="#CMR17-48"/>
       <use transform="translate(45.690477 0)scale(0.996264)" xlink:href="#CMMI12-58"/>
       <use transform="translate(72.787654 0)scale(0.996264)" xlink:href="#CMR17-48"/>
      </g>
     </g>
    </g>
    <g id="xtick_6">
     <g id="line2d_13">
      <g>
       <use style="stroke:#000000;stroke-width:0.8;" x="198.759368" xlink:href="#ma79ead6687" y="168.8544"/>
      </g>
     </g>
     <g id="text_13">
      <!-- $0.1$ -->
      <g transform="translate(190.759368 182.452838)scale(0.1 -0.1)">
       <use transform="scale(0.996264)" xlink:href="#CMR17-48"/>
       <use transform="translate(45.690477 0)scale(0.996264)" xlink:href="#CMMI12-58"/>
       <use transform="translate(72.787654 0)scale(0.996264)" xlink:href="#CMR17-49"/>
      </g>
     </g>
    </g>
    <g id="xtick_7">
     <g id="line2d_14">
      <g>
       <use style="stroke:#000000;stroke-width:0.8;" x="225.260014" xlink:href="#ma79ead6687" y="168.8544"/>
      </g>
     </g>
     <g id="text_14">
      <!-- $0.2$ -->
      <g transform="translate(217.310014 182.452838)scale(0.1 -0.1)">
       <use transform="scale(0.996264)" xlink:href="#CMR17-48"/>
       <use transform="translate(45.690477 0)scale(0.996264)" xlink:href="#CMMI12-58"/>
       <use transform="translate(72.787654 0)scale(0.996264)" xlink:href="#CMR17-50"/>
      </g>
     </g>
    </g>
    <g id="xtick_8">
     <g id="line2d_15">
      <g>
       <use style="stroke:#000000;stroke-width:0.8;" x="251.760659" xlink:href="#ma79ead6687" y="168.8544"/>
      </g>
     </g>
     <g id="text_15">
      <!-- $0.3$ -->
      <g transform="translate(243.760659 182.452838)scale(0.1 -0.1)">
       <use transform="scale(0.996264)" xlink:href="#CMR17-48"/>
       <use transform="translate(45.690477 0)scale(0.996264)" xlink:href="#CMMI12-58"/>
       <use transform="translate(72.787654 0)scale(0.996264)" xlink:href="#CMR17-51"/>
      </g>
     </g>
    </g>
    <g id="xtick_9">
     <g id="line2d_16">
      <g>
       <use style="stroke:#000000;stroke-width:0.8;" x="278.261305" xlink:href="#ma79ead6687" y="168.8544"/>
      </g>
     </g>
     <g id="text_16">
      <!-- $0.4$ -->
      <g transform="translate(270.261305 182.452838)scale(0.1 -0.1)">
       <use transform="scale(0.996264)" xlink:href="#CMR17-48"/>
       <use transform="translate(45.690477 0)scale(0.996264)" xlink:href="#CMMI12-58"/>
       <use transform="translate(72.787654 0)scale(0.996264)" xlink:href="#CMR17-52"/>
      </g>
     </g>
    </g>
    <g id="text_17">
     <!-- $\mathcal{F}[X(N),X(\ell=N)]$ -->
     <g transform="translate(189.938259 197.65065)scale(0.12 -0.12)">
      <use transform="scale(0.996264)" xlink:href="#CMSY10-70"/>
      <use transform="translate(81.49978 0)scale(0.996264)" xlink:href="#CMR17-91"/>
      <use transform="translate(106.370839 0)scale(0.996264)" xlink:href="#CMMI12-88"/>
      <use transform="translate(195.163401 0)scale(0.996264)" xlink:href="#CMR17-40"/>
      <use transform="translate(230.444169 0)scale(0.996264)" xlink:href="#CMMI12-78"/>
      <use transform="translate(318.965941 0)scale(0.996264)" xlink:href="#CMR17-41"/>
      <use transform="translate(354.246709 0)scale(0.996264)" xlink:href="#CMMI12-59"/>
      <use transform="translate(397.948291 0)scale(0.996264)" xlink:href="#CMMI12-88"/>
      <use transform="translate(486.740853 0)scale(0.996264)" xlink:href="#CMR17-40"/>
      <use transform="translate(522.021621 0)scale(0.996264)" xlink:href="#CMMI12-96"/>
      <use transform="translate(590.629849 0)scale(0.996264)" xlink:href="#CMR17-61"/>
      <use transform="translate(690.018647 0)scale(0.996264)" xlink:href="#CMMI12-78"/>
      <use transform="translate(778.540419 0)scale(0.996264)" xlink:href="#CMR17-41"/>
      <use transform="translate(813.821187 0)scale(0.996264)" xlink:href="#CMR17-93"/>
     </g>
    </g>
   </g>
   <g id="matplotlib.axis_4">
    <g id="ytick_5">
     <g id="line2d_17">
      <defs>
       <path d="M 0 0 
L -6 0 
" id="m02449f354a" style="stroke:#000000;stroke-width:0.8;"/>
      </defs>
      <g>
       <use style="stroke:#000000;stroke-width:0.8;" x="306.6912" xlink:href="#m02449f354a" y="166.947186"/>
      </g>
     </g>
     <g id="text_18">
      <!-- $0.1$ -->
      <g transform="translate(312.6912 170.746405)scale(0.1 -0.1)">
       <use transform="scale(0.996264)" xlink:href="#CMR17-48"/>
       <use transform="translate(45.690477 0)scale(0.996264)" xlink:href="#CMMI12-58"/>
       <use transform="translate(72.787654 0)scale(0.996264)" xlink:href="#CMR17-49"/>
      </g>
     </g>
    </g>
    <g id="ytick_6">
     <g id="line2d_18">
      <g>
       <use style="stroke:#000000;stroke-width:0.8;" x="306.6912" xlink:href="#m02449f354a" y="142.822212"/>
      </g>
     </g>
     <g id="text_19">
      <!-- $0.2$ -->
      <g transform="translate(312.6912 146.62143)scale(0.1 -0.1)">
       <use transform="scale(0.996264)" xlink:href="#CMR17-48"/>
       <use transform="translate(45.690477 0)scale(0.996264)" xlink:href="#CMMI12-58"/>
       <use transform="translate(72.787654 0)scale(0.996264)" xlink:href="#CMR17-50"/>
      </g>
     </g>
    </g>
    <g id="ytick_7">
     <g id="line2d_19">
      <g>
       <use style="stroke:#000000;stroke-width:0.8;" x="306.6912" xlink:href="#m02449f354a" y="118.697237"/>
      </g>
     </g>
     <g id="text_20">
      <!-- $0.3$ -->
      <g transform="translate(312.6912 122.496456)scale(0.1 -0.1)">
       <use transform="scale(0.996264)" xlink:href="#CMR17-48"/>
       <use transform="translate(45.690477 0)scale(0.996264)" xlink:href="#CMMI12-58"/>
       <use transform="translate(72.787654 0)scale(0.996264)" xlink:href="#CMR17-51"/>
      </g>
     </g>
    </g>
    <g id="ytick_8">
     <g id="line2d_20">
      <g>
       <use style="stroke:#000000;stroke-width:0.8;" x="306.6912" xlink:href="#m02449f354a" y="94.572262"/>
      </g>
     </g>
     <g id="text_21">
      <!-- $0.4$ -->
      <g transform="translate(312.6912 98.371481)scale(0.1 -0.1)">
       <use transform="scale(0.996264)" xlink:href="#CMR17-48"/>
       <use transform="translate(45.690477 0)scale(0.996264)" xlink:href="#CMMI12-58"/>
       <use transform="translate(72.787654 0)scale(0.996264)" xlink:href="#CMR17-52"/>
      </g>
     </g>
    </g>
    <g id="ytick_9">
     <g id="line2d_21">
      <g>
       <use style="stroke:#000000;stroke-width:0.8;" x="306.6912" xlink:href="#m02449f354a" y="70.447288"/>
      </g>
     </g>
     <g id="text_22">
      <!-- $0.5$ -->
      <g transform="translate(312.6912 74.246506)scale(0.1 -0.1)">
       <use transform="scale(0.996264)" xlink:href="#CMR17-48"/>
       <use transform="translate(45.690477 0)scale(0.996264)" xlink:href="#CMMI12-58"/>
       <use transform="translate(72.787654 0)scale(0.996264)" xlink:href="#CMR17-53"/>
      </g>
     </g>
    </g>
    <g id="ytick_10">
     <g id="line2d_22">
      <g>
       <use style="stroke:#000000;stroke-width:0.8;" x="306.6912" xlink:href="#m02449f354a" y="46.322313"/>
      </g>
     </g>
     <g id="text_23">
      <!-- $0.6$ -->
      <g transform="translate(312.6912 50.121532)scale(0.1 -0.1)">
       <use transform="scale(0.996264)" xlink:href="#CMR17-48"/>
       <use transform="translate(45.690477 0)scale(0.996264)" xlink:href="#CMMI12-58"/>
       <use transform="translate(72.787654 0)scale(0.996264)" xlink:href="#CMR17-54"/>
      </g>
     </g>
    </g>
    <g id="ytick_11">
     <g id="line2d_23">
      <g>
       <use style="stroke:#000000;stroke-width:0.8;" x="306.6912" xlink:href="#m02449f354a" y="22.197338"/>
      </g>
     </g>
     <g id="text_24">
      <!-- $0.7$ -->
      <g transform="translate(312.6912 25.996557)scale(0.1 -0.1)">
       <use transform="scale(0.996264)" xlink:href="#CMR17-48"/>
       <use transform="translate(45.690477 0)scale(0.996264)" xlink:href="#CMMI12-58"/>
       <use transform="translate(72.787654 0)scale(0.996264)" xlink:href="#CMR17-55"/>
      </g>
     </g>
    </g>
   </g>
   <g id="patch_8">
    <path d="M 169.425318 168.8544 
L 169.425318 2.0592 
" style="fill:none;stroke:#000000;stroke-linecap:square;stroke-linejoin:miter;stroke-width:0.8;"/>
   </g>
   <g id="patch_9">
    <path d="M 306.6912 168.8544 
L 306.6912 2.0592 
" style="fill:none;stroke:#000000;stroke-linecap:square;stroke-linejoin:miter;stroke-width:0.8;"/>
   </g>
   <g id="patch_10">
    <path d="M 169.425318 168.8544 
L 306.6912 168.8544 
" style="fill:none;stroke:#000000;stroke-linecap:square;stroke-linejoin:miter;stroke-width:0.8;"/>
   </g>
   <g id="patch_11">
    <path d="M 169.425318 2.0592 
L 306.6912 2.0592 
" style="fill:none;stroke:#000000;stroke-linecap:square;stroke-linejoin:miter;stroke-width:0.8;"/>
   </g>
   <g id="text_25">
    <!-- $V/t=-1.5$ -->
    <g transform="translate(188.456212 22.4086)scale(0.12 -0.12)">
     <use transform="scale(0.996264)" xlink:href="#CMMI12-86"/>
     <use transform="translate(67.70845 0)scale(0.996264)" xlink:href="#CMMI12-61"/>
     <use transform="translate(116.483369 0)scale(0.996264)" xlink:href="#CMMI12-116"/>
     <use transform="translate(179.383708 0)scale(0.996264)" xlink:href="#CMR17-61"/>
     <use transform="translate(278.772505 0)scale(0.996264)" xlink:href="#CMSY10-0"/>
     <use transform="translate(356.259972 0)scale(0.996264)" xlink:href="#CMR17-49"/>
     <use transform="translate(401.950449 0)scale(0.996264)" xlink:href="#CMMI12-58"/>
     <use transform="translate(429.047627 0)scale(0.996264)" xlink:href="#CMR17-53"/>
    </g>
   </g>
   <g id="text_26">
    <!-- $\ell = N$ -->
    <g transform="translate(188.456212 39.08812)scale(0.12 -0.12)">
     <use transform="scale(0.996264)" xlink:href="#CMMI12-96"/>
     <use transform="translate(68.608228 0)scale(0.996264)" xlink:href="#CMR17-61"/>
     <use transform="translate(167.997025 0)scale(0.996264)" xlink:href="#CMMI12-78"/>
    </g>
   </g>
   <g id="legend_1">
    <g id="line2d_24"/>
    <g id="line2d_25">
     <g>
      <use style="fill:#d8e2ef;stroke:#4173b3;stroke-width:0.5;" x="235.131671" xlink:href="#m5fd549d6fa" y="107.441409"/>
     </g>
    </g>
    <g id="text_27">
     <!-- $\mathcal{B}_{1}{\rm{e}}^{2\Delta S_{1}}$ -->
     <defs>
      <path d="M 28 68.453125 
C 28.203125 69.53125 28.203125 69.71875 28.203125 70.015625 
C 28.203125 70.703125 28 71 27.09375 71 
C 26 71 23 69.5625 21 68.609375 
C 16.40625 66.421875 12.59375 64.59375 12.59375 62.875 
C 12.59375 62.265625 13.296875 62.265625 13.703125 62.265625 
C 14.90625 62.265625 17.5 63.671875 19.40625 64.59375 
C 18.203125 54.6875 15.796875 41.75 14 33.0625 
C 10.296875 15.890625 8.40625 9.734375 3.5 -0.078125 
C 3 -0.984375 3 -1.1875 3 -1.296875 
C 3 -2 3.796875 -2 4 -2 
C 5.59375 -2 9.796875 -0.1875 11.40625 2.65625 
C 12.703125 4.984375 16.5 12.359375 19.5 24.0625 
C 21.703125 32.765625 25.5 46 32.59375 56.40625 
C 37.203125 62.96875 41.40625 66 47.703125 66 
C 53.09375 66 58 62.453125 58 57.09375 
C 58 48.203125 48.5 44.96875 38.09375 41.421875 
C 36.90625 41.03125 30 38.59375 30 36.0625 
C 30 35.46875 30.703125 35.359375 31 35.359375 
C 31.40625 35.359375 33.703125 35.765625 35.796875 35.765625 
C 45.90625 35.765625 54.09375 29.703125 54.09375 20.09375 
C 54.09375 7.546875 43.5 3.5 34.40625 3.5 
C 26.703125 3.5 23 7.75 21.703125 9.171875 
C 21.296875 9.6875 21.203125 9.875 20.40625 9.875 
C 18.203125 9.875 13.09375 6.734375 13.09375 4.921875 
C 13.09375 4.625 17 -2 27.796875 -2 
C 41.90625 -2 62.59375 8.09375 62.59375 24.359375 
C 62.59375 32.84375 57 39.203125 46.796875 41.125 
C 54.796875 44.5 66.5 51.640625 66.5 60.984375 
C 66.5 66.734375 61.703125 71 54.296875 71 
C 50.90625 71 38.09375 71 26 55.484375 
z
" id="CMSY10-66"/>
      <path d="M 38.09375 23 
C 38.5 23.40625 38.5 23.609375 38.5 24.625 
C 38.5 34.96875 33.09375 44 21.703125 44 
C 11.09375 44 2.703125 33.890625 2.703125 21.609375 
C 2.703125 8.609375 12.203125 -1 22.796875 -1 
C 34 -1 38.40625 9.484375 38.40625 11.5625 
C 38.40625 12.25 37.796875 12.25 37.59375 12.25 
C 36.90625 12.25 36.796875 12.046875 36.40625 10.875 
C 34.203125 4.140625 28.703125 0.796875 23.5 0.796875 
C 19.203125 0.796875 14.90625 3.171875 12.203125 7.5 
C 9.09375 12.546875 9.09375 18.375 9.09375 23 
z
M 9.203125 24.5 
C 9.90625 39.140625 17.59375 42.40625 21.59375 42.40625 
C 28.40625 42.40625 33 35.890625 33.09375 24.5 
z
" id="CMR17-101"/>
      <path d="M 40.59375 68.796875 
C 39.796875 70.5 39.40625 70.5 38.59375 70.5 
C 37.40625 70.5 37.296875 70.296875 36.59375 68.890625 
L 4.203125 1.703125 
C 4.09375 1.5 3.703125 0.59375 3.703125 0.5 
C 3.703125 0.09375 3.796875 0 5.59375 0 
L 71.5 0 
C 73.296875 0 73.40625 0.09375 73.40625 0.5 
C 73.40625 0.59375 73 1.5 72.90625 1.703125 
z
M 36.09375 63.09375 
L 63.796875 5.59375 
L 8.296875 5.59375 
z
" id="CMR17-1"/>
      <path d="M 63.5 69.109375 
C 63.5 70 62.796875 70 62.59375 70 
C 62.203125 70 62.09375 69.90625 60.90625 68.40625 
C 60.296875 67.703125 56.203125 62.515625 56.09375 62.421875 
C 52.796875 68.90625 46.203125 70 42 70 
C 29.296875 70 17.796875 58.484375 17.796875 47.265625 
C 17.796875 39.828125 22.296875 35.453125 27.203125 33.765625 
C 28.296875 33.359375 34.203125 31.765625 37.203125 31.078125 
C 42.296875 29.6875 43.59375 29.296875 45.703125 27.109375 
C 46.09375 26.609375 48.09375 24.328125 48.09375 19.65625 
C 48.09375 10.421875 39.5 0.890625 29.5 0.890625 
C 21.296875 0.890625 12.203125 4.375 12.203125 15.484375 
C 12.203125 17.375 12.59375 19.765625 12.90625 20.75 
C 12.90625 21.0625 13 21.53125 13 21.734375 
C 13 22.140625 12.796875 22.640625 12 22.640625 
C 11.09375 22.640625 11 22.4375 10.59375 20.75 
L 5.5 0.375 
C 5.5 0.28125 5.09375 -1 5.09375 -1.109375 
C 5.09375 -2 5.90625 -2 6.09375 -2 
C 6.5 -2 6.59375 -1.90625 7.796875 -0.40625 
L 12.40625 5.5625 
C 14.796875 1.96875 20 -2 29.296875 -2 
C 42.203125 -2 54 10.40625 54 22.8125 
C 54 27 53 30.671875 49.203125 34.328125 
C 47.09375 36.421875 45.296875 36.921875 36.09375 39.3125 
C 29.40625 41.09375 28.5 41.390625 26.703125 42.984375 
C 25 44.65625 23.703125 47.046875 23.703125 50.421875 
C 23.703125 58.765625 32.203125 67.3125 41.703125 67.3125 
C 51.5 67.3125 56.09375 61.34375 56.09375 51.921875 
C 56.09375 49.34375 55.59375 46.65625 55.59375 46.265625 
C 55.59375 45.359375 56.40625 45.359375 56.703125 45.359375 
C 57.59375 45.359375 57.703125 45.65625 58.09375 47.25 
z
" id="CMMI12-83"/>
     </defs>
     <g transform="translate(250.731671 111.641409)scale(0.12 -0.12)">
      <use transform="translate(0 14.943915)scale(0.996264)" xlink:href="#CMSY10-66"/>
      <use transform="translate(65.435586 0)scale(0.697382)" xlink:href="#CMR17-49"/>
      <use transform="translate(97.9169 14.943915)scale(0.996264)" xlink:href="#CMR17-101"/>
      <use transform="translate(138.40256 51.097553)scale(0.697382)" xlink:href="#CMR17-50"/>
      <use transform="translate(170.385742 51.097553)scale(0.697382)" xlink:href="#CMR17-1"/>
      <use transform="translate(224.229209 51.097553)scale(0.697382)" xlink:href="#CMMI12-83"/>
      <use transform="translate(266.225166 40.636857)scale(0.498132)" xlink:href="#CMR17-49"/>
     </g>
    </g>
    <g id="line2d_26"/>
    <g id="line2d_27">
     <g>
      <use style="fill:#fee7cb;stroke:#ff8c00;stroke-width:0.5;" x="235.131671" xlink:href="#mdb09fa9593" y="126.401409"/>
     </g>
    </g>
    <g id="text_28">
     <!-- $\mathcal{B}_{2}{\rm{e}}^{2\Delta S_{2}}$ -->
     <g transform="translate(250.731671 130.601409)scale(0.12 -0.12)">
      <use transform="translate(0 14.943915)scale(0.996264)" xlink:href="#CMSY10-66"/>
      <use transform="translate(65.435586 0)scale(0.697382)" xlink:href="#CMR17-50"/>
      <use transform="translate(97.9169 14.943915)scale(0.996264)" xlink:href="#CMR17-101"/>
      <use transform="translate(138.40256 51.097553)scale(0.697382)" xlink:href="#CMR17-50"/>
      <use transform="translate(170.385742 51.097553)scale(0.697382)" xlink:href="#CMR17-1"/>
      <use transform="translate(224.229209 51.097553)scale(0.697382)" xlink:href="#CMMI12-83"/>
      <use transform="translate(266.225166 40.636857)scale(0.498132)" xlink:href="#CMR17-50"/>
     </g>
    </g>
    <g id="line2d_28"/>
    <g id="line2d_29">
     <g>
      <use style="stroke:#000000;stroke-width:0.5;" x="235.131671" xlink:href="#m00a4aa974c" y="144.015159"/>
     </g>
    </g>
    <g id="text_29">
     <!-- $ \sigma^2$ -->
     <defs>
      <path d="M 50.796875 37.625 
C 52.09375 37.625 55.40625 37.625 55.40625 40.8125 
C 55.40625 43 53.5 43 51.703125 43 
L 29.59375 43 
C 14.59375 43 3.796875 26.34375 3.796875 14.5625 
C 3.796875 6.09375 9.296875 -1 18.296875 -1 
C 30.09375 -1 43 11.671875 43 26.640625 
C 43 30.53125 42.09375 34.3125 39.703125 37.625 
z
M 18.40625 1 
C 13.296875 1 9.59375 4.890625 9.59375 11.78125 
C 9.59375 17.765625 13.203125 37.625 27.90625 37.625 
C 32.203125 37.625 37 35.53125 37 27.828125 
C 37 24.34375 35.40625 15.953125 31.90625 10.1875 
C 28.296875 4.296875 22.90625 1 18.40625 1 
z
" id="CMMI12-27"/>
     </defs>
     <g transform="translate(250.731671 148.215159)scale(0.12 -0.12)">
      <use transform="scale(0.996264)" xlink:href="#CMMI12-27"/>
      <use transform="translate(59.020054 36.153639)scale(0.697382)" xlink:href="#CMR17-50"/>
     </g>
    </g>
   </g>
   <g id="line2d_30">
    <g clip-path="url(#pf816782110)">
     <use style="fill:#d8e2ef;stroke:#4173b3;stroke-width:0.5;" x="175.664676" xlink:href="#m5fd549d6fa" y="158.828611"/>
     <use style="fill:#d8e2ef;stroke:#4173b3;stroke-width:0.5;" x="186.30598" xlink:href="#m5fd549d6fa" y="138.225761"/>
     <use style="fill:#d8e2ef;stroke:#4173b3;stroke-width:0.5;" x="202.798997" xlink:href="#m5fd549d6fa" y="113.698009"/>
     <use style="fill:#d8e2ef;stroke:#4173b3;stroke-width:0.5;" x="220.632574" xlink:href="#m5fd549d6fa" y="90.654771"/>
     <use style="fill:#d8e2ef;stroke:#4173b3;stroke-width:0.5;" x="237.415605" xlink:href="#m5fd549d6fa" y="71.681295"/>
     <use style="fill:#d8e2ef;stroke:#4173b3;stroke-width:0.5;" x="252.444768" xlink:href="#m5fd549d6fa" y="56.46462"/>
     <use style="fill:#d8e2ef;stroke:#4173b3;stroke-width:0.5;" x="265.279247" xlink:href="#m5fd549d6fa" y="44.083064"/>
     <use style="fill:#d8e2ef;stroke:#4173b3;stroke-width:0.5;" x="276.122196" xlink:href="#m5fd549d6fa" y="33.985834"/>
     <use style="fill:#d8e2ef;stroke:#4173b3;stroke-width:0.5;" x="284.910727" xlink:href="#m5fd549d6fa" y="25.923011"/>
     <use style="fill:#d8e2ef;stroke:#4173b3;stroke-width:0.5;" x="291.448631" xlink:href="#m5fd549d6fa" y="19.759064"/>
     <use style="fill:#d8e2ef;stroke:#4173b3;stroke-width:0.5;" x="296.525943" xlink:href="#m5fd549d6fa" y="15.408744"/>
     <use style="fill:#d8e2ef;stroke:#4173b3;stroke-width:0.5;" x="299.64037" xlink:href="#m5fd549d6fa" y="12.818407"/>
     <use style="fill:#d8e2ef;stroke:#4173b3;stroke-width:0.5;" x="300.451842" xlink:href="#m5fd549d6fa" y="11.95817"/>
    </g>
   </g>
   <g id="line2d_31">
    <g clip-path="url(#pf816782110)">
     <use style="fill:#fee7cb;stroke:#ff8c00;stroke-width:0.5;" x="175.664676" xlink:href="#mdb09fa9593" y="157.475767"/>
     <use style="fill:#fee7cb;stroke:#ff8c00;stroke-width:0.5;" x="186.30598" xlink:href="#mdb09fa9593" y="131.070717"/>
     <use style="fill:#fee7cb;stroke:#ff8c00;stroke-width:0.5;" x="202.798997" xlink:href="#mdb09fa9593" y="99.117001"/>
     <use style="fill:#fee7cb;stroke:#ff8c00;stroke-width:0.5;" x="220.632574" xlink:href="#mdb09fa9593" y="84.854837"/>
     <use style="fill:#fee7cb;stroke:#ff8c00;stroke-width:0.5;" x="237.415605" xlink:href="#mdb09fa9593" y="67.869681"/>
     <use style="fill:#fee7cb;stroke:#ff8c00;stroke-width:0.5;" x="252.444768" xlink:href="#mdb09fa9593" y="52.702484"/>
     <use style="fill:#fee7cb;stroke:#ff8c00;stroke-width:0.5;" x="265.279247" xlink:href="#mdb09fa9593" y="41.12158"/>
     <use style="fill:#fee7cb;stroke:#ff8c00;stroke-width:0.5;" x="276.122196" xlink:href="#mdb09fa9593" y="31.584776"/>
     <use style="fill:#fee7cb;stroke:#ff8c00;stroke-width:0.5;" x="284.910727" xlink:href="#mdb09fa9593" y="22.785615"/>
     <use style="fill:#fee7cb;stroke:#ff8c00;stroke-width:0.5;" x="291.448631" xlink:href="#mdb09fa9593" y="16.963412"/>
     <use style="fill:#fee7cb;stroke:#ff8c00;stroke-width:0.5;" x="296.525943" xlink:href="#mdb09fa9593" y="12.991981"/>
     <use style="fill:#fee7cb;stroke:#ff8c00;stroke-width:0.5;" x="299.64037" xlink:href="#mdb09fa9593" y="10.497745"/>
     <use style="fill:#fee7cb;stroke:#ff8c00;stroke-width:0.5;" x="300.451842" xlink:href="#mdb09fa9593" y="9.6408"/>
    </g>
   </g>
   <g id="line2d_32">
    <g clip-path="url(#pf816782110)">
     <use style="stroke:#000000;stroke-width:0.5;" x="175.664676" xlink:href="#m00a4aa974c" y="161.2728"/>
     <use style="stroke:#000000;stroke-width:0.5;" x="186.30598" xlink:href="#m00a4aa974c" y="134.481586"/>
     <use style="stroke:#000000;stroke-width:0.5;" x="202.798997" xlink:href="#m00a4aa974c" y="109.358053"/>
     <use style="stroke:#000000;stroke-width:0.5;" x="220.632574" xlink:href="#m00a4aa974c" y="88.363046"/>
     <use style="stroke:#000000;stroke-width:0.5;" x="237.415605" xlink:href="#m00a4aa974c" y="70.867148"/>
     <use style="stroke:#000000;stroke-width:0.5;" x="252.444768" xlink:href="#m00a4aa974c" y="56.192736"/>
     <use style="stroke:#000000;stroke-width:0.5;" x="265.279247" xlink:href="#m00a4aa974c" y="43.970545"/>
     <use style="stroke:#000000;stroke-width:0.5;" x="276.122196" xlink:href="#m00a4aa974c" y="33.924081"/>
     <use style="stroke:#000000;stroke-width:0.5;" x="284.910727" xlink:href="#m00a4aa974c" y="25.881709"/>
     <use style="stroke:#000000;stroke-width:0.5;" x="291.448631" xlink:href="#m00a4aa974c" y="19.727093"/>
     <use style="stroke:#000000;stroke-width:0.5;" x="296.525943" xlink:href="#m00a4aa974c" y="15.380967"/>
     <use style="stroke:#000000;stroke-width:0.5;" x="299.64037" xlink:href="#m00a4aa974c" y="12.792368"/>
     <use style="stroke:#000000;stroke-width:0.5;" x="300.451842" xlink:href="#m00a4aa974c" y="11.9326"/>
    </g>
   </g>
  </g>
 </g>
 <defs>
  <clipPath id="pa0fc8939a4">
   <rect height="166.7952" width="137.265882" x="26.6688" y="2.0592"/>
  </clipPath>
  <clipPath id="pf816782110">
   <rect height="166.7952" width="137.265882" x="169.425318" y="2.0592"/>
  </clipPath>
 </defs>
</svg>
