<?xml version="1.0" encoding="utf-8" standalone="no"?>
<!DOCTYPE svg PUBLIC "-//W3C//DTD SVG 1.1//EN"
  "http://www.w3.org/Graphics/SVG/1.1/DTD/svg11.dtd">
<!-- Created with matplotlib (http://matplotlib.org/) -->
<svg height="354pt" version="1.1" viewBox="0 0 316 354" width="316pt" xmlns="http://www.w3.org/2000/svg" xmlns:xlink="http://www.w3.org/1999/xlink">
 <defs>
  <style type="text/css">
*{stroke-linecap:butt;stroke-linejoin:round;}
  </style>
 </defs>
 <g id="figure_1">
  <g id="patch_1">
   <path d="M 0 354.145198 
L 316.931484 354.145198 
L 316.931484 0 
L 0 0 
z
" style="fill:none;"/>
  </g>
  <g id="axes_1">
   <g id="patch_2">
    <path d="M 54.83073 151.257091 
L 313.331484 151.257091 
L 313.331484 3.6 
L 54.83073 3.6 
z
" style="fill:none;"/>
   </g>
   <g id="matplotlib.axis_1">
    <g id="xtick_1">
     <g id="line2d_1">
      <defs>
       <path d="M 0 0 
L 0 -6 
" id="m8b633dbbc8" style="stroke:#000000;stroke-width:0.8;"/>
      </defs>
      <g>
       <use style="stroke:#000000;stroke-width:0.8;" x="66.580764" xlink:href="#m8b633dbbc8" y="151.257091"/>
      </g>
     </g>
     <g id="text_1">
      <!-- $0$ -->
      <defs>
       <path d="M 42 31.640625 
C 42 37.75 41.90625 48.125 37.703125 56.109375 
C 34 63.109375 28.09375 65.59375 22.90625 65.59375 
C 18.09375 65.59375 12 63.40625 8.203125 56.203125 
C 4.203125 48.71875 3.796875 39.4375 3.796875 31.640625 
C 3.796875 25.953125 3.90625 17.28125 7 9.671875 
C 11.296875 -0.609375 19 -2 22.90625 -2 
C 27.5 -2 34.5 -0.109375 38.59375 9.375 
C 41.59375 16.28125 42 24.359375 42 31.640625 
z
M 22.90625 -0.40625 
C 16.5 -0.40625 12.703125 5.078125 11.296875 12.6875 
C 10.203125 18.5625 10.203125 27.15625 10.203125 32.75 
C 10.203125 40.4375 10.203125 46.828125 11.5 52.921875 
C 13.40625 61.390625 19 64 22.90625 64 
C 27 64 32.296875 61.296875 34.203125 53.125 
C 35.5 47.4375 35.59375 40.734375 35.59375 32.75 
C 35.59375 26.25 35.59375 18.265625 34.40625 12.375 
C 32.296875 1.484375 26.40625 -0.40625 22.90625 -0.40625 
z
" id="CMR17-48"/>
      </defs>
      <g transform="translate(64.090097 164.175589)scale(0.1 -0.1)">
       <use transform="scale(0.996264)" xlink:href="#CMR17-48"/>
      </g>
     </g>
    </g>
    <g id="xtick_2">
     <g id="line2d_2">
      <g>
       <use style="stroke:#000000;stroke-width:0.8;" x="113.580902" xlink:href="#m8b633dbbc8" y="151.257091"/>
      </g>
     </g>
     <g id="text_2">
      <!-- $3$ -->
      <defs>
       <path d="M 22.09375 33.703125 
C 31 33.703125 34.90625 25.96875 34.90625 17.03125 
C 34.90625 5 28.5 0.390625 22.703125 0.390625 
C 17.40625 0.390625 8.796875 3.03125 6.09375 10.828125 
C 6.59375 10.625 7.09375 10.625 7.59375 10.625 
C 10 10.625 11.796875 12.21875 11.796875 14.8125 
C 11.796875 17.703125 9.59375 19 7.59375 19 
C 5.90625 19 3.296875 18.203125 3.296875 14.46875 
C 3.296875 5.234375 12.296875 -2 22.90625 -2 
C 34 -2 42.5 6.71875 42.5 16.953125 
C 42.5 26.671875 34.5 33.703125 25 34.796875 
C 32.59375 36.375 39.90625 43.0625 39.90625 52.015625 
C 39.90625 59.6875 32 65.296875 23 65.296875 
C 13.90625 65.296875 5.90625 59.828125 5.90625 52.015625 
C 5.90625 48.59375 8.5 48 9.796875 48 
C 11.90625 48 13.703125 49.296875 13.703125 51.890625 
C 13.703125 54.46875 11.90625 55.765625 9.796875 55.765625 
C 9.40625 55.765625 8.90625 55.765625 8.5 55.578125 
C 11.40625 61.859375 19.296875 63 22.796875 63 
C 26.296875 63 32.90625 61.328125 32.90625 51.875 
C 32.90625 49.109375 32.5 44.1875 29.09375 39.84375 
C 26.09375 36 22.703125 36 19.40625 35.6875 
C 18.90625 35.6875 16.59375 35.453125 16.203125 35.453125 
C 15.5 35.359375 15.09375 35.265625 15.09375 34.5 
C 15.09375 33.796875 15.203125 33.703125 17.203125 33.703125 
z
" id="CMR17-51"/>
      </defs>
      <g transform="translate(111.090234 164.175589)scale(0.1 -0.1)">
       <use transform="scale(0.996264)" xlink:href="#CMR17-51"/>
      </g>
     </g>
    </g>
    <g id="xtick_3">
     <g id="line2d_3">
      <g>
       <use style="stroke:#000000;stroke-width:0.8;" x="160.581039" xlink:href="#m8b633dbbc8" y="151.257091"/>
      </g>
     </g>
     <g id="text_3">
      <!-- $6$ -->
      <defs>
       <path d="M 10.59375 34 
C 10.59375 57.65625 21.796875 63 28.296875 63 
C 30.40625 63 35.5 62.640625 37.5 59 
C 35.90625 59 32.90625 59 32.90625 55.515625 
C 32.90625 52.828125 35.09375 51.921875 36.5 51.921875 
C 37.40625 51.921875 40.09375 52.3125 40.09375 55.625 
C 40.09375 61.78125 35.09375 65.296875 28.203125 65.296875 
C 16.296875 65.296875 3.796875 52.96875 3.796875 31 
C 3.796875 3.953125 15.09375 -2 23.09375 -2 
C 32.796875 -2 42 6.671875 42 20.046875 
C 42 32.515625 33.90625 41.59375 23.703125 41.59375 
C 17.59375 41.59375 13.09375 37.609375 10.59375 30.625 
z
M 23.09375 0.390625 
C 10.796875 0.390625 10.796875 18.75 10.796875 22.4375 
C 10.796875 29.625 14.203125 40 23.5 40 
C 25.203125 40 30.09375 40 33.40625 33.125 
C 35.203125 29.21875 35.203125 25.140625 35.203125 20.140625 
C 35.203125 14.75 35.203125 10.78125 33.09375 6.78125 
C 30.90625 2.671875 27.703125 0.390625 23.09375 0.390625 
z
" id="CMR17-54"/>
      </defs>
      <g transform="translate(158.090371 164.175589)scale(0.1 -0.1)">
       <use transform="scale(0.996264)" xlink:href="#CMR17-54"/>
      </g>
     </g>
    </g>
    <g id="xtick_4">
     <g id="line2d_4">
      <g>
       <use style="stroke:#000000;stroke-width:0.8;" x="207.581176" xlink:href="#m8b633dbbc8" y="151.257091"/>
      </g>
     </g>
     <g id="text_4">
      <!-- $9$ -->
      <defs>
       <path d="M 35.203125 29.125 
C 35.203125 7.25 26.09375 0.484375 18.59375 0.484375 
C 16.296875 0.484375 10.703125 0.484375 8.40625 4.59375 
C 11 4.1875 12.90625 5.578125 12.90625 8.09375 
C 12.90625 10.8125 10.703125 11.703125 9.296875 11.703125 
C 8.40625 11.703125 5.703125 11.296875 5.703125 7.90625 
C 5.703125 1.109375 11.59375 -2 18.796875 -2 
C 30.296875 -2 42 10.53125 42 32.390625 
C 42 59.640625 30.796875 65.296875 23.203125 65.296875 
C 13.296875 65.296875 3.796875 56.6875 3.796875 43.40625 
C 3.796875 31.109375 11.90625 22 22.09375 22 
C 30.5 22 34.203125 29.734375 35.203125 33 
z
M 22.296875 23.59375 
C 19.59375 23.59375 15.796875 24.09375 12.703125 30.03125 
C 10.59375 33.890625 10.59375 38.453125 10.59375 43.296875 
C 10.59375 49.15625 10.59375 53.203125 13.40625 57.5625 
C 14.796875 59.640625 17.40625 63 23.203125 63 
C 35 63 35 45.078125 35 41.125 
C 35 34.09375 31.796875 23.59375 22.296875 23.59375 
z
" id="CMR17-57"/>
      </defs>
      <g transform="translate(205.090508 164.175589)scale(0.1 -0.1)">
       <use transform="scale(0.996264)" xlink:href="#CMR17-57"/>
      </g>
     </g>
    </g>
    <g id="xtick_5">
     <g id="line2d_5">
      <g>
       <use style="stroke:#000000;stroke-width:0.8;" x="254.581313" xlink:href="#m8b633dbbc8" y="151.257091"/>
      </g>
     </g>
     <g id="text_5">
      <!-- $12$ -->
      <defs>
       <path d="M 26.59375 63.40625 
C 26.59375 65.5 26.5 65.5 25.09375 65.5 
C 21.203125 61.1875 15.296875 59.796875 9.703125 59.796875 
C 9.40625 59.796875 8.90625 59.796875 8.796875 59.5 
C 8.703125 59.296875 8.703125 59.09375 8.703125 57 
C 11.796875 57 17 57.59375 21 59.984375 
L 21 7.203125 
C 21 3.6875 20.796875 2.5 12.203125 2.5 
L 9.203125 2.5 
L 9.203125 0 
C 14 0 19 0 23.796875 0 
C 28.59375 0 33.59375 0 38.40625 0 
L 38.40625 2.5 
L 35.40625 2.5 
C 26.796875 2.5 26.59375 3.59375 26.59375 7.15625 
z
" id="CMR17-49"/>
       <path d="M 41.703125 15.453125 
L 39.90625 15.453125 
C 38.90625 8.375 38.09375 7.171875 37.703125 6.5625 
C 37.203125 5.765625 30 5.765625 28.59375 5.765625 
L 9.40625 5.765625 
C 13 9.671875 20 16.75 28.5 24.953125 
C 34.59375 30.734375 41.703125 37.53125 41.703125 47.421875 
C 41.703125 59.21875 32.296875 66 21.796875 66 
C 10.796875 66 4.09375 56.3125 4.09375 47.34375 
C 4.09375 43.4375 7 42.9375 8.203125 42.9375 
C 9.203125 42.9375 12.203125 43.546875 12.203125 47.03125 
C 12.203125 50.109375 9.59375 51 8.203125 51 
C 7.59375 51 7 50.90625 6.59375 50.703125 
C 8.5 59.21875 14.296875 63.40625 20.40625 63.40625 
C 29.09375 63.40625 34.796875 56.515625 34.796875 47.421875 
C 34.796875 38.734375 29.703125 31.25 24 24.75 
L 4.09375 2.28125 
L 4.09375 0 
L 39.296875 0 
z
" id="CMR17-50"/>
      </defs>
      <g transform="translate(249.599978 164.175589)scale(0.1 -0.1)">
       <use transform="scale(0.996264)" xlink:href="#CMR17-49"/>
       <use transform="translate(45.690477 0)scale(0.996264)" xlink:href="#CMR17-50"/>
      </g>
     </g>
    </g>
    <g id="xtick_6">
     <g id="line2d_6">
      <g>
       <use style="stroke:#000000;stroke-width:0.8;" x="301.58145" xlink:href="#m8b633dbbc8" y="151.257091"/>
      </g>
     </g>
     <g id="text_6">
      <!-- $15$ -->
      <defs>
       <path d="M 11.40625 57.6875 
C 12.40625 57.28125 16.5 56 20.703125 56 
C 30 56 35.09375 61.109375 38 64.0625 
C 38 64.953125 38 65.5 37.40625 65.5 
C 37.296875 65.5 37.09375 65.5 36.296875 65.046875 
C 32.796875 63.40625 28.703125 62.078125 23.703125 62.078125 
C 20.703125 62.078125 16.203125 62.484375 11.296875 64.671875 
C 10.203125 65.171875 10 65.171875 9.90625 65.171875 
C 9.40625 65.171875 9.296875 65.0625 9.296875 63.078125 
L 9.296875 34.421875 
C 9.296875 32.640625 9.296875 32.140625 10.296875 32.140625 
C 10.796875 32.140625 11 32.34375 11.5 33.03125 
C 14.703125 37.515625 19.09375 39.40625 24.09375 39.40625 
C 27.59375 39.40625 35.09375 37.21875 35.09375 20.140625 
C 35.09375 16.953125 35.09375 11.171875 32.09375 6.578125 
C 29.59375 2.484375 25.703125 0.390625 21.40625 0.390625 
C 14.796875 0.390625 8.09375 5 6.296875 12.71875 
C 6.703125 12.609375 7.5 12.421875 7.90625 12.421875 
C 9.203125 12.421875 11.703125 13.125 11.703125 16.21875 
C 11.703125 18.90625 9.796875 20 7.90625 20 
C 5.59375 20 4.09375 18.59375 4.09375 15.796875 
C 4.09375 7.09375 11 -2 21.59375 -2 
C 31.90625 -2 41.703125 6.875 41.703125 19.75 
C 41.703125 31.71875 33.90625 41 24.203125 41 
C 19.09375 41 14.796875 39.109375 11.40625 35.53125 
z
" id="CMR17-53"/>
      </defs>
      <g transform="translate(296.600115 164.175589)scale(0.1 -0.1)">
       <use transform="scale(0.996264)" xlink:href="#CMR17-49"/>
       <use transform="translate(45.690477 0)scale(0.996264)" xlink:href="#CMR17-53"/>
      </g>
     </g>
    </g>
   </g>
   <g id="matplotlib.axis_2">
    <g id="ytick_1">
     <g id="line2d_7">
      <defs>
       <path d="M 0 0 
L 6 0 
" id="me39ff8c632" style="stroke:#000000;stroke-width:0.8;"/>
      </defs>
      <g>
       <use style="stroke:#000000;stroke-width:0.8;" x="54.83073" xlink:href="#me39ff8c632" y="9.885547"/>
      </g>
     </g>
     <g id="text_7">
      <!-- $10^{0}$ -->
      <g transform="translate(34.896822 13.344796)scale(0.1 -0.1)">
       <use transform="scale(0.996264)" xlink:href="#CMR17-49"/>
       <use transform="translate(45.690477 0)scale(0.996264)" xlink:href="#CMR17-48"/>
       <use transform="translate(91.380954 36.153639)scale(0.697382)" xlink:href="#CMR17-48"/>
      </g>
     </g>
    </g>
    <g id="ytick_2">
     <g id="line2d_8">
      <g>
       <use style="stroke:#000000;stroke-width:0.8;" x="54.83073" xlink:href="#me39ff8c632" y="45.091864"/>
      </g>
     </g>
     <g id="text_8">
      <!-- $10^{-25}$ -->
      <defs>
       <path d="M 65.90625 23 
C 67.59375 23 69.40625 23 69.40625 25 
C 69.40625 27 67.59375 27 65.90625 27 
L 11.796875 27 
C 10.09375 27 8.296875 27 8.296875 25 
C 8.296875 23 10.09375 23 11.796875 23 
z
" id="CMSY10-0"/>
      </defs>
      <g transform="translate(24.698919 48.551113)scale(0.1 -0.1)">
       <use transform="scale(0.996264)" xlink:href="#CMR17-49"/>
       <use transform="translate(45.690477 0)scale(0.996264)" xlink:href="#CMR17-48"/>
       <use transform="translate(91.380954 36.153639)scale(0.697382)" xlink:href="#CMSY10-0"/>
       <use transform="translate(145.621947 36.153639)scale(0.697382)" xlink:href="#CMR17-50"/>
       <use transform="translate(177.605129 36.153639)scale(0.697382)" xlink:href="#CMR17-53"/>
      </g>
     </g>
    </g>
    <g id="ytick_3">
     <g id="line2d_9">
      <g>
       <use style="stroke:#000000;stroke-width:0.8;" x="54.83073" xlink:href="#me39ff8c632" y="80.29818"/>
      </g>
     </g>
     <g id="text_9">
      <!-- $10^{-50}$ -->
      <g transform="translate(24.698919 83.757429)scale(0.1 -0.1)">
       <use transform="scale(0.996264)" xlink:href="#CMR17-49"/>
       <use transform="translate(45.690477 0)scale(0.996264)" xlink:href="#CMR17-48"/>
       <use transform="translate(91.380954 36.153639)scale(0.697382)" xlink:href="#CMSY10-0"/>
       <use transform="translate(145.621947 36.153639)scale(0.697382)" xlink:href="#CMR17-53"/>
       <use transform="translate(177.605129 36.153639)scale(0.697382)" xlink:href="#CMR17-48"/>
      </g>
     </g>
    </g>
    <g id="ytick_4">
     <g id="line2d_10">
      <g>
       <use style="stroke:#000000;stroke-width:0.8;" x="54.83073" xlink:href="#me39ff8c632" y="115.504497"/>
      </g>
     </g>
     <g id="text_10">
      <!-- $10^{-75}$ -->
      <defs>
       <path d="M 45.09375 61.578125 
L 45.09375 63.765625 
L 21.59375 63.765625 
C 9.90625 63.765625 9.703125 65.078125 9.296875 67 
L 7.5 67 
L 4.59375 48.34375 
L 6.40625 48.34375 
C 6.703125 50.234375 7.40625 55.3125 8.59375 57.203125 
C 9.203125 58 16.59375 58 18.296875 58 
L 40.296875 58 
L 29.203125 41.578125 
C 21.796875 30.53125 16.703125 15.609375 16.703125 2.578125 
C 16.703125 1.390625 16.703125 -2 20.296875 -2 
C 23.90625 -2 23.90625 1.390625 23.90625 2.671875 
L 23.90625 7.265625 
C 23.90625 23.5625 26.703125 34.3125 31.296875 41.1875 
z
" id="CMR17-55"/>
      </defs>
      <g transform="translate(24.698919 118.963746)scale(0.1 -0.1)">
       <use transform="scale(0.996264)" xlink:href="#CMR17-49"/>
       <use transform="translate(45.690477 0)scale(0.996264)" xlink:href="#CMR17-48"/>
       <use transform="translate(91.380954 36.153639)scale(0.697382)" xlink:href="#CMSY10-0"/>
       <use transform="translate(145.621947 36.153639)scale(0.697382)" xlink:href="#CMR17-55"/>
       <use transform="translate(177.605129 36.153639)scale(0.697382)" xlink:href="#CMR17-53"/>
      </g>
     </g>
    </g>
    <g id="ytick_5">
     <g id="line2d_11">
      <g>
       <use style="stroke:#000000;stroke-width:0.8;" x="54.83073" xlink:href="#me39ff8c632" y="150.710813"/>
      </g>
     </g>
     <g id="text_11">
      <!-- $10^{-100}$ -->
      <g transform="translate(20.727682 154.170063)scale(0.1 -0.1)">
       <use transform="scale(0.996264)" xlink:href="#CMR17-49"/>
       <use transform="translate(45.690477 0)scale(0.996264)" xlink:href="#CMR17-48"/>
       <use transform="translate(91.380954 36.153639)scale(0.697382)" xlink:href="#CMSY10-0"/>
       <use transform="translate(145.621947 36.153639)scale(0.697382)" xlink:href="#CMR17-49"/>
       <use transform="translate(177.605129 36.153639)scale(0.697382)" xlink:href="#CMR17-48"/>
       <use transform="translate(209.588311 36.153639)scale(0.697382)" xlink:href="#CMR17-48"/>
      </g>
     </g>
    </g>
    <g id="text_12">
     <!-- $\mathcal{A}_2(K)(P_{n,2})^{K}$ -->
     <defs>
      <path d="M 59.5 16.5 
C 60 10.203125 61.203125 5.59375 61.703125 3.703125 
C 62.796875 -0.796875 63.296875 -3 67.59375 -3 
C 72.09375 -3 79.796875 1.5 79.796875 3.5 
C 79.796875 4 79.40625 4.203125 78.90625 4.203125 
C 77.59375 4.203125 75.5 3.09375 75.203125 2.90625 
C 74.5 2.5 74.296875 2.5 74.09375 2.5 
C 71.296875 2.5 70.703125 5.1875 69.5 11.171875 
C 68.796875 14.46875 67.90625 18.453125 67.09375 32.109375 
C 66.40625 42.296875 66 52.453125 66 62.625 
C 66 65.015625 66.09375 67.609375 66.09375 70 
C 66.09375 71.59375 66.09375 72 65 72 
C 63.59375 72 59.5 70.296875 57.703125 67.609375 
L 57 66.515625 
C 49.09375 49.65625 41.703125 37.609375 36.5 29.515625 
C 30.59375 20.453125 20.203125 4.203125 14.796875 4.203125 
C 11.09375 4.203125 8 6.59375 7.09375 10.203125 
C 7 10.40625 6.796875 11 6.40625 11 
C 4.90625 11 2.703125 6.203125 2.703125 3.40625 
C 2.703125 -0.59375 7 -5 11.703125 -5 
C 18.59375 -5 30.09375 13 32.296875 16.5 
z
M 57.5 59.75 
L 57.5 53.96875 
C 57.5 48.1875 57.703125 42.421875 58 36.640625 
C 58.09375 34.65625 58.5 27.1875 59 22 
L 40.703125 22 
C 39.09375 22 37.59375 22 35 20.40625 
C 42 31.15625 47.796875 41.515625 48.40625 42.609375 
C 53.40625 51.46875 56.09375 57.265625 57.40625 59.75 
z
" id="CMSY10-65"/>
      <path d="M 30.59375 -24.390625 
C 30.59375 -24.296875 30.59375 -24.09375 30.296875 -23.796875 
C 25.703125 -19.125 13.40625 -6.359375 13.40625 24.703125 
C 13.40625 55.765625 25.5 68.421875 30.40625 73.390625 
C 30.40625 73.5 30.59375 73.703125 30.59375 74 
C 30.59375 74.296875 30.296875 74.5 29.90625 74.5 
C 28.796875 74.5 20.296875 67.125 15.40625 56.15625 
C 10.40625 45.109375 9 34.359375 9 24.8125 
C 9 17.625 9.703125 5.484375 15.703125 -7.359375 
C 20.5 -17.734375 28.703125 -25 29.90625 -25 
C 30.40625 -25 30.59375 -24.796875 30.59375 -24.390625 
z
" id="CMR17-40"/>
      <path d="M 50 40.171875 
C 49.90625 40.46875 49.5 41.265625 49.5 41.578125 
C 49.5 41.671875 49.59375 41.765625 51.296875 43.0625 
L 61 50.65625 
C 74.40625 61.015625 78.796875 64.5 85.703125 65.109375 
C 86.40625 65.109375 87.40625 65.109375 87.40625 66.90625 
C 87.40625 67.5 87.09375 68 86.296875 68 
C 85.203125 68 84 68 82.90625 68 
L 79.09375 68 
C 76 68 72.703125 68 69.703125 68 
C 69 68 67.796875 68 67.796875 66.203125 
C 67.796875 65.203125 68.5 65.109375 69.09375 65.109375 
C 70.203125 65 71.5 64.609375 71.5 63.21875 
C 71.5 61.234375 68.5 58.828125 67.703125 58.234375 
L 28.5 27.875 
L 36.796875 60.734375 
C 37.703125 64.109375 37.90625 65.109375 45 65.109375 
C 46.90625 65.109375 47.796875 65.109375 47.796875 67 
C 47.796875 68 46.796875 68 46.296875 68 
C 44.5 68 42.40625 68 40.5 68 
L 28.703125 68 
C 26.90625 68 24.703125 68 22.90625 68 
C 22.09375 68 21 68 21 66.109375 
C 21 65.109375 21.90625 65.109375 23.40625 65.109375 
C 29.5 65.109375 29.5 64.3125 29.5 63.21875 
C 29.5 63.03125 29.5 62.421875 29.09375 60.921875 
L 15.59375 7.375 
C 14.703125 3.890625 14.5 2.890625 7.5 2.890625 
C 5.59375 2.890625 4.59375 2.890625 4.59375 1.09375 
C 4.59375 0 5.5 0 6.09375 0 
C 8 0 10 0 11.90625 0 
L 23.59375 0 
C 25.5 0 27.59375 0 29.5 0 
C 30.296875 0 31.40625 0 31.40625 1.890625 
C 31.40625 2.890625 30.5 2.890625 29 2.890625 
C 22.90625 2.890625 22.90625 3.6875 22.90625 4.6875 
C 22.90625 5.390625 23.5 7.875 23.90625 9.46875 
L 27.796875 24.890625 
L 43 36.734375 
C 45.90625 30.359375 51.203125 17.625 55.296875 7.890625 
C 55.59375 7.28125 55.796875 6.6875 55.796875 5.984375 
C 55.796875 2.890625 51.796875 2.890625 50.90625 2.890625 
C 50 2.890625 49 2.890625 49 1 
C 49 0 50.09375 0 50.40625 0 
C 53.90625 0 57.59375 0 61.09375 0 
L 65.90625 0 
C 67.40625 0 69.09375 0 70.59375 0 
C 71.203125 0 72.296875 0 72.296875 1.890625 
C 72.296875 2.890625 71.40625 2.890625 70.40625 2.890625 
C 66.703125 2.890625 65.40625 3.6875 63.90625 7.28125 
z
" id="CMMI12-75"/>
      <path d="M 26.296875 24.703125 
C 26.296875 31.875 25.59375 44.015625 19.59375 56.859375 
C 14.796875 67.234375 6.59375 74.5 5.40625 74.5 
C 5.09375 74.5 4.703125 74.390625 4.703125 73.890625 
C 4.703125 73.703125 4.796875 73.59375 4.90625 73.390625 
C 9.703125 68.40625 21.90625 55.75 21.90625 24.75 
C 21.90625 -6.359375 9.796875 -19.015625 4.90625 -24.015625 
C 4.796875 -24.203125 4.703125 -24.3125 4.703125 -24.5 
C 4.703125 -25 5.09375 -25 5.40625 -25 
C 6.5 -25 15 -17.625 19.90625 -6.65625 
C 24.90625 4.390625 26.296875 15.140625 26.296875 24.703125 
z
" id="CMR17-41"/>
      <path d="M 29.59375 31.609375 
L 46.40625 31.609375 
C 60.203125 31.609375 74 41.765625 74 53.140625 
C 74 60.90625 67.40625 68 54.796875 68 
L 23.90625 68 
C 22 68 21.09375 68 21.09375 66.109375 
C 21.09375 65.109375 22 65.109375 23.5 65.109375 
C 29.59375 65.109375 29.59375 64.3125 29.59375 63.21875 
C 29.59375 63.03125 29.59375 62.421875 29.203125 60.921875 
L 15.703125 7.375 
C 14.796875 3.890625 14.59375 2.890625 7.59375 2.890625 
C 5.703125 2.890625 4.703125 2.890625 4.703125 1.09375 
C 4.703125 0 5.59375 0 6.203125 0 
C 8.09375 0 10.09375 0 12 0 
L 23.703125 0 
C 25.59375 0 27.703125 0 29.59375 0 
C 30.40625 0 31.5 0 31.5 1.890625 
C 31.5 2.890625 30.59375 2.890625 29.09375 2.890625 
C 23.09375 2.890625 23 3.59375 23 4.578125 
C 23 5.078125 23.09375 5.765625 23.203125 6.265625 
z
M 36.796875 61.40625 
C 37.703125 65.109375 38.09375 65.109375 42 65.109375 
L 51.90625 65.109375 
C 59.40625 65.109375 65.59375 62.703125 65.59375 55.234375 
C 65.59375 52.640625 64.296875 44.171875 59.703125 39.59375 
C 58 37.796875 53.203125 34 44.09375 34 
L 30 34 
z
" id="CMMI12-80"/>
      <path d="M 20.59375 29.234375 
C 20.796875 29.84375 23.296875 34.828125 27 38.015625 
C 29.59375 40.40625 33 42.015625 36.90625 42.015625 
C 40.90625 42.015625 42.296875 39.015625 42.296875 35.03125 
C 42.296875 29.34375 38.203125 17.96875 36.203125 12.578125 
C 35.296875 10.171875 34.796875 8.875 34.796875 7.078125 
C 34.796875 2.59375 37.90625 -1 42.703125 -1 
C 52 -1 55.5 13.671875 55.5 14.265625 
C 55.5 14.765625 55.09375 15.171875 54.5 15.171875 
C 53.59375 15.171875 53.5 14.875 53 13.171875 
C 50.703125 4.984375 46.90625 1 43 1 
C 42 1 40.40625 1 40.40625 4.203125 
C 40.40625 6.703125 41.5 9.703125 42.09375 11.09375 
C 44.09375 16.609375 48.296875 27.8125 48.296875 33.515625 
C 48.296875 39.5 44.796875 44 37.203125 44 
C 28.296875 44 23.59375 37.734375 21.796875 35.234375 
C 21.5 40.90625 17.40625 44 13 44 
C 9.796875 44 7.59375 42.109375 5.90625 38.71875 
C 4.09375 35.125 2.703125 29.140625 2.703125 28.734375 
C 2.703125 28.34375 3.09375 27.84375 3.796875 27.84375 
C 4.59375 27.84375 4.703125 27.9375 5.296875 30.234375 
C 6.90625 36.328125 8.703125 42.015625 12.703125 42.015625 
C 15 42.015625 15.796875 40.40625 15.796875 37.421875 
C 15.796875 35.21875 14.796875 31.328125 14.09375 28.234375 
L 11.296875 17.46875 
C 10.90625 15.5625 9.796875 11.078125 9.296875 9.28125 
C 8.59375 6.6875 7.5 2 7.5 1.5 
C 7.5 0.09375 8.59375 -1 10.09375 -1 
C 11.296875 -1 12.703125 -0.40625 13.5 1.09375 
C 13.703125 1.59375 14.59375 5.09375 15.09375 7.078125 
L 17.296875 16.0625 
z
" id="CMMI12-110"/>
      <path d="M 19.5 -0.484375 
C 19.5 5.359375 17.59375 9.671875 13.5 9.671875 
C 10.296875 9.671875 8.703125 7.078125 8.703125 4.890625 
C 8.703125 2.6875 10.203125 0 13.59375 0 
C 14.90625 0 16 0.40625 16.90625 1.296875 
C 17.09375 1.5 17.203125 1.5 17.296875 1.5 
C 17.5 1.5 17.5 0.078125 17.5 -0.421875 
C 17.5 -3.75 16.90625 -10.296875 11.09375 -16.875 
C 10 -18.078125 10 -18.28125 10 -18.484375 
C 10 -19 10.5 -19.5 11 -19.5 
C 11.796875 -19.5 19.5 -12.046875 19.5 -0.484375 
z
" id="CMMI12-59"/>
     </defs>
     <g transform="translate(14.403086 112.535861)rotate(-90)scale(0.12 -0.12)">
      <use transform="translate(0 14.943915)scale(0.996264)" xlink:href="#CMSY10-65"/>
      <use transform="translate(79.548829 0)scale(0.697382)" xlink:href="#CMR17-50"/>
      <use transform="translate(112.030143 14.943915)scale(0.996264)" xlink:href="#CMR17-40"/>
      <use transform="translate(147.310911 14.943915)scale(0.996264)" xlink:href="#CMMI12-75"/>
      <use transform="translate(237.458332 14.943915)scale(0.996264)" xlink:href="#CMR17-41"/>
      <use transform="translate(272.7391 14.943915)scale(0.996264)" xlink:href="#CMR17-40"/>
      <use transform="translate(308.019868 14.943915)scale(0.996264)" xlink:href="#CMMI12-80"/>
      <use transform="translate(370.8971 0)scale(0.697382)" xlink:href="#CMMI12-110"/>
      <use transform="translate(411.657943 0)scale(0.697382)" xlink:href="#CMMI12-59"/>
      <use transform="translate(430.625876 0)scale(0.697382)" xlink:href="#CMR17-50"/>
      <use transform="translate(463.10719 14.943915)scale(0.996264)" xlink:href="#CMR17-41"/>
      <use transform="translate(498.387957 51.097553)scale(0.697382)" xlink:href="#CMMI12-75"/>
     </g>
    </g>
   </g>
   <g id="patch_3">
    <path d="M 54.83073 151.257091 
L 54.83073 3.6 
" style="fill:none;stroke:#000000;stroke-linecap:square;stroke-linejoin:miter;stroke-width:0.8;"/>
   </g>
   <g id="patch_4">
    <path d="M 313.331484 151.257091 
L 313.331484 3.6 
" style="fill:none;stroke:#000000;stroke-linecap:square;stroke-linejoin:miter;stroke-width:0.8;"/>
   </g>
   <g id="patch_5">
    <path d="M 54.83073 151.257091 
L 313.331484 151.257091 
" style="fill:none;stroke:#000000;stroke-linecap:square;stroke-linejoin:miter;stroke-width:0.8;"/>
   </g>
   <g id="patch_6">
    <path d="M 54.83073 3.6 
L 313.331484 3.6 
" style="fill:none;stroke:#000000;stroke-linecap:square;stroke-linejoin:miter;stroke-width:0.8;"/>
   </g>
   <g id="text_13">
    <!-- $N=15$ -->
    <defs>
     <path d="M 74 57.78125 
C 75.09375 62.09375 76.703125 65.09375 84.296875 65.09375 
C 84.59375 65.09375 85.796875 65.09375 85.796875 66.859375 
C 85.796875 68 84.90625 68 84.5 68 
C 82.5 68 77.40625 68 75.40625 68 
L 70.59375 68 
C 69.203125 68 67.40625 68 66 68 
C 65.40625 68 64.203125 68 64.203125 66.09375 
C 64.203125 65.09375 65 65.09375 65.703125 65.09375 
C 71.703125 65.09375 72.09375 62.796875 72.09375 60.984375 
C 72.09375 60.09375 72 59.78125 71.703125 58.390625 
L 60.40625 13.28125 
L 39 66.390625 
C 38.296875 68 38.203125 68 36 68 
L 23.796875 68 
C 21.796875 68 20.90625 68 20.90625 66.09375 
C 20.90625 65.09375 21.59375 65.09375 23.5 65.09375 
C 24 65.09375 29.90625 65.09375 29.90625 64.296875 
C 29.90625 64.09375 29.703125 63.296875 29.59375 63 
L 16.296875 9.921875 
C 15.09375 5 12.703125 2.90625 6.09375 2.90625 
C 5.59375 2.90625 4.59375 2.90625 4.59375 1.046875 
C 4.59375 0 5.59375 0 5.90625 0 
C 7.90625 0 13 0 15 0 
L 19.796875 0 
C 21.203125 0 22.90625 0 24.296875 0 
C 25 0 26.09375 0 26.09375 1.90625 
C 26.09375 2.8125 25.09375 2.90625 24.703125 2.90625 
C 21.40625 2.90625 18.203125 3.5 18.203125 7.09375 
C 18.203125 7.890625 18.40625 8.78125 18.59375 9.578125 
L 32.09375 63 
C 32.703125 62 32.703125 61.8125 33.09375 60.90625 
L 56.90625 1.796875 
C 57.40625 0.59375 57.59375 0 58.5 0 
C 59.5 0 59.59375 0.296875 60 2 
z
" id="CMMI12-78"/>
     <path d="M 64.296875 31.515625 
C 65.796875 31.515625 67.296875 31.515625 67.296875 33.203125 
C 67.296875 35 65.59375 35 63.90625 35 
L 8 35 
C 6.296875 35 4.59375 35 4.59375 33.203125 
C 4.59375 31.515625 6.09375 31.515625 7.59375 31.515625 
z
M 63.90625 14 
C 65.59375 14 67.296875 14 67.296875 15.796875 
C 67.296875 17.484375 65.796875 17.484375 64.296875 17.484375 
L 7.59375 17.484375 
C 6.09375 17.484375 4.59375 17.484375 4.59375 15.796875 
C 4.59375 14 6.296875 14 8 14 
z
" id="CMR17-61"/>
    </defs>
    <g transform="translate(270.248025 18.335063)scale(0.12 -0.12)">
     <use transform="scale(0.996264)" xlink:href="#CMMI12-78"/>
     <use transform="translate(116.195781 0)scale(0.996264)" xlink:href="#CMR17-61"/>
     <use transform="translate(215.584578 0)scale(0.996264)" xlink:href="#CMR17-49"/>
     <use transform="translate(261.275056 0)scale(0.996264)" xlink:href="#CMR17-53"/>
    </g>
   </g>
   <g id="line2d_12">
    <defs>
     <path d="M 0 6.75 
C 1.790121 6.75 3.507164 6.038777 4.772971 4.772971 
C 6.038777 3.507164 6.75 1.790121 6.75 0 
C 6.75 -1.790121 6.038777 -3.507164 4.772971 -4.772971 
C 3.507164 -6.038777 1.790121 -6.75 0 -6.75 
C -1.790121 -6.75 -3.507164 -6.038777 -4.772971 -4.772971 
C -6.038777 -3.507164 -6.75 -1.790121 -6.75 0 
C -6.75 1.790121 -6.038777 3.507164 -4.772971 4.772971 
C -3.507164 6.038777 -1.790121 6.75 0 6.75 
z
" id="m4409d22996" style="stroke:#ff8c00;stroke-width:0.25;"/>
    </defs>
    <g clip-path="url(#p9e9d10676b)">
     <use style="fill:#fef8f1;stroke:#ff8c00;stroke-width:0.25;" x="66.580764" xlink:href="#m4409d22996" y="71.173615"/>
     <use style="fill:#fef8f1;stroke:#ff8c00;stroke-width:0.25;" x="82.247477" xlink:href="#m4409d22996" y="69.421961"/>
     <use style="fill:#fef8f1;stroke:#ff8c00;stroke-width:0.25;" x="97.914189" xlink:href="#m4409d22996" y="57.295265"/>
     <use style="fill:#fef8f1;stroke:#ff8c00;stroke-width:0.25;" x="113.580902" xlink:href="#m4409d22996" y="39.499634"/>
     <use style="fill:#fef8f1;stroke:#ff8c00;stroke-width:0.25;" x="129.247614" xlink:href="#m4409d22996" y="26.534521"/>
     <use style="fill:#fef8f1;stroke:#ff8c00;stroke-width:0.25;" x="144.914326" xlink:href="#m4409d22996" y="17.748529"/>
     <use style="fill:#fef8f1;stroke:#ff8c00;stroke-width:0.25;" x="160.581039" xlink:href="#m4409d22996" y="12.550268"/>
     <use style="fill:#fef8f1;stroke:#ff8c00;stroke-width:0.25;" x="176.247751" xlink:href="#m4409d22996" y="10.325358"/>
     <use style="fill:#fef8f1;stroke:#ff8c00;stroke-width:0.25;" x="191.914463" xlink:href="#m4409d22996" y="10.325358"/>
     <use style="fill:#fef8f1;stroke:#ff8c00;stroke-width:0.25;" x="207.581176" xlink:href="#m4409d22996" y="12.550268"/>
     <use style="fill:#fef8f1;stroke:#ff8c00;stroke-width:0.25;" x="223.247888" xlink:href="#m4409d22996" y="17.748529"/>
     <use style="fill:#fef8f1;stroke:#ff8c00;stroke-width:0.25;" x="238.9146" xlink:href="#m4409d22996" y="26.534521"/>
     <use style="fill:#fef8f1;stroke:#ff8c00;stroke-width:0.25;" x="254.581313" xlink:href="#m4409d22996" y="39.499634"/>
     <use style="fill:#fef8f1;stroke:#ff8c00;stroke-width:0.25;" x="270.248025" xlink:href="#m4409d22996" y="57.295266"/>
     <use style="fill:#fef8f1;stroke:#ff8c00;stroke-width:0.25;" x="285.914738" xlink:href="#m4409d22996" y="69.389355"/>
     <use style="fill:#fef8f1;stroke:#ff8c00;stroke-width:0.25;" x="301.58145" xlink:href="#m4409d22996" y="71.118157"/>
    </g>
   </g>
   <g id="line2d_13">
    <defs>
     <path d="M 0 5.375 
C 1.425467 5.375 2.792742 4.808656 3.800699 3.800699 
C 4.808656 2.792742 5.375 1.425467 5.375 0 
C 5.375 -1.425467 4.808656 -2.792742 3.800699 -3.800699 
C 2.792742 -4.808656 1.425467 -5.375 0 -5.375 
C -1.425467 -5.375 -2.792742 -4.808656 -3.800699 -3.800699 
C -4.808656 -2.792742 -5.375 -1.425467 -5.375 0 
C -5.375 1.425467 -4.808656 2.792742 -3.800699 3.800699 
C -2.792742 4.808656 -1.425467 5.375 0 5.375 
z
" id="m0b979ea41b" style="stroke:#ff8c00;stroke-width:0.25;"/>
    </defs>
    <g clip-path="url(#p9e9d10676b)">
     <use style="fill:#fee7cb;stroke:#ff8c00;stroke-width:0.25;" x="66.580764" xlink:href="#m0b979ea41b" y="71.752841"/>
     <use style="fill:#fee7cb;stroke:#ff8c00;stroke-width:0.25;" x="82.247477" xlink:href="#m0b979ea41b" y="69.893975"/>
     <use style="fill:#fee7cb;stroke:#ff8c00;stroke-width:0.25;" x="97.914189" xlink:href="#m0b979ea41b" y="60.021819"/>
     <use style="fill:#fee7cb;stroke:#ff8c00;stroke-width:0.25;" x="113.580902" xlink:href="#m0b979ea41b" y="41.090715"/>
     <use style="fill:#fee7cb;stroke:#ff8c00;stroke-width:0.25;" x="129.247614" xlink:href="#m0b979ea41b" y="27.370982"/>
     <use style="fill:#fee7cb;stroke:#ff8c00;stroke-width:0.25;" x="144.914326" xlink:href="#m0b979ea41b" y="18.121087"/>
     <use style="fill:#fee7cb;stroke:#ff8c00;stroke-width:0.25;" x="160.581039" xlink:href="#m0b979ea41b" y="12.671116"/>
     <use style="fill:#fee7cb;stroke:#ff8c00;stroke-width:0.25;" x="176.247751" xlink:href="#m0b979ea41b" y="10.322479"/>
     <use style="fill:#fee7cb;stroke:#ff8c00;stroke-width:0.25;" x="191.914463" xlink:href="#m0b979ea41b" y="10.322479"/>
     <use style="fill:#fee7cb;stroke:#ff8c00;stroke-width:0.25;" x="207.581176" xlink:href="#m0b979ea41b" y="12.671116"/>
     <use style="fill:#fee7cb;stroke:#ff8c00;stroke-width:0.25;" x="223.247888" xlink:href="#m0b979ea41b" y="18.121087"/>
     <use style="fill:#fee7cb;stroke:#ff8c00;stroke-width:0.25;" x="238.9146" xlink:href="#m0b979ea41b" y="27.370982"/>
     <use style="fill:#fee7cb;stroke:#ff8c00;stroke-width:0.25;" x="254.581313" xlink:href="#m0b979ea41b" y="41.090715"/>
     <use style="fill:#fee7cb;stroke:#ff8c00;stroke-width:0.25;" x="270.248025" xlink:href="#m0b979ea41b" y="60.021819"/>
     <use style="fill:#fee7cb;stroke:#ff8c00;stroke-width:0.25;" x="285.914738" xlink:href="#m0b979ea41b" y="69.893899"/>
     <use style="fill:#fee7cb;stroke:#ff8c00;stroke-width:0.25;" x="301.58145" xlink:href="#m0b979ea41b" y="71.753427"/>
    </g>
   </g>
   <g id="line2d_14">
    <defs>
     <path d="M 0 4 
C 1.060812 4 2.078319 3.578535 2.828427 2.828427 
C 3.578535 2.078319 4 1.060812 4 0 
C 4 -1.060812 3.578535 -2.078319 2.828427 -2.828427 
C 2.078319 -3.578535 1.060812 -4 0 -4 
C -1.060812 -4 -2.078319 -3.578535 -2.828427 -2.828427 
C -3.578535 -2.078319 -4 -1.060812 -4 0 
C -4 1.060812 -3.578535 2.078319 -2.828427 2.828427 
C -2.078319 3.578535 -1.060812 4 0 4 
z
" id="m7ba1f5653e" style="stroke:#ff8c00;stroke-width:0.25;"/>
    </defs>
    <g clip-path="url(#p9e9d10676b)">
     <use style="fill:#feca8b;stroke:#ff8c00;stroke-width:0.25;" x="66.580764" xlink:href="#m7ba1f5653e" y="93.505814"/>
     <use style="fill:#feca8b;stroke:#ff8c00;stroke-width:0.25;" x="82.247477" xlink:href="#m7ba1f5653e" y="91.096422"/>
     <use style="fill:#feca8b;stroke:#ff8c00;stroke-width:0.25;" x="97.914189" xlink:href="#m7ba1f5653e" y="63.795434"/>
     <use style="fill:#feca8b;stroke:#ff8c00;stroke-width:0.25;" x="113.580902" xlink:href="#m7ba1f5653e" y="43.320423"/>
     <use style="fill:#feca8b;stroke:#ff8c00;stroke-width:0.25;" x="129.247614" xlink:href="#m7ba1f5653e" y="28.605255"/>
     <use style="fill:#feca8b;stroke:#ff8c00;stroke-width:0.25;" x="144.914326" xlink:href="#m7ba1f5653e" y="18.741003"/>
     <use style="fill:#feca8b;stroke:#ff8c00;stroke-width:0.25;" x="160.581039" xlink:href="#m7ba1f5653e" y="12.915013"/>
     <use style="fill:#feca8b;stroke:#ff8c00;stroke-width:0.25;" x="176.247751" xlink:href="#m7ba1f5653e" y="10.318171"/>
     <use style="fill:#feca8b;stroke:#ff8c00;stroke-width:0.25;" x="191.914463" xlink:href="#m7ba1f5653e" y="10.318171"/>
     <use style="fill:#feca8b;stroke:#ff8c00;stroke-width:0.25;" x="207.581176" xlink:href="#m7ba1f5653e" y="12.915013"/>
     <use style="fill:#feca8b;stroke:#ff8c00;stroke-width:0.25;" x="223.247888" xlink:href="#m7ba1f5653e" y="18.741003"/>
     <use style="fill:#feca8b;stroke:#ff8c00;stroke-width:0.25;" x="238.9146" xlink:href="#m7ba1f5653e" y="28.605255"/>
     <use style="fill:#feca8b;stroke:#ff8c00;stroke-width:0.25;" x="254.581313" xlink:href="#m7ba1f5653e" y="43.320423"/>
     <use style="fill:#feca8b;stroke:#ff8c00;stroke-width:0.25;" x="270.248025" xlink:href="#m7ba1f5653e" y="63.795434"/>
     <use style="fill:#feca8b;stroke:#ff8c00;stroke-width:0.25;" x="285.914738" xlink:href="#m7ba1f5653e" y="91.096461"/>
     <use style="fill:#feca8b;stroke:#ff8c00;stroke-width:0.25;" x="301.58145" xlink:href="#m7ba1f5653e" y="93.505613"/>
    </g>
   </g>
   <g id="line2d_15">
    <defs>
     <path d="M 0 2.625 
C 0.696158 2.625 1.363897 2.348413 1.856155 1.856155 
C 2.348413 1.363897 2.625 0.696158 2.625 0 
C 2.625 -0.696158 2.348413 -1.363897 1.856155 -1.856155 
C 1.363897 -2.348413 0.696158 -2.625 0 -2.625 
C -0.696158 -2.625 -1.363897 -2.348413 -1.856155 -1.856155 
C -2.348413 -1.363897 -2.625 -0.696158 -2.625 0 
C -2.625 0.696158 -2.348413 1.363897 -1.856155 1.856155 
C -1.363897 2.348413 -0.696158 2.625 0 2.625 
z
" id="mee80e9a450" style="stroke:#ff8c00;stroke-width:0.25;"/>
    </defs>
    <g clip-path="url(#p9e9d10676b)">
     <use style="fill:#feae4c;stroke:#ff8c00;stroke-width:0.25;" x="66.580764" xlink:href="#mee80e9a450" y="138.96592"/>
     <use style="fill:#feae4c;stroke:#ff8c00;stroke-width:0.25;" x="82.247477" xlink:href="#mee80e9a450" y="97.251971"/>
     <use style="fill:#feae4c;stroke:#ff8c00;stroke-width:0.25;" x="97.914189" xlink:href="#mee80e9a450" y="67.797775"/>
     <use style="fill:#feae4c;stroke:#ff8c00;stroke-width:0.25;" x="113.580902" xlink:href="#mee80e9a450" y="45.959215"/>
     <use style="fill:#feae4c;stroke:#ff8c00;stroke-width:0.25;" x="129.247614" xlink:href="#mee80e9a450" y="30.301405"/>
     <use style="fill:#feae4c;stroke:#ff8c00;stroke-width:0.25;" x="144.914326" xlink:href="#mee80e9a450" y="19.729494"/>
     <use style="fill:#feae4c;stroke:#ff8c00;stroke-width:0.25;" x="160.581039" xlink:href="#mee80e9a450" y="13.314072"/>
     <use style="fill:#feae4c;stroke:#ff8c00;stroke-width:0.25;" x="176.247751" xlink:href="#mee80e9a450" y="10.313987"/>
     <use style="fill:#feae4c;stroke:#ff8c00;stroke-width:0.25;" x="191.914463" xlink:href="#mee80e9a450" y="10.313987"/>
     <use style="fill:#feae4c;stroke:#ff8c00;stroke-width:0.25;" x="207.581176" xlink:href="#mee80e9a450" y="13.314072"/>
     <use style="fill:#feae4c;stroke:#ff8c00;stroke-width:0.25;" x="223.247888" xlink:href="#mee80e9a450" y="19.729494"/>
     <use style="fill:#feae4c;stroke:#ff8c00;stroke-width:0.25;" x="238.9146" xlink:href="#mee80e9a450" y="30.301405"/>
     <use style="fill:#feae4c;stroke:#ff8c00;stroke-width:0.25;" x="254.581313" xlink:href="#mee80e9a450" y="45.959215"/>
     <use style="fill:#feae4c;stroke:#ff8c00;stroke-width:0.25;" x="270.248025" xlink:href="#mee80e9a450" y="67.797775"/>
     <use style="fill:#feae4c;stroke:#ff8c00;stroke-width:0.25;" x="285.914738" xlink:href="#mee80e9a450" y="97.251971"/>
     <use style="fill:#feae4c;stroke:#ff8c00;stroke-width:0.25;" x="301.58145" xlink:href="#mee80e9a450" y="138.956981"/>
    </g>
   </g>
   <g id="line2d_16">
    <defs>
     <path d="M 0 1.25 
C 0.331504 1.25 0.649475 1.118292 0.883883 0.883883 
C 1.118292 0.649475 1.25 0.331504 1.25 0 
C 1.25 -0.331504 1.118292 -0.649475 0.883883 -0.883883 
C 0.649475 -1.118292 0.331504 -1.25 0 -1.25 
C -0.331504 -1.25 -0.649475 -1.118292 -0.883883 -0.883883 
C -1.118292 -0.649475 -1.25 -0.331504 -1.25 0 
C -1.25 0.331504 -1.118292 0.649475 -0.883883 0.883883 
C -0.649475 1.118292 -0.331504 1.25 0 1.25 
z
" id="m38dd54bb1c" style="stroke:#ff8c00;stroke-width:0.25;"/>
    </defs>
    <g clip-path="url(#p9e9d10676b)">
     <use style="fill:#fe8b00;stroke:#ff8c00;stroke-width:0.25;" x="66.580764" xlink:href="#m38dd54bb1c" y="144.545404"/>
     <use style="fill:#fe8b00;stroke:#ff8c00;stroke-width:0.25;" x="82.247477" xlink:href="#m38dd54bb1c" y="102.863688"/>
     <use style="fill:#fe8b00;stroke:#ff8c00;stroke-width:0.25;" x="97.914189" xlink:href="#m38dd54bb1c" y="71.948358"/>
     <use style="fill:#fe8b00;stroke:#ff8c00;stroke-width:0.25;" x="113.580902" xlink:href="#m38dd54bb1c" y="48.990598"/>
     <use style="fill:#fe8b00;stroke:#ff8c00;stroke-width:0.25;" x="129.247614" xlink:href="#m38dd54bb1c" y="32.367052"/>
     <use style="fill:#fe8b00;stroke:#ff8c00;stroke-width:0.25;" x="144.914326" xlink:href="#m38dd54bb1c" y="20.908479"/>
     <use style="fill:#fe8b00;stroke:#ff8c00;stroke-width:0.25;" x="160.581039" xlink:href="#m38dd54bb1c" y="13.748884"/>
     <use style="fill:#fe8b00;stroke:#ff8c00;stroke-width:0.25;" x="176.247751" xlink:href="#m38dd54bb1c" y="10.311686"/>
     <use style="fill:#fe8b00;stroke:#ff8c00;stroke-width:0.25;" x="191.914463" xlink:href="#m38dd54bb1c" y="10.311686"/>
     <use style="fill:#fe8b00;stroke:#ff8c00;stroke-width:0.25;" x="207.581176" xlink:href="#m38dd54bb1c" y="13.748884"/>
     <use style="fill:#fe8b00;stroke:#ff8c00;stroke-width:0.25;" x="223.247888" xlink:href="#m38dd54bb1c" y="20.908479"/>
     <use style="fill:#fe8b00;stroke:#ff8c00;stroke-width:0.25;" x="238.9146" xlink:href="#m38dd54bb1c" y="32.367052"/>
     <use style="fill:#fe8b00;stroke:#ff8c00;stroke-width:0.25;" x="254.581313" xlink:href="#m38dd54bb1c" y="48.990598"/>
     <use style="fill:#fe8b00;stroke:#ff8c00;stroke-width:0.25;" x="270.248025" xlink:href="#m38dd54bb1c" y="71.948358"/>
     <use style="fill:#fe8b00;stroke:#ff8c00;stroke-width:0.25;" x="285.914738" xlink:href="#m38dd54bb1c" y="102.863688"/>
     <use style="fill:#fe8b00;stroke:#ff8c00;stroke-width:0.25;" x="301.58145" xlink:href="#m38dd54bb1c" y="144.545405"/>
    </g>
   </g>
   <g id="legend_1">
    <g id="text_14">
     <!-- $K, V/t$ -->
     <defs>
      <path d="M 61.90625 56.875 
C 65.296875 62.25 68.40625 64.625 73.5 65.03125 
C 74.5 65.125 75.296875 65.125 75.296875 66.90625 
C 75.296875 67.3125 75.09375 67.90625 74.203125 67.90625 
C 72.40625 67.90625 68.09375 67.90625 66.296875 67.90625 
C 63.40625 67.90625 60.40625 67.90625 57.59375 67.90625 
C 56.796875 67.90625 55.796875 67.90625 55.796875 66.03125 
C 55.796875 65.125 56.703125 65.03125 57.09375 65.03125 
C 60.796875 64.734375 61.203125 62.953125 61.203125 61.75 
C 61.203125 60.265625 59.796875 57.96875 59.703125 57.875 
L 28.296875 8.4375 
L 21.296875 62.015625 
C 21.296875 65 26.5 65 27.59375 65 
C 29.09375 65 30 65 30 66.90625 
C 30 67.90625 28.90625 67.90625 28.59375 67.90625 
C 26.90625 67.90625 24.90625 67.90625 23.203125 67.90625 
L 17.59375 67.90625 
C 10.296875 67.90625 7.296875 67.90625 7.203125 67.90625 
C 6.59375 67.90625 5.40625 67.90625 5.40625 66.09375 
C 5.40625 65 6.09375 65 7.703125 65 
C 12.796875 65 13.09375 64.09375 13.40625 61.625 
L 21.40625 0.375 
C 21.703125 -1.703125 21.703125 -2 23.09375 -2 
C 24.296875 -2 24.796875 -1.703125 25.796875 -0.125 
z
" id="CMMI12-86"/>
      <path d="M 42.90625 71.28125 
C 42.90625 71.390625 43.5 72.90625 43.5 73.09375 
C 43.5 74.296875 42.5 75 41.703125 75 
C 41.203125 75 40.296875 75 39.5 72.796875 
L 6 -21.296875 
C 6 -21.40625 5.40625 -22.890625 5.40625 -23.09375 
C 5.40625 -24.296875 6.40625 -25 7.203125 -25 
C 7.796875 -25 8.703125 -24.890625 9.40625 -22.796875 
z
" id="CMMI12-61"/>
      <path d="M 20.09375 40.09375 
L 29.296875 40.09375 
C 31.203125 40.09375 32.203125 40.09375 32.203125 41.890625 
C 32.203125 43 31.59375 43 29.59375 43 
L 20.796875 43 
L 24.5 57.6875 
C 24.90625 59.078125 24.90625 59.28125 24.90625 60 
C 24.90625 61.609375 23.59375 62.5 22.296875 62.5 
C 21.5 62.5 19.203125 62.203125 18.40625 58.984375 
L 14.5 43 
L 5.09375 43 
C 3.09375 43 2.203125 43 2.203125 41.09375 
C 2.203125 40.09375 2.90625 40.09375 4.796875 40.09375 
L 13.703125 40.09375 
L 7.09375 13.765625 
C 6.296875 10.28125 6 9.28125 6 7.984375 
C 6 3.296875 9.296875 -1 14.90625 -1 
C 25 -1 30.40625 13.5625 30.40625 14.25 
C 30.40625 14.859375 30 15.15625 29.40625 15.15625 
C 29.203125 15.15625 28.796875 15.15625 28.59375 14.75 
C 28.5 14.65625 28.40625 14.546875 27.703125 12.953125 
C 25.59375 7.984375 21 1 15.203125 1 
C 12.203125 1 12 3.5 12 5.6875 
C 12 5.78125 12 7.6875 12.296875 8.875 
z
" id="CMMI12-116"/>
     </defs>
     <g transform="translate(176.070078 48.756689)scale(0.12 -0.12)">
      <use transform="scale(0.996264)" xlink:href="#CMMI12-75"/>
      <use transform="translate(84.727985 0)scale(0.996264)" xlink:href="#CMMI12-59"/>
      <use transform="translate(128.429568 0)scale(0.996264)" xlink:href="#CMMI12-86"/>
      <use transform="translate(196.138018 0)scale(0.996264)" xlink:href="#CMMI12-61"/>
      <use transform="translate(244.912936 0)scale(0.996264)" xlink:href="#CMMI12-116"/>
     </g>
    </g>
    <g id="line2d_17"/>
    <g id="line2d_18">
     <g>
      <use style="fill:#fef8f1;stroke:#ff8c00;stroke-width:0.25;" x="161.998498" xlink:href="#m4409d22996" y="61.095481"/>
     </g>
    </g>
    <g id="text_15">
     <!-- $0.65, 1.5$ -->
     <defs>
      <path d="M 18.40625 4.796875 
C 18.40625 7.6875 16 9.671875 13.59375 9.671875 
C 10.703125 9.671875 8.703125 7.28125 8.703125 4.890625 
C 8.703125 2 11.09375 0 13.5 0 
C 16.40625 0 18.40625 2.390625 18.40625 4.796875 
z
" id="CMMI12-58"/>
     </defs>
     <g transform="translate(173.878498 64.945481)scale(0.11 -0.11)">
      <use transform="scale(0.996264)" xlink:href="#CMR17-48"/>
      <use transform="translate(45.690477 0)scale(0.996264)" xlink:href="#CMMI12-58"/>
      <use transform="translate(72.787654 0)scale(0.996264)" xlink:href="#CMR17-54"/>
      <use transform="translate(118.478131 0)scale(0.996264)" xlink:href="#CMR17-53"/>
      <use transform="translate(164.168608 0)scale(0.996264)" xlink:href="#CMMI12-59"/>
      <use transform="translate(207.870191 0)scale(0.996264)" xlink:href="#CMR17-49"/>
      <use transform="translate(253.560668 0)scale(0.996264)" xlink:href="#CMMI12-58"/>
      <use transform="translate(280.657845 0)scale(0.996264)" xlink:href="#CMR17-53"/>
     </g>
    </g>
    <g id="line2d_19"/>
    <g id="line2d_20">
     <g>
      <use style="fill:#fee7cb;stroke:#ff8c00;stroke-width:0.25;" x="161.998498" xlink:href="#m0b979ea41b" y="76.426376"/>
     </g>
    </g>
    <g id="text_16">
     <!-- $0.75, 1.0$ -->
     <g transform="translate(173.878498 80.276376)scale(0.11 -0.11)">
      <use transform="scale(0.996264)" xlink:href="#CMR17-48"/>
      <use transform="translate(45.690477 0)scale(0.996264)" xlink:href="#CMMI12-58"/>
      <use transform="translate(72.787654 0)scale(0.996264)" xlink:href="#CMR17-55"/>
      <use transform="translate(118.478131 0)scale(0.996264)" xlink:href="#CMR17-53"/>
      <use transform="translate(164.168608 0)scale(0.996264)" xlink:href="#CMMI12-59"/>
      <use transform="translate(207.870191 0)scale(0.996264)" xlink:href="#CMR17-49"/>
      <use transform="translate(253.560668 0)scale(0.996264)" xlink:href="#CMMI12-58"/>
      <use transform="translate(280.657845 0)scale(0.996264)" xlink:href="#CMR17-48"/>
     </g>
    </g>
    <g id="line2d_21"/>
    <g id="line2d_22">
     <g>
      <use style="fill:#feca8b;stroke:#ff8c00;stroke-width:0.25;" x="161.998498" xlink:href="#m7ba1f5653e" y="91.757271"/>
     </g>
    </g>
    <g id="text_17">
     <!-- $1.00, 0.0$ -->
     <g transform="translate(173.878498 95.607271)scale(0.11 -0.11)">
      <use transform="scale(0.996264)" xlink:href="#CMR17-49"/>
      <use transform="translate(45.690477 0)scale(0.996264)" xlink:href="#CMMI12-58"/>
      <use transform="translate(72.787654 0)scale(0.996264)" xlink:href="#CMR17-48"/>
      <use transform="translate(118.478131 0)scale(0.996264)" xlink:href="#CMR17-48"/>
      <use transform="translate(164.168608 0)scale(0.996264)" xlink:href="#CMMI12-59"/>
      <use transform="translate(207.870191 0)scale(0.996264)" xlink:href="#CMR17-48"/>
      <use transform="translate(253.560668 0)scale(0.996264)" xlink:href="#CMMI12-58"/>
      <use transform="translate(280.657845 0)scale(0.996264)" xlink:href="#CMR17-48"/>
     </g>
    </g>
    <g id="line2d_23"/>
    <g id="line2d_24">
     <g>
      <use style="fill:#feae4c;stroke:#ff8c00;stroke-width:0.25;" x="161.998498" xlink:href="#mee80e9a450" y="107.088165"/>
     </g>
    </g>
    <g id="text_18">
     <!-- $1.50, -1.0$ -->
     <g transform="translate(173.878498 110.938165)scale(0.11 -0.11)">
      <use transform="scale(0.996264)" xlink:href="#CMR17-49"/>
      <use transform="translate(45.690477 0)scale(0.996264)" xlink:href="#CMMI12-58"/>
      <use transform="translate(72.787654 0)scale(0.996264)" xlink:href="#CMR17-53"/>
      <use transform="translate(118.478131 0)scale(0.996264)" xlink:href="#CMR17-48"/>
      <use transform="translate(164.168608 0)scale(0.996264)" xlink:href="#CMMI12-59"/>
      <use transform="translate(207.870191 0)scale(0.996264)" xlink:href="#CMSY10-0"/>
      <use transform="translate(285.357658 0)scale(0.996264)" xlink:href="#CMR17-49"/>
      <use transform="translate(331.048136 0)scale(0.996264)" xlink:href="#CMMI12-58"/>
      <use transform="translate(358.145313 0)scale(0.996264)" xlink:href="#CMR17-48"/>
     </g>
    </g>
    <g id="line2d_25"/>
    <g id="line2d_26">
     <g>
      <use style="fill:#fe8b00;stroke:#ff8c00;stroke-width:0.25;" x="161.998498" xlink:href="#m38dd54bb1c" y="122.41906"/>
     </g>
    </g>
    <g id="text_19">
     <!-- $2.17, -1.5$ -->
     <g transform="translate(173.878498 126.26906)scale(0.11 -0.11)">
      <use transform="scale(0.996264)" xlink:href="#CMR17-50"/>
      <use transform="translate(45.690477 0)scale(0.996264)" xlink:href="#CMMI12-58"/>
      <use transform="translate(72.787654 0)scale(0.996264)" xlink:href="#CMR17-49"/>
      <use transform="translate(118.478131 0)scale(0.996264)" xlink:href="#CMR17-55"/>
      <use transform="translate(164.168608 0)scale(0.996264)" xlink:href="#CMMI12-59"/>
      <use transform="translate(207.870191 0)scale(0.996264)" xlink:href="#CMSY10-0"/>
      <use transform="translate(285.357658 0)scale(0.996264)" xlink:href="#CMR17-49"/>
      <use transform="translate(331.048136 0)scale(0.996264)" xlink:href="#CMMI12-58"/>
      <use transform="translate(358.145313 0)scale(0.996264)" xlink:href="#CMR17-53"/>
     </g>
    </g>
   </g>
  </g>
  <g id="axes_2">
   <g id="patch_7">
    <path d="M 54.83073 321.062746 
L 313.331484 321.062746 
L 313.331484 173.405655 
L 54.83073 173.405655 
z
" style="fill:none;"/>
   </g>
   <g id="matplotlib.axis_3">
    <g id="xtick_7">
     <g id="line2d_27">
      <g>
       <use style="stroke:#000000;stroke-width:0.8;" x="66.580764" xlink:href="#m8b633dbbc8" y="321.062746"/>
      </g>
     </g>
     <g id="text_20">
      <!-- $0$ -->
      <g transform="translate(64.090097 333.981244)scale(0.1 -0.1)">
       <use transform="scale(0.996264)" xlink:href="#CMR17-48"/>
      </g>
     </g>
    </g>
    <g id="xtick_8">
     <g id="line2d_28">
      <g>
       <use style="stroke:#000000;stroke-width:0.8;" x="125.330936" xlink:href="#m8b633dbbc8" y="321.062746"/>
      </g>
     </g>
     <g id="text_21">
      <!-- $4$ -->
      <defs>
       <path d="M 33.59375 64.40625 
C 33.59375 66.5 33.5 66.5 31.703125 66.5 
L 2 19.59375 
L 2 17 
L 27.796875 17 
L 27.796875 7.140625 
C 27.796875 3.5 27.59375 2.5 20.59375 2.5 
L 18.703125 2.5 
L 18.703125 0 
C 21.90625 0 27.296875 0 30.703125 0 
C 34.09375 0 39.5 0 42.703125 0 
L 42.703125 2.5 
L 40.796875 2.5 
C 33.796875 2.5 33.59375 3.5 33.59375 7.140625 
L 33.59375 17 
L 43.796875 17 
L 43.796875 19.59375 
L 33.59375 19.59375 
z
M 28.09375 57.859375 
L 28.09375 19.59375 
L 4 19.59375 
z
" id="CMR17-52"/>
      </defs>
      <g transform="translate(122.840268 333.981244)scale(0.1 -0.1)">
       <use transform="scale(0.996264)" xlink:href="#CMR17-52"/>
      </g>
     </g>
    </g>
    <g id="xtick_9">
     <g id="line2d_29">
      <g>
       <use style="stroke:#000000;stroke-width:0.8;" x="184.081107" xlink:href="#m8b633dbbc8" y="321.062746"/>
      </g>
     </g>
     <g id="text_22">
      <!-- $8$ -->
      <defs>
       <path d="M 27.203125 35.375 
C 33.5 38.546875 39.90625 43.328125 39.90625 50.984375 
C 39.90625 60.015625 31.09375 65.296875 23 65.296875 
C 13.90625 65.296875 5.90625 58.734375 5.90625 49.6875 
C 5.90625 47.203125 6.5 42.921875 10.40625 39.140625 
C 11.40625 38.15625 15.59375 35.171875 18.296875 33.28125 
C 13.796875 30.984375 3.296875 25.53125 3.296875 14.59375 
C 3.296875 4.359375 13.09375 -2 22.796875 -2 
C 33.5 -2 42.5 5.65625 42.5 15.78125 
C 42.5 24.84375 36.40625 29.015625 32.40625 31.703125 
z
M 14.09375 44.09375 
C 13.296875 44.59375 9.296875 47.671875 9.296875 52.359375 
C 9.296875 58.421875 15.59375 63 22.796875 63 
C 30.703125 63 36.5 57.4375 36.5 50.96875 
C 36.5 41.703125 26.09375 36.421875 25.59375 36.421875 
C 25.5 36.421875 25.40625 36.421875 24.59375 37.03125 
z
M 32.5 23.734375 
C 34 22.640625 38.796875 19.375 38.796875 13.296875 
C 38.796875 5.953125 31.40625 0.390625 23 0.390625 
C 13.90625 0.390625 7 6.84375 7 14.6875 
C 7 22.546875 13.09375 29.09375 20 32.1875 
z
" id="CMR17-56"/>
      </defs>
      <g transform="translate(181.59044 333.981244)scale(0.1 -0.1)">
       <use transform="scale(0.996264)" xlink:href="#CMR17-56"/>
      </g>
     </g>
    </g>
    <g id="xtick_10">
     <g id="line2d_30">
      <g>
       <use style="stroke:#000000;stroke-width:0.8;" x="242.831279" xlink:href="#m8b633dbbc8" y="321.062746"/>
      </g>
     </g>
     <g id="text_23">
      <!-- $12$ -->
      <g transform="translate(237.849943 333.981244)scale(0.1 -0.1)">
       <use transform="scale(0.996264)" xlink:href="#CMR17-49"/>
       <use transform="translate(45.690477 0)scale(0.996264)" xlink:href="#CMR17-50"/>
      </g>
     </g>
    </g>
    <g id="xtick_11">
     <g id="line2d_31">
      <g>
       <use style="stroke:#000000;stroke-width:0.8;" x="301.58145" xlink:href="#m8b633dbbc8" y="321.062746"/>
      </g>
     </g>
     <g id="text_24">
      <!-- $16$ -->
      <g transform="translate(296.600115 333.981244)scale(0.1 -0.1)">
       <use transform="scale(0.996264)" xlink:href="#CMR17-49"/>
       <use transform="translate(45.690477 0)scale(0.996264)" xlink:href="#CMR17-54"/>
      </g>
     </g>
    </g>
    <g id="text_25">
     <!-- $n$ -->
     <g transform="translate(180.587304 348.220602)scale(0.12 -0.12)">
      <use transform="scale(0.996264)" xlink:href="#CMMI12-110"/>
     </g>
    </g>
   </g>
   <g id="matplotlib.axis_4">
    <g id="ytick_6">
     <g id="line2d_32">
      <g>
       <use style="stroke:#000000;stroke-width:0.8;" x="54.83073" xlink:href="#me39ff8c632" y="179.483325"/>
      </g>
     </g>
     <g id="text_26">
      <!-- $10^{0}$ -->
      <g transform="translate(34.896822 182.942574)scale(0.1 -0.1)">
       <use transform="scale(0.996264)" xlink:href="#CMR17-49"/>
       <use transform="translate(45.690477 0)scale(0.996264)" xlink:href="#CMR17-48"/>
       <use transform="translate(91.380954 36.153639)scale(0.697382)" xlink:href="#CMR17-48"/>
      </g>
     </g>
    </g>
    <g id="ytick_7">
     <g id="line2d_33">
      <g>
       <use style="stroke:#000000;stroke-width:0.8;" x="54.83073" xlink:href="#me39ff8c632" y="207.799209"/>
      </g>
     </g>
     <g id="text_27">
      <!-- $10^{-25}$ -->
      <g transform="translate(24.698919 211.258458)scale(0.1 -0.1)">
       <use transform="scale(0.996264)" xlink:href="#CMR17-49"/>
       <use transform="translate(45.690477 0)scale(0.996264)" xlink:href="#CMR17-48"/>
       <use transform="translate(91.380954 36.153639)scale(0.697382)" xlink:href="#CMSY10-0"/>
       <use transform="translate(145.621947 36.153639)scale(0.697382)" xlink:href="#CMR17-50"/>
       <use transform="translate(177.605129 36.153639)scale(0.697382)" xlink:href="#CMR17-53"/>
      </g>
     </g>
    </g>
    <g id="ytick_8">
     <g id="line2d_34">
      <g>
       <use style="stroke:#000000;stroke-width:0.8;" x="54.83073" xlink:href="#me39ff8c632" y="236.115093"/>
      </g>
     </g>
     <g id="text_28">
      <!-- $10^{-50}$ -->
      <g transform="translate(24.698919 239.574342)scale(0.1 -0.1)">
       <use transform="scale(0.996264)" xlink:href="#CMR17-49"/>
       <use transform="translate(45.690477 0)scale(0.996264)" xlink:href="#CMR17-48"/>
       <use transform="translate(91.380954 36.153639)scale(0.697382)" xlink:href="#CMSY10-0"/>
       <use transform="translate(145.621947 36.153639)scale(0.697382)" xlink:href="#CMR17-53"/>
       <use transform="translate(177.605129 36.153639)scale(0.697382)" xlink:href="#CMR17-48"/>
      </g>
     </g>
    </g>
    <g id="ytick_9">
     <g id="line2d_35">
      <g>
       <use style="stroke:#000000;stroke-width:0.8;" x="54.83073" xlink:href="#me39ff8c632" y="264.430977"/>
      </g>
     </g>
     <g id="text_29">
      <!-- $10^{-75}$ -->
      <g transform="translate(24.698919 267.890226)scale(0.1 -0.1)">
       <use transform="scale(0.996264)" xlink:href="#CMR17-49"/>
       <use transform="translate(45.690477 0)scale(0.996264)" xlink:href="#CMR17-48"/>
       <use transform="translate(91.380954 36.153639)scale(0.697382)" xlink:href="#CMSY10-0"/>
       <use transform="translate(145.621947 36.153639)scale(0.697382)" xlink:href="#CMR17-55"/>
       <use transform="translate(177.605129 36.153639)scale(0.697382)" xlink:href="#CMR17-53"/>
      </g>
     </g>
    </g>
    <g id="ytick_10">
     <g id="line2d_36">
      <g>
       <use style="stroke:#000000;stroke-width:0.8;" x="54.83073" xlink:href="#me39ff8c632" y="292.746861"/>
      </g>
     </g>
     <g id="text_30">
      <!-- $10^{-100}$ -->
      <g transform="translate(20.727682 296.206111)scale(0.1 -0.1)">
       <use transform="scale(0.996264)" xlink:href="#CMR17-49"/>
       <use transform="translate(45.690477 0)scale(0.996264)" xlink:href="#CMR17-48"/>
       <use transform="translate(91.380954 36.153639)scale(0.697382)" xlink:href="#CMSY10-0"/>
       <use transform="translate(145.621947 36.153639)scale(0.697382)" xlink:href="#CMR17-49"/>
       <use transform="translate(177.605129 36.153639)scale(0.697382)" xlink:href="#CMR17-48"/>
       <use transform="translate(209.588311 36.153639)scale(0.697382)" xlink:href="#CMR17-48"/>
      </g>
     </g>
    </g>
    <g id="ytick_11">
     <g id="line2d_37">
      <g>
       <use style="stroke:#000000;stroke-width:0.8;" x="54.83073" xlink:href="#me39ff8c632" y="321.062746"/>
      </g>
     </g>
     <g id="text_31">
      <!-- $10^{-125}$ -->
      <g transform="translate(20.727682 324.521995)scale(0.1 -0.1)">
       <use transform="scale(0.996264)" xlink:href="#CMR17-49"/>
       <use transform="translate(45.690477 0)scale(0.996264)" xlink:href="#CMR17-48"/>
       <use transform="translate(91.380954 36.153639)scale(0.697382)" xlink:href="#CMSY10-0"/>
       <use transform="translate(145.621947 36.153639)scale(0.697382)" xlink:href="#CMR17-49"/>
       <use transform="translate(177.605129 36.153639)scale(0.697382)" xlink:href="#CMR17-50"/>
       <use transform="translate(209.588311 36.153639)scale(0.697382)" xlink:href="#CMR17-53"/>
      </g>
     </g>
    </g>
    <g id="text_32">
     <!-- $\mathcal{A}_2(K)(P_{n,2})^{K}$ -->
     <g transform="translate(14.403086 282.341516)rotate(-90)scale(0.12 -0.12)">
      <use transform="translate(0 14.943915)scale(0.996264)" xlink:href="#CMSY10-65"/>
      <use transform="translate(79.548829 0)scale(0.697382)" xlink:href="#CMR17-50"/>
      <use transform="translate(112.030143 14.943915)scale(0.996264)" xlink:href="#CMR17-40"/>
      <use transform="translate(147.310911 14.943915)scale(0.996264)" xlink:href="#CMMI12-75"/>
      <use transform="translate(237.458332 14.943915)scale(0.996264)" xlink:href="#CMR17-41"/>
      <use transform="translate(272.7391 14.943915)scale(0.996264)" xlink:href="#CMR17-40"/>
      <use transform="translate(308.019868 14.943915)scale(0.996264)" xlink:href="#CMMI12-80"/>
      <use transform="translate(370.8971 0)scale(0.697382)" xlink:href="#CMMI12-110"/>
      <use transform="translate(411.657943 0)scale(0.697382)" xlink:href="#CMMI12-59"/>
      <use transform="translate(430.625876 0)scale(0.697382)" xlink:href="#CMR17-50"/>
      <use transform="translate(463.10719 14.943915)scale(0.996264)" xlink:href="#CMR17-41"/>
      <use transform="translate(498.387957 51.097553)scale(0.697382)" xlink:href="#CMMI12-75"/>
     </g>
    </g>
   </g>
   <g id="patch_8">
    <path d="M 54.83073 321.062746 
L 54.83073 173.405655 
" style="fill:none;stroke:#000000;stroke-linecap:square;stroke-linejoin:miter;stroke-width:0.8;"/>
   </g>
   <g id="patch_9">
    <path d="M 313.331484 321.062746 
L 313.331484 173.405655 
" style="fill:none;stroke:#000000;stroke-linecap:square;stroke-linejoin:miter;stroke-width:0.8;"/>
   </g>
   <g id="patch_10">
    <path d="M 54.83073 321.062746 
L 313.331484 321.062746 
" style="fill:none;stroke:#000000;stroke-linecap:square;stroke-linejoin:miter;stroke-width:0.8;"/>
   </g>
   <g id="patch_11">
    <path d="M 54.83073 173.405655 
L 313.331484 173.405655 
" style="fill:none;stroke:#000000;stroke-linecap:square;stroke-linejoin:miter;stroke-width:0.8;"/>
   </g>
   <g id="text_33">
    <!-- $N=16$ -->
    <g transform="translate(270.73761 186.279137)scale(0.12 -0.12)">
     <use transform="scale(0.996264)" xlink:href="#CMMI12-78"/>
     <use transform="translate(116.195781 0)scale(0.996264)" xlink:href="#CMR17-61"/>
     <use transform="translate(215.584578 0)scale(0.996264)" xlink:href="#CMR17-49"/>
     <use transform="translate(261.275056 0)scale(0.996264)" xlink:href="#CMR17-54"/>
    </g>
   </g>
   <g id="line2d_38">
    <g clip-path="url(#pedbd1b16cf)">
     <use style="fill:#fef8f1;stroke:#ff8c00;stroke-width:0.25;" x="66.580764" xlink:href="#m4409d22996" y="226.523401"/>
     <use style="fill:#fef8f1;stroke:#ff8c00;stroke-width:0.25;" x="81.268307" xlink:href="#m4409d22996" y="225.588127"/>
     <use style="fill:#fef8f1;stroke:#ff8c00;stroke-width:0.25;" x="95.95585" xlink:href="#m4409d22996" y="224.848986"/>
     <use style="fill:#fef8f1;stroke:#ff8c00;stroke-width:0.25;" x="110.643393" xlink:href="#m4409d22996" y="209.259653"/>
     <use style="fill:#fef8f1;stroke:#ff8c00;stroke-width:0.25;" x="125.330936" xlink:href="#m4409d22996" y="197.281376"/>
     <use style="fill:#fef8f1;stroke:#ff8c00;stroke-width:0.25;" x="140.018479" xlink:href="#m4409d22996" y="188.788748"/>
     <use style="fill:#fef8f1;stroke:#ff8c00;stroke-width:0.25;" x="154.706022" xlink:href="#m4409d22996" y="183.329262"/>
     <use style="fill:#fef8f1;stroke:#ff8c00;stroke-width:0.25;" x="169.393564" xlink:href="#m4409d22996" y="180.456706"/>
     <use style="fill:#fef8f1;stroke:#ff8c00;stroke-width:0.25;" x="184.081107" xlink:href="#m4409d22996" y="179.643051"/>
     <use style="fill:#fef8f1;stroke:#ff8c00;stroke-width:0.25;" x="198.76865" xlink:href="#m4409d22996" y="180.456706"/>
     <use style="fill:#fef8f1;stroke:#ff8c00;stroke-width:0.25;" x="213.456193" xlink:href="#m4409d22996" y="183.329262"/>
     <use style="fill:#fef8f1;stroke:#ff8c00;stroke-width:0.25;" x="228.143736" xlink:href="#m4409d22996" y="188.788748"/>
     <use style="fill:#fef8f1;stroke:#ff8c00;stroke-width:0.25;" x="242.831279" xlink:href="#m4409d22996" y="197.281376"/>
     <use style="fill:#fef8f1;stroke:#ff8c00;stroke-width:0.25;" x="257.518821" xlink:href="#m4409d22996" y="209.259653"/>
     <use style="fill:#fef8f1;stroke:#ff8c00;stroke-width:0.25;" x="272.206364" xlink:href="#m4409d22996" y="224.849771"/>
     <use style="fill:#fef8f1;stroke:#ff8c00;stroke-width:0.25;" x="286.893907" xlink:href="#m4409d22996" y="225.602394"/>
     <use style="fill:#fef8f1;stroke:#ff8c00;stroke-width:0.25;" x="301.58145" xlink:href="#m4409d22996" y="226.518047"/>
    </g>
   </g>
   <g id="line2d_39">
    <g clip-path="url(#pedbd1b16cf)">
     <use style="fill:#fee7cb;stroke:#ff8c00;stroke-width:0.25;" x="66.580764" xlink:href="#m0b979ea41b" y="237.454854"/>
     <use style="fill:#fee7cb;stroke:#ff8c00;stroke-width:0.25;" x="81.268307" xlink:href="#m0b979ea41b" y="234.689651"/>
     <use style="fill:#fee7cb;stroke:#ff8c00;stroke-width:0.25;" x="95.95585" xlink:href="#m0b979ea41b" y="227.886106"/>
     <use style="fill:#fee7cb;stroke:#ff8c00;stroke-width:0.25;" x="110.643393" xlink:href="#m0b979ea41b" y="210.880531"/>
     <use style="fill:#fee7cb;stroke:#ff8c00;stroke-width:0.25;" x="125.330936" xlink:href="#m0b979ea41b" y="198.191431"/>
     <use style="fill:#fee7cb;stroke:#ff8c00;stroke-width:0.25;" x="140.018479" xlink:href="#m0b979ea41b" y="189.238956"/>
     <use style="fill:#fee7cb;stroke:#ff8c00;stroke-width:0.25;" x="154.706022" xlink:href="#m0b979ea41b" y="183.510306"/>
     <use style="fill:#fee7cb;stroke:#ff8c00;stroke-width:0.25;" x="169.393564" xlink:href="#m0b979ea41b" y="180.500377"/>
     <use style="fill:#fee7cb;stroke:#ff8c00;stroke-width:0.25;" x="184.081107" xlink:href="#m0b979ea41b" y="179.627157"/>
     <use style="fill:#fee7cb;stroke:#ff8c00;stroke-width:0.25;" x="198.76865" xlink:href="#m0b979ea41b" y="180.500377"/>
     <use style="fill:#fee7cb;stroke:#ff8c00;stroke-width:0.25;" x="213.456193" xlink:href="#m0b979ea41b" y="183.510306"/>
     <use style="fill:#fee7cb;stroke:#ff8c00;stroke-width:0.25;" x="228.143736" xlink:href="#m0b979ea41b" y="189.238956"/>
     <use style="fill:#fee7cb;stroke:#ff8c00;stroke-width:0.25;" x="242.831279" xlink:href="#m0b979ea41b" y="198.191431"/>
     <use style="fill:#fee7cb;stroke:#ff8c00;stroke-width:0.25;" x="257.518821" xlink:href="#m0b979ea41b" y="210.880531"/>
     <use style="fill:#fee7cb;stroke:#ff8c00;stroke-width:0.25;" x="272.206364" xlink:href="#m0b979ea41b" y="227.88611"/>
     <use style="fill:#fee7cb;stroke:#ff8c00;stroke-width:0.25;" x="286.893907" xlink:href="#m0b979ea41b" y="234.691562"/>
     <use style="fill:#fee7cb;stroke:#ff8c00;stroke-width:0.25;" x="301.58145" xlink:href="#m0b979ea41b" y="237.393902"/>
    </g>
   </g>
   <g id="line2d_40">
    <g clip-path="url(#pedbd1b16cf)">
     <use style="fill:#feca8b;stroke:#ff8c00;stroke-width:0.25;" x="66.580764" xlink:href="#m7ba1f5653e" y="245.339317"/>
     <use style="fill:#feca8b;stroke:#ff8c00;stroke-width:0.25;" x="81.268307" xlink:href="#m7ba1f5653e" y="243.765214"/>
     <use style="fill:#feca8b;stroke:#ff8c00;stroke-width:0.25;" x="95.95585" xlink:href="#m7ba1f5653e" y="231.537182"/>
     <use style="fill:#feca8b;stroke:#ff8c00;stroke-width:0.25;" x="110.643393" xlink:href="#m7ba1f5653e" y="213.120955"/>
     <use style="fill:#feca8b;stroke:#ff8c00;stroke-width:0.25;" x="125.330936" xlink:href="#m7ba1f5653e" y="199.493182"/>
     <use style="fill:#feca8b;stroke:#ff8c00;stroke-width:0.25;" x="140.018479" xlink:href="#m7ba1f5653e" y="189.940808"/>
     <use style="fill:#feca8b;stroke:#ff8c00;stroke-width:0.25;" x="154.706022" xlink:href="#m7ba1f5653e" y="183.8428"/>
     <use style="fill:#feca8b;stroke:#ff8c00;stroke-width:0.25;" x="169.393564" xlink:href="#m7ba1f5653e" y="180.5918"/>
     <use style="fill:#feca8b;stroke:#ff8c00;stroke-width:0.25;" x="184.081107" xlink:href="#m7ba1f5653e" y="179.599495"/>
     <use style="fill:#feca8b;stroke:#ff8c00;stroke-width:0.25;" x="198.76865" xlink:href="#m7ba1f5653e" y="180.5918"/>
     <use style="fill:#feca8b;stroke:#ff8c00;stroke-width:0.25;" x="213.456193" xlink:href="#m7ba1f5653e" y="183.8428"/>
     <use style="fill:#feca8b;stroke:#ff8c00;stroke-width:0.25;" x="228.143736" xlink:href="#m7ba1f5653e" y="189.940808"/>
     <use style="fill:#feca8b;stroke:#ff8c00;stroke-width:0.25;" x="242.831279" xlink:href="#m7ba1f5653e" y="199.493182"/>
     <use style="fill:#feca8b;stroke:#ff8c00;stroke-width:0.25;" x="257.518821" xlink:href="#m7ba1f5653e" y="213.120955"/>
     <use style="fill:#feca8b;stroke:#ff8c00;stroke-width:0.25;" x="272.206364" xlink:href="#m7ba1f5653e" y="231.537182"/>
     <use style="fill:#feca8b;stroke:#ff8c00;stroke-width:0.25;" x="286.893907" xlink:href="#m7ba1f5653e" y="243.765207"/>
     <use style="fill:#feca8b;stroke:#ff8c00;stroke-width:0.25;" x="301.58145" xlink:href="#m7ba1f5653e" y="245.339437"/>
    </g>
   </g>
   <g id="line2d_41">
    <g clip-path="url(#pedbd1b16cf)">
     <use style="fill:#feae4c;stroke:#ff8c00;stroke-width:0.25;" x="66.580764" xlink:href="#mee80e9a450" y="276.659761"/>
     <use style="fill:#feae4c;stroke:#ff8c00;stroke-width:0.25;" x="81.268307" xlink:href="#mee80e9a450" y="261.237176"/>
     <use style="fill:#feae4c;stroke:#ff8c00;stroke-width:0.25;" x="95.95585" xlink:href="#mee80e9a450" y="235.285696"/>
     <use style="fill:#feae4c;stroke:#ff8c00;stroke-width:0.25;" x="110.643393" xlink:href="#mee80e9a450" y="215.643381"/>
     <use style="fill:#feae4c;stroke:#ff8c00;stroke-width:0.25;" x="125.330936" xlink:href="#mee80e9a450" y="201.166309"/>
     <use style="fill:#feae4c;stroke:#ff8c00;stroke-width:0.25;" x="140.018479" xlink:href="#mee80e9a450" y="190.994034"/>
     <use style="fill:#feae4c;stroke:#ff8c00;stroke-width:0.25;" x="154.706022" xlink:href="#mee80e9a450" y="184.393937"/>
     <use style="fill:#feae4c;stroke:#ff8c00;stroke-width:0.25;" x="169.393564" xlink:href="#mee80e9a450" y="180.734111"/>
     <use style="fill:#feae4c;stroke:#ff8c00;stroke-width:0.25;" x="184.081107" xlink:href="#mee80e9a450" y="179.567561"/>
     <use style="fill:#feae4c;stroke:#ff8c00;stroke-width:0.25;" x="198.76865" xlink:href="#mee80e9a450" y="180.734111"/>
     <use style="fill:#feae4c;stroke:#ff8c00;stroke-width:0.25;" x="213.456193" xlink:href="#mee80e9a450" y="184.393937"/>
     <use style="fill:#feae4c;stroke:#ff8c00;stroke-width:0.25;" x="228.143736" xlink:href="#mee80e9a450" y="190.994034"/>
     <use style="fill:#feae4c;stroke:#ff8c00;stroke-width:0.25;" x="242.831279" xlink:href="#mee80e9a450" y="201.166309"/>
     <use style="fill:#feae4c;stroke:#ff8c00;stroke-width:0.25;" x="257.518821" xlink:href="#mee80e9a450" y="215.643381"/>
     <use style="fill:#feae4c;stroke:#ff8c00;stroke-width:0.25;" x="272.206364" xlink:href="#mee80e9a450" y="235.285696"/>
     <use style="fill:#feae4c;stroke:#ff8c00;stroke-width:0.25;" x="286.893907" xlink:href="#mee80e9a450" y="261.237176"/>
     <use style="fill:#feae4c;stroke:#ff8c00;stroke-width:0.25;" x="301.58145" xlink:href="#mee80e9a450" y="276.660429"/>
    </g>
   </g>
   <g id="line2d_42">
    <g clip-path="url(#pedbd1b16cf)">
     <use style="fill:#fe8b00;stroke:#ff8c00;stroke-width:0.25;" x="66.580764" xlink:href="#m38dd54bb1c" y="302.301598"/>
     <use style="fill:#fe8b00;stroke:#ff8c00;stroke-width:0.25;" x="81.268307" xlink:href="#m38dd54bb1c" y="266.208438"/>
     <use style="fill:#fe8b00;stroke:#ff8c00;stroke-width:0.25;" x="95.95585" xlink:href="#m38dd54bb1c" y="239.011908"/>
     <use style="fill:#fe8b00;stroke:#ff8c00;stroke-width:0.25;" x="110.643393" xlink:href="#m38dd54bb1c" y="218.430997"/>
     <use style="fill:#fe8b00;stroke:#ff8c00;stroke-width:0.25;" x="125.330936" xlink:href="#m38dd54bb1c" y="203.166312"/>
     <use style="fill:#fe8b00;stroke:#ff8c00;stroke-width:0.25;" x="140.018479" xlink:href="#m38dd54bb1c" y="192.273718"/>
     <use style="fill:#fe8b00;stroke:#ff8c00;stroke-width:0.25;" x="154.706022" xlink:href="#m38dd54bb1c" y="185.024091"/>
     <use style="fill:#fe8b00;stroke:#ff8c00;stroke-width:0.25;" x="169.393564" xlink:href="#m38dd54bb1c" y="180.887209"/>
     <use style="fill:#fe8b00;stroke:#ff8c00;stroke-width:0.25;" x="184.081107" xlink:href="#m38dd54bb1c" y="179.543558"/>
     <use style="fill:#fe8b00;stroke:#ff8c00;stroke-width:0.25;" x="198.76865" xlink:href="#m38dd54bb1c" y="180.887209"/>
     <use style="fill:#fe8b00;stroke:#ff8c00;stroke-width:0.25;" x="213.456193" xlink:href="#m38dd54bb1c" y="185.024091"/>
     <use style="fill:#fe8b00;stroke:#ff8c00;stroke-width:0.25;" x="228.143736" xlink:href="#m38dd54bb1c" y="192.273718"/>
     <use style="fill:#fe8b00;stroke:#ff8c00;stroke-width:0.25;" x="242.831279" xlink:href="#m38dd54bb1c" y="203.166312"/>
     <use style="fill:#fe8b00;stroke:#ff8c00;stroke-width:0.25;" x="257.518821" xlink:href="#m38dd54bb1c" y="218.430997"/>
     <use style="fill:#fe8b00;stroke:#ff8c00;stroke-width:0.25;" x="272.206364" xlink:href="#m38dd54bb1c" y="239.011908"/>
     <use style="fill:#fe8b00;stroke:#ff8c00;stroke-width:0.25;" x="286.893907" xlink:href="#m38dd54bb1c" y="266.208438"/>
     <use style="fill:#fe8b00;stroke:#ff8c00;stroke-width:0.25;" x="301.58145" xlink:href="#m38dd54bb1c" y="302.301616"/>
    </g>
   </g>
  </g>
  <g id="axes_3">
   <g id="patch_12">
    <path d="M 149.225199 290.345534 
L 249.290007 290.345534 
L 249.290007 221.496545 
L 149.225199 221.496545 
z
" style="fill:none;"/>
   </g>
   <g id="matplotlib.axis_5">
    <g id="xtick_12">
     <g id="line2d_43">
      <g>
       <use style="stroke:#000000;stroke-width:0.8;" x="174.701063" xlink:href="#m8b633dbbc8" y="290.345534"/>
      </g>
     </g>
     <g id="text_34">
      <!-- $1.0$ -->
      <g transform="translate(168.336023 303.264032)scale(0.1 -0.1)">
       <use transform="scale(0.996264)" xlink:href="#CMR17-49"/>
       <use transform="translate(45.690477 0)scale(0.996264)" xlink:href="#CMMI12-58"/>
       <use transform="translate(72.787654 0)scale(0.996264)" xlink:href="#CMR17-48"/>
      </g>
     </g>
    </g>
    <g id="xtick_13">
     <g id="line2d_44">
      <g>
       <use style="stroke:#000000;stroke-width:0.8;" x="204.545935" xlink:href="#m8b633dbbc8" y="290.345534"/>
      </g>
     </g>
     <g id="text_35">
      <!-- $1.5$ -->
      <g transform="translate(198.180896 303.264032)scale(0.1 -0.1)">
       <use transform="scale(0.996264)" xlink:href="#CMR17-49"/>
       <use transform="translate(45.690477 0)scale(0.996264)" xlink:href="#CMMI12-58"/>
       <use transform="translate(72.787654 0)scale(0.996264)" xlink:href="#CMR17-53"/>
      </g>
     </g>
    </g>
    <g id="xtick_14">
     <g id="line2d_45">
      <g>
       <use style="stroke:#000000;stroke-width:0.8;" x="234.390808" xlink:href="#m8b633dbbc8" y="290.345534"/>
      </g>
     </g>
     <g id="text_36">
      <!-- $2.0$ -->
      <g transform="translate(228.025769 303.264032)scale(0.1 -0.1)">
       <use transform="scale(0.996264)" xlink:href="#CMR17-50"/>
       <use transform="translate(45.690477 0)scale(0.996264)" xlink:href="#CMMI12-58"/>
       <use transform="translate(72.787654 0)scale(0.996264)" xlink:href="#CMR17-48"/>
      </g>
     </g>
    </g>
    <g id="text_37">
     <!-- $K$ -->
     <g transform="translate(194.278046 317.50339)scale(0.12 -0.12)">
      <use transform="scale(0.996264)" xlink:href="#CMMI12-75"/>
     </g>
    </g>
   </g>
   <g id="matplotlib.axis_6">
    <g id="ytick_12">
     <g id="line2d_46">
      <g>
       <use style="stroke:#000000;stroke-width:0.8;" x="149.225199" xlink:href="#me39ff8c632" y="276.682588"/>
      </g>
     </g>
     <g id="text_38">
      <!-- $0.75$ -->
      <g transform="translate(125.513785 280.141837)scale(0.1 -0.1)">
       <use transform="scale(0.996264)" xlink:href="#CMR17-48"/>
       <use transform="translate(45.690477 0)scale(0.996264)" xlink:href="#CMMI12-58"/>
       <use transform="translate(72.787654 0)scale(0.996264)" xlink:href="#CMR17-55"/>
       <use transform="translate(118.478131 0)scale(0.996264)" xlink:href="#CMR17-53"/>
      </g>
     </g>
    </g>
    <g id="ytick_13">
     <g id="line2d_47">
      <g>
       <use style="stroke:#000000;stroke-width:0.8;" x="149.225199" xlink:href="#me39ff8c632" y="257.366592"/>
      </g>
     </g>
     <g id="text_39">
      <!-- $0.80$ -->
      <g transform="translate(125.513785 260.825841)scale(0.1 -0.1)">
       <use transform="scale(0.996264)" xlink:href="#CMR17-48"/>
       <use transform="translate(45.690477 0)scale(0.996264)" xlink:href="#CMMI12-58"/>
       <use transform="translate(72.787654 0)scale(0.996264)" xlink:href="#CMR17-56"/>
       <use transform="translate(118.478131 0)scale(0.996264)" xlink:href="#CMR17-48"/>
      </g>
     </g>
    </g>
    <g id="ytick_14">
     <g id="line2d_48">
      <g>
       <use style="stroke:#000000;stroke-width:0.8;" x="149.225199" xlink:href="#me39ff8c632" y="238.050597"/>
      </g>
     </g>
     <g id="text_40">
      <!-- $0.85$ -->
      <g transform="translate(125.513785 241.509846)scale(0.1 -0.1)">
       <use transform="scale(0.996264)" xlink:href="#CMR17-48"/>
       <use transform="translate(45.690477 0)scale(0.996264)" xlink:href="#CMMI12-58"/>
       <use transform="translate(72.787654 0)scale(0.996264)" xlink:href="#CMR17-56"/>
       <use transform="translate(118.478131 0)scale(0.996264)" xlink:href="#CMR17-53"/>
      </g>
     </g>
    </g>
    <g id="text_41">
     <!-- $\mathcal{A}_2(K)(P_{8,2})^{K}$ -->
     <g transform="translate(119.189189 290.576345)rotate(-90)scale(0.12 -0.12)">
      <use transform="translate(0 14.943915)scale(0.996264)" xlink:href="#CMSY10-65"/>
      <use transform="translate(79.548829 0)scale(0.697382)" xlink:href="#CMR17-50"/>
      <use transform="translate(112.030143 14.943915)scale(0.996264)" xlink:href="#CMR17-40"/>
      <use transform="translate(147.310911 14.943915)scale(0.996264)" xlink:href="#CMMI12-75"/>
      <use transform="translate(237.458332 14.943915)scale(0.996264)" xlink:href="#CMR17-41"/>
      <use transform="translate(272.7391 14.943915)scale(0.996264)" xlink:href="#CMR17-40"/>
      <use transform="translate(308.019868 14.943915)scale(0.996264)" xlink:href="#CMMI12-80"/>
      <use transform="translate(370.8971 0)scale(0.697382)" xlink:href="#CMR17-56"/>
      <use transform="translate(402.880282 0)scale(0.697382)" xlink:href="#CMMI12-59"/>
      <use transform="translate(421.848214 0)scale(0.697382)" xlink:href="#CMR17-50"/>
      <use transform="translate(454.329528 14.943915)scale(0.996264)" xlink:href="#CMR17-41"/>
      <use transform="translate(489.610296 51.097553)scale(0.697382)" xlink:href="#CMMI12-75"/>
     </g>
    </g>
   </g>
   <g id="patch_13">
    <path d="M 149.225199 290.345534 
L 149.225199 221.496545 
" style="fill:none;stroke:#000000;stroke-linecap:square;stroke-linejoin:miter;stroke-width:0.8;"/>
   </g>
   <g id="patch_14">
    <path d="M 249.290007 290.345534 
L 249.290007 221.496545 
" style="fill:none;stroke:#000000;stroke-linecap:square;stroke-linejoin:miter;stroke-width:0.8;"/>
   </g>
   <g id="patch_15">
    <path d="M 149.225199 290.345534 
L 249.290007 290.345534 
" style="fill:none;stroke:#000000;stroke-linecap:square;stroke-linejoin:miter;stroke-width:0.8;"/>
   </g>
   <g id="patch_16">
    <path d="M 149.225199 221.496545 
L 249.290007 221.496545 
" style="fill:none;stroke:#000000;stroke-linecap:square;stroke-linejoin:miter;stroke-width:0.8;"/>
   </g>
   <g id="line2d_49">
    <g clip-path="url(#p2a725db2ee)">
     <use style="fill:#fef8f1;stroke:#ff8c00;stroke-width:0.25;" x="153.773599" xlink:href="#m4409d22996" y="287.216034"/>
    </g>
   </g>
   <g id="line2d_50">
    <g clip-path="url(#p2a725db2ee)">
     <use style="fill:#fee7cb;stroke:#ff8c00;stroke-width:0.25;" x="159.778627" xlink:href="#m0b979ea41b" y="278.047095"/>
    </g>
   </g>
   <g id="line2d_51">
    <g clip-path="url(#p2a725db2ee)">
     <use style="fill:#feca8b;stroke:#ff8c00;stroke-width:0.25;" x="174.701063" xlink:href="#m7ba1f5653e" y="261.365631"/>
    </g>
   </g>
   <g id="line2d_52">
    <g clip-path="url(#p2a725db2ee)">
     <use style="fill:#feae4c;stroke:#ff8c00;stroke-width:0.25;" x="204.545935" xlink:href="#mee80e9a450" y="240.904521"/>
    </g>
   </g>
   <g id="line2d_53">
    <g clip-path="url(#p2a725db2ee)">
     <use style="fill:#fe8b00;stroke:#ff8c00;stroke-width:0.25;" x="244.741607" xlink:href="#m38dd54bb1c" y="224.626044"/>
    </g>
   </g>
  </g>
 </g>
 <defs>
  <clipPath id="p9e9d10676b">
   <rect height="147.657091" width="258.500754" x="54.83073" y="3.6"/>
  </clipPath>
  <clipPath id="pedbd1b16cf">
   <rect height="147.657091" width="258.500754" x="54.83073" y="173.405655"/>
  </clipPath>
  <clipPath id="p2a725db2ee">
   <rect height="68.848989" width="100.064808" x="149.225199" y="221.496545"/>
  </clipPath>
 </defs>
</svg>
